<svg width="32" height="27" viewBox="0 0 32 27" fill="none" xmlns="http://www.w3.org/2000/svg">
<rect width="32" height="27" rx="13.5" fill="#B4B4B4" fill-opacity="0.3"/>
<path d="M20.3652 10.3652V9.13477H14.125V10.3652H20.3652ZM17.875 15.375V14.1152H14.125V15.375H17.875ZM20.3652 12.8848V11.625H14.125V12.8848H20.3652ZM21.0098 7.25977C21.3418 7.25977 21.625 7.38672 21.8594 7.64062C22.1133 7.875 22.2402 8.1582 22.2402 8.49023V15.9902C22.2402 16.3223 22.1133 16.6152 21.8594 16.8691C21.625 17.123 21.3418 17.25 21.0098 17.25H13.5098C13.1777 17.25 12.8848 17.123 12.6309 16.8691C12.377 16.6152 12.25 16.3223 12.25 15.9902V8.49023C12.25 8.1582 12.377 7.875 12.6309 7.64062C12.8848 7.38672 13.1777 7.25977 13.5098 7.25977H21.0098ZM10.9902 9.75V18.5098H19.75V19.7402H10.9902C10.6582 19.7402 10.3652 19.623 10.1113 19.3887C9.87695 19.1348 9.75977 18.8418 9.75977 18.5098V9.75H10.9902Z" fill="#053856"/>
</svg>
