<svg width="32" height="27" viewBox="0 0 32 27" fill="none" xmlns="http://www.w3.org/2000/svg">
<rect width="32" height="27" rx="13.5" fill="#B4B4B4" fill-opacity="0.3"/>
<path d="M16 7.875H21.625V12.2402H17.875L16 14.1152V7.875ZM21.0098 15.6973C21.1855 15.6973 21.332 15.7559 21.4492 15.873C21.5664 15.9902 21.625 16.1367 21.625 16.3125V18.5098C21.625 18.6855 21.5664 18.832 21.4492 18.9492C21.332 19.0664 21.1855 19.125 21.0098 19.125C18.0801 19.125 15.5703 18.0898 13.4805 16.0195C11.4102 13.9297 10.375 11.4199 10.375 8.49023C10.375 8.31445 10.4336 8.16797 10.5508 8.05078C10.668 7.93359 10.8145 7.875 10.9902 7.875H13.1875C13.3633 7.875 13.5098 7.93359 13.627 8.05078C13.7441 8.16797 13.8027 8.31445 13.8027 8.49023V8.51953C13.8027 9.32031 13.9199 10.0527 14.1543 10.7168C14.2324 10.9707 14.1836 11.1855 14.0078 11.3613L12.6309 12.7383C13.0215 13.4805 13.6172 14.2617 14.418 15.082C15.2383 15.8828 16.0195 16.4785 16.7617 16.8691L18.1387 15.4922C18.2754 15.3555 18.4219 15.2871 18.5781 15.2871C18.6367 15.2871 18.7051 15.3066 18.7832 15.3457C19.4863 15.5801 20.2285 15.6973 21.0098 15.6973Z" fill="#053856"/>
</svg>
