<svg width="48" height="45" viewBox="0 0 48 45" fill="none" xmlns="http://www.w3.org/2000/svg">
<path d="M27.6967 12.7294L26.0485 7.22499C25.7832 6.33601 25.0076 5.76282 24.0742 5.76282C23.1407 5.76282 22.3672 6.33601 22.0999 7.22499L20.4516 12.7294C19.8097 13.1236 19.3804 13.8296 19.3804 14.6321V41.4962C19.3804 43.1735 20.7533 44.5351 22.4401 44.5351H25.7042C27.393 44.5351 28.7639 43.1715 28.7639 41.4962V14.6321C28.7639 13.8296 28.3346 13.1237 27.6927 12.7294H27.6967ZM20.8848 16.4522V14.6321C20.8848 14.2218 21.2209 13.8879 21.634 13.8879H26.518C26.9311 13.8879 27.2673 14.2218 27.2673 14.6321V16.4522H20.8848ZM27.2656 17.9446V20.0483H20.8848V17.9446H27.2656ZM23.5418 7.6492C23.6511 7.28316 23.9771 7.25299 24.0743 7.25299C24.1715 7.25299 24.4976 7.28114 24.6069 7.6492L26.0284 12.3976H22.1203L23.5418 7.6492ZM25.7064 43.0448H22.4423C21.5817 43.0448 20.8831 42.3509 20.8831 41.4961V21.5387H27.2639V23.5399C24.8664 24.1251 23.0804 27.4758 23.0804 31.6492C23.0804 35.8225 24.8664 39.1749 27.2639 39.7585V41.4962C27.2639 42.3509 26.567 43.0448 25.7064 43.0448ZM27.2656 25.1125V38.1878C25.753 37.4979 24.5846 34.7848 24.5846 31.6514C24.5846 28.5179 25.753 25.805 27.2656 25.1151V25.1125ZM47.2171 31.4077L36.8677 6.58898C36.5579 5.84683 35.8897 5.35809 35.1445 5.23743L31.5017 0.778607C30.9144 0.0585956 29.9769 -0.176746 29.1143 0.177232C28.2517 0.531209 27.7576 1.35583 27.8548 2.27896L28.4542 7.99322C28.3529 8.13401 28.2659 8.28485 28.197 8.44777C27.9662 8.99886 27.9662 9.60624 28.197 10.1594L38.5464 34.9781C39.0344 36.1486 40.1765 36.8546 41.3773 36.8546C41.7681 36.8546 42.1629 36.7801 42.5456 36.6233L45.5607 35.3823C47.1199 34.7408 47.8631 32.9588 47.2171 31.4101L47.2171 31.4077ZM44.5523 28.9198C42.8879 28.8575 40.7637 26.794 39.5569 23.8998C38.3501 21.0056 38.3824 18.0551 39.5144 16.8404L44.5523 28.9198ZM37.5646 12.1602L31.6702 14.5857L30.8602 12.6429L36.7546 10.2174L37.5646 12.1602ZM29.6878 1.55461C29.7789 1.51841 30.0908 1.41986 30.3338 1.71752L33.4764 5.563L29.866 7.04932L29.3497 2.12367C29.3092 1.74355 29.6008 1.59271 29.6899 1.55649L29.6878 1.55461ZM29.5825 9.01431C29.6595 8.83129 29.8032 8.68849 29.9875 8.61206L34.5009 6.75568C34.594 6.71746 34.6912 6.69936 34.7864 6.69936C34.8836 6.69936 34.9808 6.71746 35.0719 6.75568C35.2562 6.8321 35.3999 6.9749 35.4769 7.15792L36.1775 8.83934L30.2831 11.2649L29.5825 9.58346C29.5055 9.40044 29.5056 9.19735 29.5825 9.01431ZM44.9861 33.9995L41.971 35.2405C41.5863 35.3994 41.1631 35.3994 40.7784 35.2405C40.3937 35.0816 40.0939 34.7839 39.934 34.4018L32.2456 15.9632L38.14 13.5377L38.9114 15.386C36.921 16.8381 36.5646 20.6128 38.1703 24.4688C39.6688 28.0629 42.3275 30.4101 44.6583 30.4101C44.8263 30.4101 44.9944 30.398 45.1605 30.3719L45.8307 31.9768C46.1588 32.7652 45.7799 33.6717 44.9861 33.9995ZM19.6992 7.98799L20.2986 2.27587C20.3958 1.35471 19.8997 0.530093 19.0391 0.174142C18.1765 -0.179835 17.241 0.0554806 16.6517 0.775518L13.0109 5.23434C12.8388 5.2625 12.6687 5.30876 12.5047 5.37714C11.9498 5.60642 11.5165 6.03481 11.2857 6.58792L0.934075 31.4067C0.622235 32.1568 0.622235 32.9835 0.934075 33.7336C1.24591 34.4838 1.83515 35.0671 2.59047 35.3788L5.60557 36.6198C5.98221 36.7746 6.37908 36.8531 6.77599 36.8531C7.17289 36.8531 7.56975 36.7746 7.9464 36.6198C8.70168 36.31 9.28891 35.7248 9.60279 34.9746L19.9522 10.1558C20.262 9.41368 20.1365 8.59915 19.6951 7.98975L19.6992 7.98799ZM17.8181 1.7168C18.061 1.41913 18.3729 1.51769 18.464 1.55389C18.5551 1.59009 18.8447 1.74093 18.8042 2.12106L18.2878 7.04671L14.6774 5.5604L17.8181 1.7168ZM11.3971 10.2165L17.2915 12.6421L16.4815 14.5849L10.5871 12.1594L11.3971 10.2165ZM7.37558 35.2404C6.99085 35.3993 6.56764 35.3993 6.18292 35.2404L3.16781 33.9994C2.37404 33.6736 1.99537 32.7646 2.32342 31.9762L10.0118 13.5376L15.9062 15.9631L15.1348 17.8114C12.6947 17.4394 9.75226 19.8589 8.14485 23.7145C6.53706 27.57 6.89547 31.345 8.88596 32.7973L8.2157 34.4023C8.05573 34.7844 7.75602 35.0821 7.3713 35.241L7.37558 35.2404ZM9.49363 31.3446C8.36171 30.1318 8.32728 27.1814 9.53615 24.2852C10.743 21.3911 12.8671 19.3274 14.5316 19.2652L9.49363 31.3446ZM18.5696 9.58295L17.8689 11.2644L11.9745 8.83882L12.6752 7.15741C12.7521 6.97439 12.8959 6.83158 13.0802 6.75516C13.2644 6.67874 13.4689 6.67874 13.6532 6.75516L18.1666 8.61155C18.5473 8.76842 18.7275 9.20481 18.5696 9.58295Z" fill="#053856"/>
<path d="M9.49363 31.3446C8.36171 30.1318 8.32728 27.1814 9.53615 24.2852C10.743 21.3911 12.8671 19.3274 14.5316 19.2652L9.49363 31.3446Z" fill="#053856"/>
<path d="M44.5523 28.9198C42.8879 28.8575 40.7637 26.794 39.5569 23.8998C38.3501 21.0056 38.3824 18.0551 39.5144 16.8404L44.5523 28.9198Z" fill="#053856"/>
<path d="M11.3971 10.2165L17.2915 12.6421L16.4815 14.5849L10.5871 12.1594L11.3971 10.2165Z" fill="#053856"/>
<path d="M17.8181 1.7168C18.061 1.41913 18.3729 1.51769 18.464 1.55389C18.5551 1.59009 18.8447 1.74093 18.8042 2.12106L18.2878 7.04671L14.6774 5.5604L17.8181 1.7168Z" fill="#053856"/>
<path d="M25.7064 43.0448H22.4423C21.5817 43.0448 20.8831 42.3509 20.8831 41.4961V21.5387H27.2639V23.5399C24.8664 24.1251 23.0804 27.4758 23.0804 31.6492C23.0804 35.8225 24.8664 39.1749 27.2639 39.7585V41.4962C27.2639 42.3509 26.567 43.0448 25.7064 43.0448Z" fill="#053856"/>
<path d="M20.8848 16.4522V14.6321C20.8848 14.2218 21.2209 13.8879 21.634 13.8879H26.518C26.9311 13.8879 27.2673 14.2218 27.2673 14.6321V16.4522H20.8848Z" fill="#053856"/>
<path d="M29.6878 1.55461C29.7789 1.51841 30.0908 1.41986 30.3338 1.71752L33.4764 5.563L29.866 7.04932L29.3497 2.12367C29.3092 1.74355 29.6008 1.59271 29.6899 1.55649L29.6878 1.55461Z" fill="#053856"/>
<path d="M37.5646 12.1602L31.6702 14.5857L30.8602 12.6429L36.7546 10.2174L37.5646 12.1602Z" fill="#053856"/>
</svg>
