<svg width="100" height="100" viewBox="0 0 100 100" fill="none" xmlns="http://www.w3.org/2000/svg">
<path d="M98.6947 6.95653H91.2468C88.9164 2.90866 84.5599 0.173913 79.5645 0.173913C74.5692 0.173913 70.2122 2.90866 67.8822 6.95653H65.0822C64.4517 3.02173 61.0605 0 56.9518 0H8.26082C3.7043 0 0 3.7044 0 8.26083V91.7392C0 96.2957 3.70439 100 8.26082 100H56.9564C61.5129 100 65.2172 96.2956 65.2172 91.7392V89.5652H98.6957C99.4174 89.5652 100 88.9826 100 88.2609V8.26083C100 7.5391 99.4174 6.95653 98.6957 6.95653H98.6947ZM79.5633 2.78261C85.559 2.78261 90.4331 7.65654 90.4331 13.6524C90.4331 20.4742 82.3592 30.3703 79.8852 33.2439C79.6591 33.5004 79.4678 33.5004 79.2417 33.2439C76.7678 30.37 68.6938 20.4735 68.6938 13.6524C68.6938 7.65673 73.5675 2.78261 79.5633 2.78261ZM77.2633 34.944C77.8416 35.6136 78.6763 36.0006 79.5633 36.0006C80.4459 36.0006 81.285 35.6136 81.8633 34.944C85.2242 31.044 93.042 21.1608 93.042 13.6524C93.042 12.2263 92.8159 10.8567 92.4029 9.5655H97.3899V59.1303H58.2599V9.5655H66.7252C66.3121 10.8568 66.086 12.2264 66.086 13.6524C66.086 21.1611 73.9034 31.0437 77.2647 34.944H77.2633ZM97.389 66.087H56.954C56.2323 66.087 55.6497 66.6696 55.6497 67.3913V86.9568H51.3019V53.9921C51.3019 53.5356 51.0628 53.1139 50.6758 52.8791C50.2845 52.6399 49.8019 52.6269 49.3976 52.8356L9.5627 73.4956V68.5739L50.5969 47.3045C51.0273 47.0784 51.3012 46.6349 51.3012 46.148V36.0953C51.3012 35.3736 50.7186 34.791 49.9969 34.791L9.56194 34.7823V30.4345H22.1709C22.8926 30.4345 23.4752 29.8519 23.4752 29.1302V9.56472H27.823V29.1302C27.823 29.8519 28.4056 30.4345 29.1273 30.4345H49.9968C50.7186 30.4345 51.3011 29.8519 51.3011 29.1302V9.56472H55.6489V60.4346C55.6489 61.1563 56.2316 61.7389 56.9532 61.7389H97.3882L97.389 66.087ZM30.433 9.56569H48.6934V27.8261H30.433V9.56569ZM9.56345 37.3918H48.6934V45.3439L9.56345 65.6273V37.3918ZM9.56345 76.4309L48.6934 56.1355V86.9566H9.56345V76.4309ZM9.56345 27.8261V9.56569H20.8673V27.8261H9.56345ZM62.6064 91.739C62.6064 94.8563 60.0716 97.3912 56.9542 97.3912H8.25859C5.14124 97.3912 2.60637 94.8564 2.60637 91.739V8.26064C2.60637 5.14329 5.14114 2.60842 8.25859 2.60842H56.9542C59.6194 2.60842 61.8455 4.46924 62.4411 6.95625H8.25822C7.53648 6.95625 6.95392 7.53885 6.95392 8.26055V88.2606C6.95392 88.9824 7.53652 89.5649 8.25822 89.5649H62.6062L62.6064 91.739ZM58.2586 86.9564V68.696H97.3885V86.9564H58.2586ZM69.5625 43.0431C69.5625 42.3214 70.1451 41.7388 70.8668 41.7388H88.258C88.9798 41.7388 89.5623 42.3214 89.5623 43.0431C89.5623 43.7648 88.9797 44.3474 88.258 44.3474H70.8668C70.145 44.3474 69.5625 43.7648 69.5625 43.0431Z" fill="#97D6BE"/>
<path d="M9.56345 37.3918H48.6934V45.3439L9.56345 65.6273V37.3918Z" fill="#97D6BE"/>
<path d="M9.56345 76.4309L48.6934 56.1355V86.9566H9.56345V76.4309Z" fill="#E4A28F"/>
<path d="M30.433 9.56569H48.6934V27.8261H30.433V9.56569Z" fill="#E4A28F"/>
<path d="M79.5633 2.78261C85.559 2.78261 90.4331 7.65654 90.4331 13.6524C90.4331 20.4742 82.3592 30.3703 79.8852 33.2439C79.6591 33.5004 79.4678 33.5004 79.2417 33.2439C76.7678 30.37 68.6938 20.4735 68.6938 13.6524C68.6938 7.65673 73.5675 2.78261 79.5633 2.78261Z" fill="#E4A28F"/>
</svg>
