<svg width="69" height="66" viewBox="0 0 69 66" fill="none" xmlns="http://www.w3.org/2000/svg">
<g id="Group 49723">
<g id="Group 49581">
<g id="Group 49576">
<path id="Vector" d="M11.0666 48.7417C9.60537 48.7417 8.37793 47.5178 8.37793 45.9905V25.9895C8.37793 24.4622 9.60537 23.2383 11.0666 23.2383C12.5278 23.2383 13.7553 24.4622 13.7553 25.9895V45.9905C13.7553 47.5178 12.5278 48.7417 11.0666 48.7417Z" stroke="#053856" stroke-width="2"/>
<path id="Vector_2" d="M35.1697 52.6133L56.1733 52.617V60.9979H5.9263C4.52528 60.9979 3.26953 59.7539 3.26953 58.1032V55.508C3.26953 53.8573 4.52528 52.6133 5.9263 52.6133H35.1695H35.1697Z" stroke="#053856" stroke-width="2"/>
<path id="Vector_3" d="M58 12.9671L58.0008 12.9672V16.2407C58.0008 17.7681 56.7733 18.9919 55.3121 18.9919H3.68867C2.22744 18.9919 1 17.7681 1 16.2407V12.9641C1 11.8153 1.71357 10.7827 2.72707 10.3972L2.72708 10.3972L2.73279 10.395L24.6627 1.89791C24.663 1.89779 24.6633 1.89768 24.6636 1.89757C27.7638 0.700828 31.2398 0.700811 34.34 1.89752C34.3404 1.89765 34.3407 1.89778 34.3411 1.89791L56.2671 10.3979L56.273 10.4002C57.2865 10.7857 58 11.8183 58 12.9671Z" stroke="#053856" stroke-width="2"/>
<path id="Vector_4" d="M23.3566 48.7417C21.8954 48.7417 20.668 47.5178 20.668 45.9905V25.9895C20.668 24.4622 21.8954 23.2383 23.3566 23.2383C24.8179 23.2383 26.0453 24.4622 26.0453 25.9895V45.9905C26.0453 47.5178 24.8179 48.7417 23.3566 48.7417Z" stroke="#053856" stroke-width="2"/>
<path id="Vector_5" d="M35.4582 48.7417C33.997 48.7417 32.7695 47.5178 32.7695 45.9905V25.9895C32.7695 24.4622 33.997 23.2383 35.4582 23.2383C36.9194 23.2383 38.1469 24.4622 38.1469 25.9895V45.9905C38.1469 47.5178 36.9194 48.7417 35.4582 48.7417Z" stroke="#053856" stroke-width="2"/>
<path id="Vector_6" d="M47.7473 48.7417C46.286 48.7417 45.0586 47.5178 45.0586 45.9905V25.9895C45.0586 24.4622 46.286 23.2383 47.7473 23.2383C49.2085 23.2383 50.4359 24.4622 50.4359 25.9895V45.9905C50.4359 47.5178 49.2085 48.7417 47.7473 48.7417Z" stroke="#053856" stroke-width="2"/>
</g>
</g>
<path id="Vector_7" d="M52.5929 54.7078L52.6141 54.7194L52.5929 54.7078ZM52.5929 54.7078L52.5547 54.7713M52.0814 55.5603L52.5539 54.7712L52.4624 54.7212L52.4625 54.721L52.554 54.7709L52.5921 54.7074L52.5593 54.6895L51.7375 54.241C51.4848 54.7049 51.6383 55.2945 52.0814 55.5603ZM52.0814 55.5603C52.5233 55.8249 53.0875 55.663 53.3402 55.2003L52.5546 54.7715L52.0814 55.5603ZM61.736 63.6084L62.5255 62.4412C64.5029 64.6856 68 63.1227 68 60.2355V40.5447C68 38.0796 66.0808 36 63.616 36H46.3849C43.9202 36 42.0008 38.0795 42.0008 40.5447C42.0008 40.5447 42.0008 40.5447 42.0008 40.5447L42 60.2355V60.2355C42 63.1226 45.4972 64.6856 47.4745 62.4412L48.2641 63.6085C49.3899 65.2727 51.7162 65.4865 53.1054 64.0213L53.1058 64.0208L55 62.0203L56.8942 64.0208L56.8946 64.0213C58.2838 65.4865 60.6101 65.2728 61.7359 63.6085C61.7359 63.6085 61.7359 63.6085 61.736 63.6084ZM55.5084 61.4833C55.5082 61.4836 55.5079 61.4838 55.5077 61.4841L55.5081 61.4837L55.5084 61.4833ZM54.4923 61.4841C54.4921 61.4838 54.4918 61.4836 54.4916 61.4833L54.4919 61.4837L54.4923 61.4841ZM52.5958 54.7028C52.6036 54.7075 52.6095 54.7132 52.613 54.7178L52.5933 54.7071L52.5958 54.7028ZM52.5951 54.7024L52.5925 54.7067L52.5618 54.6899C52.5756 54.6927 52.5871 54.6975 52.5951 54.7024Z" fill="#E4A28F" stroke="white" stroke-width="2"/>
</g>
</svg>
