<svg width="40" height="44" viewBox="0 0 40 44" fill="none" xmlns="http://www.w3.org/2000/svg">
<path d="M37.1045 0.773556C35.5388 0.773556 34.2642 2.04941 34.2551 3.62066H20.6636V2.90521C20.6636 1.72977 19.7113 0.773438 18.5404 0.773438C17.3696 0.773438 16.4196 1.72977 16.4196 2.90521V3.62066H13.5847V2.90521C13.5847 1.72977 12.6324 0.773438 11.4615 0.773438C10.2907 0.773438 9.34072 1.72977 9.34072 2.90521V3.62066H6.65515C6.64596 2.04882 5.37146 0.773556 3.80584 0.773556C2.24022 0.773556 0.956055 2.05867 0.956055 3.63805V43.1638C0.956055 43.5002 1.22738 43.7734 1.5626 43.7734H39.3495C39.6843 43.7734 39.9561 43.5007 39.9561 43.1638L39.9557 3.64199C39.9557 2.06246 38.6772 0.777498 37.106 0.777498L37.1045 0.773556ZM10.5528 28.859C10.5528 28.3556 10.96 27.9462 11.461 27.9462C11.9618 27.9462 12.3715 28.3555 12.3715 28.859V31.5116C12.3715 32.0151 11.9627 32.4245 11.461 32.4245C10.959 32.4245 10.5528 32.0152 10.5528 31.5116V28.859ZM11.461 26.7273C10.2915 26.7273 9.34013 27.6836 9.34013 28.859V29.5768H6.65456V17.8173H13.0146V18.6142C13.0146 19.7911 13.9669 20.7483 15.1378 20.7483C16.3086 20.7483 17.2586 19.7911 17.2586 18.6142V17.8173H20.096V18.6142C20.096 19.7911 21.0474 20.7483 22.2168 20.7483C23.3862 20.7483 24.3376 19.7911 24.3376 18.6142V17.8173H27.175V18.6142C27.175 19.7911 28.1264 20.7483 29.2958 20.7483C30.4652 20.7483 31.419 19.7911 31.419 18.6142V17.8173H34.2539V29.5768H13.5834V28.859C13.5834 27.6836 12.6318 26.7273 11.461 26.7273ZM16.0463 18.6148C16.0463 19.1197 15.639 19.53 15.1381 19.53C14.6372 19.53 14.2276 19.1191 14.2276 18.6148V15.9651C14.2276 15.4617 14.6357 15.0522 15.1381 15.0522C15.6404 15.0522 16.0463 15.4615 16.0463 15.9651V18.6148ZM23.1252 18.6148C23.1252 19.1197 22.718 19.53 22.217 19.53C21.7162 19.53 21.3088 19.1191 21.3088 18.6148V15.9651C21.3088 15.4617 21.7161 15.0522 22.217 15.0522C22.7179 15.0522 23.1252 15.4615 23.1252 15.9651V18.6148ZM30.2069 18.6148C30.2069 19.1197 29.7988 19.53 29.2964 19.53C28.794 19.53 28.3882 19.1191 28.3882 18.6148V15.9651C28.3882 15.4617 28.7955 15.0522 29.2964 15.0522C29.7973 15.0522 30.2069 15.4615 30.2069 15.9651V18.6148ZM17.6316 2.90541C17.6316 2.40197 18.0388 1.99252 18.5398 1.99252C19.0406 1.99252 19.4503 2.40185 19.4503 2.90541V5.55752C19.4503 6.06096 19.0415 6.47041 18.5398 6.47041C18.0379 6.47041 17.6316 6.06108 17.6316 5.55752V2.90541ZM10.5526 2.90541C10.5526 2.40197 10.9598 1.99252 11.4608 1.99252C11.9616 1.99252 12.3713 2.40185 12.3713 2.90541V5.55752C12.3713 6.06096 11.9626 6.47041 11.4608 6.47041C10.9589 6.47041 10.5526 6.06108 10.5526 5.55752V2.90541ZM11.4608 7.68981C12.6316 7.68981 13.5839 6.73348 13.5839 5.55804V4.84026H16.4189V5.55804C16.4189 6.73348 17.3703 7.68981 18.5397 7.68981C19.7091 7.68981 20.6628 6.73348 20.6628 5.55804V4.84026H34.254V16.5998H31.4191V15.9655C31.4191 14.79 30.4668 13.8337 29.296 13.8337C28.1251 13.8337 27.1751 14.79 27.1751 15.9655V16.5998H24.3377V15.9655C24.3377 14.79 23.3863 13.8337 22.2169 13.8337C21.0475 13.8337 20.0961 14.79 20.0961 15.9655V16.5998H17.2587V15.9655C17.2587 14.79 16.3073 13.8337 15.1379 13.8337C13.9685 13.8337 13.0147 14.79 13.0147 15.9655V16.5998H6.65468L6.65483 4.83986H9.3404V5.55764C9.3404 6.73308 10.2914 7.68981 11.4608 7.68981ZM2.16743 3.63828C2.16743 2.73076 2.90176 1.99268 3.80458 1.99268C4.70741 1.99268 5.44174 2.7308 5.44174 3.63828V42.5529H2.16743V3.63828ZM6.65429 30.7965H9.33986V31.512C9.33986 32.6874 10.2913 33.6438 11.4607 33.6438C12.6301 33.6438 13.5838 32.6874 13.5838 31.512V30.7965H34.2544V42.5529H6.65429V30.7965ZM38.7416 42.5529H35.4673L35.4675 3.63828C35.4675 2.73076 36.2018 1.99268 37.1046 1.99268C38.0074 1.99268 38.7418 2.7308 38.7418 3.63828L38.7416 42.5529Z" fill="#053856"/>
<path d="M38.7416 42.5529H35.4673L35.4675 3.63828C35.4675 2.73076 36.2018 1.99268 37.1046 1.99268C38.0074 1.99268 38.7418 2.7308 38.7418 3.63828L38.7416 42.5529Z" fill="#053856"/>
<path d="M2.16743 3.63828C2.16743 2.73076 2.90176 1.99268 3.80458 1.99268C4.70741 1.99268 5.44174 2.7308 5.44174 3.63828V42.5529H2.16743V3.63828Z" fill="#053856"/>
<path d="M10.5528 28.859C10.5528 28.3556 10.96 27.9462 11.461 27.9462C11.9618 27.9462 12.3715 28.3555 12.3715 28.859V31.5116C12.3715 32.0151 11.9627 32.4245 11.461 32.4245C10.959 32.4245 10.5528 32.0152 10.5528 31.5116V28.859Z" fill="#053856"/>
<path d="M23.1252 18.6148C23.1252 19.1197 22.718 19.53 22.217 19.53C21.7162 19.53 21.3088 19.1191 21.3088 18.6148V15.9651C21.3088 15.4617 21.7161 15.0522 22.217 15.0522C22.7179 15.0522 23.1252 15.4615 23.1252 15.9651V18.6148Z" fill="#053856"/>
<path d="M10.5526 2.90541C10.5526 2.40197 10.9598 1.99252 11.4608 1.99252C11.9616 1.99252 12.3713 2.40185 12.3713 2.90541V5.55752C12.3713 6.06096 11.9626 6.47041 11.4608 6.47041C10.9589 6.47041 10.5526 6.06108 10.5526 5.55752V2.90541Z" fill="#053856"/>
</svg>
