<svg width="100" height="51" viewBox="91 0 100 51" fill="none" xmlns="http://www.w3.org/2000/svg">
<path d="M114.844 23.8379V17.6299C114.844 17.1499 114.726 16.7926 114.492 16.5579C114.257 16.3126 113.916 16.1899 113.468 16.1899H109.004V14.1899H113.596C114.812 14.1899 115.729 14.4779 116.348 15.0539C116.966 15.6192 117.276 16.4619 117.276 17.5819V23.8379H114.844ZM107.292 23.8379L107.548 21.8379H108.124C108.326 21.8379 108.492 21.8006 108.62 21.7259C108.748 21.6406 108.844 21.5179 108.908 21.3579C108.972 21.1979 109.004 21.0006 109.004 20.7659V14.6539H111.436V20.7019C111.436 21.7259 111.196 22.5046 110.716 23.0379C110.246 23.5712 109.548 23.8379 108.62 23.8379H107.292ZM107.532 16.1899L107.804 14.1899H110.364V16.1899H107.532ZM120.311 23.8379V21.8379H123.703C124.279 21.8379 124.764 21.7206 125.159 21.4859C125.553 21.2406 125.852 20.9046 126.055 20.4779C126.268 20.0406 126.375 19.5232 126.375 18.9259C126.375 18.0299 126.199 17.3259 125.847 16.8139C125.495 16.2912 124.929 16.0299 124.151 16.0299C123.521 16.0299 123.063 16.1632 122.775 16.4299C122.497 16.6966 122.359 17.0432 122.359 17.4699C122.359 17.7686 122.428 18.0246 122.567 18.2379C122.716 18.4512 122.929 18.5952 123.207 18.6699C123.303 18.7019 123.399 18.7339 123.495 18.7659C123.591 18.7872 123.671 18.7979 123.735 18.7979L123.543 20.5419C123.393 20.5632 123.223 20.5686 123.031 20.5579C122.839 20.5366 122.599 20.4992 122.311 20.4459C121.607 20.3072 121.047 19.9712 120.631 19.4379C120.225 18.8939 120.023 18.2112 120.023 17.3899C120.023 16.7392 120.177 16.1632 120.487 15.6619C120.796 15.1499 121.255 14.7499 121.863 14.4619C122.481 14.1739 123.244 14.0299 124.151 14.0299C125.644 14.0299 126.801 14.4672 127.623 15.3419C128.444 16.2059 128.855 17.4006 128.855 18.9259C128.855 19.9392 128.641 20.8139 128.215 21.5499C127.799 22.2859 127.185 22.8512 126.375 23.2459C125.575 23.6406 124.604 23.8379 123.463 23.8379H120.311ZM130.96 23.8379L132.032 18.1739L130.688 14.1899H133.12L133.728 16.3819H133.792C133.941 15.9979 134.112 15.6619 134.304 15.3739C134.496 15.0752 134.725 14.8299 134.992 14.6379C135.258 14.4352 135.562 14.2859 135.904 14.1899C136.256 14.0832 136.661 14.0299 137.12 14.0299C137.877 14.0299 138.538 14.2166 139.104 14.5899C139.68 14.9526 140.128 15.4859 140.448 16.1899C140.778 16.8832 140.944 17.7259 140.944 18.7179V18.9419C140.944 19.9126 140.768 20.7659 140.416 21.5019C140.074 22.2379 139.573 22.8139 138.912 23.2299C138.25 23.6352 137.45 23.8379 136.512 23.8379H134.976L135.264 21.8379H136.4C137.061 21.8379 137.578 21.5659 137.952 21.0219C138.325 20.4779 138.512 19.7846 138.512 18.9419V18.7179C138.512 18.1419 138.426 17.6566 138.256 17.2619C138.085 16.8672 137.856 16.5739 137.568 16.3819C137.29 16.1792 136.976 16.0779 136.624 16.0779C136.24 16.0779 135.92 16.1366 135.664 16.2539C135.408 16.3606 135.194 16.5259 135.024 16.7499C134.864 16.9739 134.73 17.2406 134.624 17.5499C134.517 17.8592 134.437 18.2059 134.384 18.5899L133.472 23.8379H130.96ZM114.975 42.7819V34.9259C114.975 34.0299 114.788 33.3259 114.415 32.8139C114.052 32.2912 113.481 32.0299 112.703 32.0299C112.073 32.0299 111.615 32.1632 111.327 32.4299C111.049 32.6966 110.911 33.0432 110.911 33.4699C110.911 33.7686 110.98 34.0246 111.119 34.2379C111.268 34.4512 111.481 34.5952 111.759 34.6699C111.855 34.7019 111.951 34.7339 112.047 34.7659C112.143 34.7872 112.223 34.7979 112.287 34.7979L112.095 36.5419C111.956 36.5632 111.785 36.5686 111.583 36.5579C111.391 36.5366 111.151 36.4992 110.863 36.4459C110.159 36.3072 109.599 35.9712 109.183 35.4379C108.777 34.8939 108.575 34.2112 108.575 33.3899C108.575 32.7392 108.729 32.1632 109.039 31.6619C109.348 31.1499 109.807 30.7499 110.415 30.4619C111.033 30.1739 111.796 30.0299 112.703 30.0299C114.196 30.0299 115.353 30.4672 116.175 31.3419C116.996 32.2059 117.407 33.3952 117.407 34.9099V42.6539L114.975 42.7819ZM124.476 39.9819C122.994 39.9819 121.852 39.5286 121.052 38.6219C120.263 37.7046 119.868 36.3606 119.868 34.5899V30.1899H122.284V34.5899C122.284 35.7206 122.471 36.5792 122.844 37.1659C123.228 37.7526 123.756 38.0459 124.428 38.0459C125.122 38.0459 125.666 37.7526 126.06 37.1659C126.455 36.5792 126.652 35.7206 126.652 34.5899C126.652 33.7899 126.551 33.1659 126.348 32.7179C126.156 32.2699 125.815 32.0406 125.324 32.0299C125.09 32.0192 124.871 32.0352 124.668 32.0779C124.476 32.1206 124.263 32.1686 124.028 32.2219V30.2859C124.338 30.2326 124.626 30.1846 124.892 30.1419C125.159 30.0992 125.447 30.0779 125.756 30.0779C126.898 30.0992 127.735 30.4992 128.268 31.2779C128.802 32.0459 129.068 33.1499 129.068 34.5899C129.068 36.3606 128.668 37.7046 127.868 38.6219C127.079 39.5286 125.948 39.9819 124.476 39.9819ZM138.015 39.8379V33.6299C138.015 33.1499 137.892 32.7926 137.647 32.5579C137.412 32.3126 137.076 32.1899 136.639 32.1899H131.663L131.935 30.1899H136.767C137.983 30.1899 138.9 30.4779 139.519 31.0539C140.137 31.6192 140.447 32.4619 140.447 33.5819V39.8379H138.015ZM131.871 39.8379V34.6379L134.303 34.5099V39.8379H131.871Z" fill="#E4A28F"/>
<path fill-rule="evenodd" clip-rule="evenodd" d="M151.487 23.9905C151.241 23.9012 151.092 23.6497 151.13 23.3899L154.354 1.71001C154.377 1.55946 154.46 1.42511 154.585 1.33873C154.709 1.25218 154.863 1.22104 155.011 1.25406L176.908 6.03352C177.161 6.0889 177.342 6.31497 177.34 6.57568L177.174 28.5015C177.172 28.7635 176.96 28.9753 176.698 28.9768C176.438 28.9783 176.226 28.7674 176.226 28.507L176.239 7.60696L152.878 23.3244L173.013 30.8599C173.259 30.9518 173.392 31.2174 173.319 31.4692C173.237 31.7483 172.937 31.9001 172.664 31.7996L151.487 23.9905ZM163.475 14.8682L152.397 22.3212L155.237 3.2237L163.475 14.8682ZM175.415 6.83452L164.385 14.2557L156.162 2.63232L175.415 6.83452Z" fill="#E4A28F" stroke="#E4A28F"/>
<path fill-rule="evenodd" clip-rule="evenodd" d="M179.038 36.6546C177.326 36.6212 175.281 36.9349 173.159 38.043C170.54 39.4899 169.569 42.8149 170.993 45.4567C171.686 46.7409 172.834 47.6749 174.225 48.0851C175.613 48.4945 177.078 48.3336 178.381 47.6121C179.623 46.807 180.526 45.8372 181.081 44.716C181.37 44.1315 181.565 43.5056 181.664 42.8406C181.918 41.1374 181.507 39.4207 180.908 37.9578C182.282 38.209 183.149 38.6154 183.169 38.6251C183.441 38.7557 183.767 38.6446 183.9 38.3763L183.903 38.3715C184.034 38.0995 183.92 37.772 183.646 37.6395C183.543 37.5898 182.27 36.9873 180.348 36.7488C179.501 35.3268 178.407 33.9882 178.407 33.9882L177.695 34.6558L177.696 34.6566C177.723 34.6895 178.362 35.4719 179.039 36.6549L179.038 36.6546ZM177.81 46.6724C179.392 45.645 180.333 44.2945 180.575 42.6776C180.828 40.9882 180.301 39.2313 179.63 37.7944C177.956 37.6717 175.851 37.8776 173.685 39.0085C172.886 39.4495 172.279 40.1124 171.899 40.8814C171.285 42.1209 171.259 43.6351 171.963 44.9411C172.514 45.9646 173.427 46.7077 174.533 47.0338C175.635 47.3591 176.799 47.2308 177.81 46.6724Z" fill="#E4A28F"/>
<path d="M170.391 19.3147C170.532 19.3337 170.628 19.2927 170.727 19.2165C170.827 19.1402 170.876 19.0393 170.909 18.9183C170.941 18.6715 170.757 18.4316 170.51 18.3985L165.573 17.7341L164.935 22.667C164.903 22.9138 165.087 23.1536 165.334 23.1867C165.581 23.22 165.82 23.0371 165.852 22.7904L166.285 19.443L177.662 34.5838C177.815 34.7838 178.113 34.8417 178.332 34.674C178.551 34.5063 178.587 34.2244 178.418 34.0044L167.041 18.8638L170.391 19.3147Z" fill="#E4A28F"/>
<path fill-rule="evenodd" clip-rule="evenodd" d="M179.038 36.6546C177.326 36.6212 175.281 36.9349 173.159 38.043C170.54 39.4899 169.569 42.8149 170.993 45.4567C171.686 46.7409 172.834 47.6749 174.225 48.0851C175.613 48.4945 177.078 48.3336 178.381 47.6121C179.623 46.807 180.526 45.8372 181.081 44.716C181.37 44.1315 181.565 43.5056 181.664 42.8406C181.918 41.1374 181.507 39.4207 180.908 37.9578C182.282 38.209 183.149 38.6154 183.169 38.6251C183.441 38.7557 183.767 38.6446 183.9 38.3763L183.903 38.3715C184.034 38.0995 183.92 37.772 183.646 37.6395C183.543 37.5898 182.27 36.9873 180.348 36.7488C179.501 35.3268 178.407 33.9882 178.407 33.9882L177.695 34.6558L177.696 34.6566C177.723 34.6895 178.362 35.4719 179.039 36.6549L179.038 36.6546ZM177.81 46.6724C179.392 45.645 180.333 44.2945 180.575 42.6776C180.828 40.9882 180.301 39.2313 179.63 37.7944C177.956 37.6717 175.851 37.8776 173.685 39.0085C172.886 39.4495 172.279 40.1124 171.899 40.8814C171.285 42.1209 171.259 43.6351 171.963 44.9411C172.514 45.9646 173.427 46.7077 174.533 47.0338C175.635 47.3591 176.799 47.2308 177.81 46.6724Z" stroke="#E4A28F"/>
<path d="M170.391 19.3147C170.532 19.3337 170.628 19.2927 170.727 19.2165C170.827 19.1402 170.876 19.0393 170.909 18.9183C170.941 18.6715 170.757 18.4316 170.51 18.3985L165.573 17.7341L164.935 22.667C164.903 22.9138 165.087 23.1536 165.334 23.1867C165.581 23.22 165.82 23.0371 165.852 22.7904L166.285 19.443L177.662 34.5838C177.815 34.7838 178.113 34.8417 178.332 34.674C178.551 34.5063 178.587 34.2244 178.418 34.0044L167.041 18.8638L170.391 19.3147Z" stroke="#E4A28F"/>
</svg>
