<svg width="75" height="95" viewBox="0 0 75 95" fill="none" xmlns="http://www.w3.org/2000/svg">
<path fill-rule="evenodd" clip-rule="evenodd" d="M1.61793 50.1642C1.07134 50.049 0.680991 49.5624 0.684595 49.002L1.00296 2.23388C1.00531 1.9091 1.14154 1.60025 1.37814 1.38055C1.61462 1.16049 1.9322 1.04836 2.2541 1.07389L49.9467 4.61347C50.4979 4.65467 50.9476 5.07816 51.0223 5.62942L57.2383 52.0013C57.3126 52.5554 56.9278 53.0663 56.3748 53.148C55.8249 53.2291 55.3141 52.8472 55.2364 52.2968L49.005 8.13794L4.35676 48.3403L49.1527 58.2302C49.699 58.3508 50.06 58.872 49.9808 59.4258C49.8931 60.0399 49.303 60.4507 48.6966 60.3199L1.61793 50.1642ZM24.2133 27.3013L3.0404 46.3649L3.32019 5.1676L24.2133 27.3013ZM47.0325 6.75283L25.9515 25.7347L5.09826 3.64106L47.0325 6.75283Z" fill="#053856"/>
<path fill-rule="evenodd" clip-rule="evenodd" d="M63.619 68.6677C59.992 69.11 55.7654 70.3851 51.6131 73.3619C46.5131 77.2031 45.4581 84.5184 49.2588 89.673C51.1064 92.1788 53.8109 93.8082 56.8733 94.2583C59.9291 94.7074 62.9744 93.9289 65.5117 92.0143C67.894 89.9416 69.511 87.6222 70.348 85.0874C70.7844 83.7658 71.0089 82.3851 71.0191 80.9503C71.0462 77.2759 69.6626 73.7724 67.959 70.8612C70.9363 70.9804 72.8916 71.5792 72.9356 71.5937C73.5501 71.7882 74.206 71.4557 74.4063 70.8491L74.4099 70.8383C74.6058 70.2242 74.2659 69.5666 73.6481 69.3686C73.4163 69.2944 70.5452 68.4029 66.4141 68.4745C64.1989 65.724 61.4868 63.2236 61.4868 63.2236L60.1829 64.8472L60.1845 64.8486C60.2512 64.9101 61.8368 66.3715 63.6199 68.6682L63.619 68.6677ZM64.0246 90.1999C67.0583 87.5557 68.6423 84.4205 68.6692 80.9323C68.6979 77.2872 67.0573 73.7334 65.2103 70.8986C61.6361 71.1409 57.2507 72.2063 53.0141 75.2441C51.4587 76.4149 50.3752 77.9973 49.8011 79.736C48.8758 82.5383 49.2737 85.7452 51.1519 88.2936C52.6234 90.2907 54.7744 91.5872 57.2082 91.9451C59.6356 92.302 62.0564 91.6825 64.0246 90.1999Z" fill="#E4A28F"/>
<path d="M40.1576 34.6238C40.4611 34.6217 40.6499 34.5066 40.8374 34.3157C41.0249 34.1248 41.0979 33.8969 41.1328 33.6312C41.1263 33.1003 40.6653 32.6487 40.1338 32.6527L29.5047 32.7275L29.6343 43.3402C29.6407 43.8711 30.1018 44.3227 30.6332 44.3187C31.165 44.315 31.6149 43.857 31.6082 43.3263L31.5202 36.1248L60.0905 64.7051C60.4748 65.0816 61.1206 65.1149 61.5332 64.695C61.9457 64.2751 61.9383 63.6685 61.5156 63.2545L32.9451 34.6744L40.1576 34.6238Z" fill="#E4A28F"/>
<path fill-rule="evenodd" clip-rule="evenodd" d="M1.61793 50.1642C1.07134 50.049 0.680991 49.5624 0.684595 49.002L1.00296 2.23388C1.00531 1.9091 1.14154 1.60025 1.37814 1.38055C1.61462 1.16049 1.9322 1.04836 2.2541 1.07389L49.9467 4.61347C50.4979 4.65467 50.9476 5.07816 51.0223 5.62942L57.2383 52.0013C57.3126 52.5554 56.9278 53.0663 56.3748 53.148C55.8249 53.2291 55.3141 52.8472 55.2364 52.2968L49.005 8.13794L4.35676 48.3403L49.1527 58.2302C49.699 58.3508 50.06 58.872 49.9808 59.4258C49.8931 60.0399 49.303 60.4507 48.6966 60.3199L1.61793 50.1642ZM24.2133 27.3013L3.0404 46.3649L3.32019 5.1676L24.2133 27.3013ZM47.0325 6.75283L25.9515 25.7347L5.09826 3.64106L47.0325 6.75283Z" stroke="#053856"/>
<path fill-rule="evenodd" clip-rule="evenodd" d="M63.619 68.6677C59.992 69.11 55.7654 70.3851 51.6131 73.3619C46.5131 77.2031 45.4581 84.5184 49.2588 89.673C51.1064 92.1788 53.8109 93.8082 56.8733 94.2583C59.9291 94.7074 62.9744 93.9289 65.5117 92.0143C67.894 89.9416 69.511 87.6222 70.348 85.0874C70.7844 83.7658 71.0089 82.3851 71.0191 80.9503C71.0462 77.2759 69.6626 73.7724 67.959 70.8612C70.9363 70.9804 72.8916 71.5792 72.9356 71.5937C73.5501 71.7882 74.206 71.4557 74.4063 70.8491L74.4099 70.8383C74.6058 70.2242 74.2659 69.5666 73.6481 69.3686C73.4163 69.2944 70.5452 68.4029 66.4141 68.4745C64.1989 65.724 61.4868 63.2236 61.4868 63.2236L60.1829 64.8472L60.1845 64.8486C60.2512 64.9101 61.8368 66.3715 63.6199 68.6682L63.619 68.6677ZM64.0246 90.1999C67.0583 87.5557 68.6423 84.4205 68.6692 80.9323C68.6979 77.2872 67.0573 73.7334 65.2103 70.8986C61.6361 71.1409 57.2507 72.2063 53.0141 75.2441C51.4587 76.4149 50.3752 77.9973 49.8011 79.736C48.8758 82.5383 49.2737 85.7452 51.1519 88.2936C52.6234 90.2907 54.7744 91.5872 57.2082 91.9451C59.6356 92.302 62.0564 91.6825 64.0246 90.1999Z" stroke="#E4A28F"/>
<path d="M40.1576 34.6238C40.4611 34.6217 40.6499 34.5066 40.8374 34.3157C41.0249 34.1248 41.0979 33.8969 41.1328 33.6312C41.1263 33.1003 40.6653 32.6487 40.1338 32.6527L29.5047 32.7275L29.6343 43.3402C29.6407 43.8711 30.1018 44.3227 30.6332 44.3187C31.165 44.315 31.6149 43.857 31.6082 43.3263L31.5202 36.1248L60.0905 64.7051C60.4748 65.0816 61.1206 65.1149 61.5332 64.695C61.9457 64.2751 61.9383 63.6685 61.5156 63.2545L32.9451 34.6744L40.1576 34.6238Z" stroke="#E4A28F"/>
</svg>
