<svg xmlns="http://www.w3.org/2000/svg" version="1.1" viewBox="0 0 100 100">
<g fill="#053856">
 <path d="m93.508 25.684-29.16 24.316 29.16 24.316zm-1.457 52.418c-0.8125 0.75391-1.8984 1.2188-3.082 1.2188h-77.938c-1.1797 0-2.2617-0.46094-3.0703-1.207l30.715-25.613 4.6914 3.9141c1.8477 1.5391 4.2656 2.3047 6.6719 2.293 2.4023-0.011719 4.8242-0.79297 6.6836-2.3477l4.6289-3.8594zm-85.559-3.7656 29.188-24.336-29.188-24.336zm1.4688-52.449c0.80859-0.75 1.8906-1.207 3.0703-1.207h77.938c1.1875 0 2.2734 0.46484 3.082 1.2188l-31.902 26.605-0.042969 0.035156-5.8359 4.8672c-1.1562 0.96484-2.6953 1.4492-4.2422 1.457-1.543 0.007813-3.0703-0.46094-4.2031-1.4023l-5.8984-4.918-0.050781-0.042969z" fill-rule="evenodd"/>
</g>
</svg>