<svg width="31" height="21" viewBox="0 0 31 21" fill="none" xmlns="http://www.w3.org/2000/svg">
<path d="M0 2.17969C0 1.25202 0.752022 0.5 1.67969 0.5H29.3203C30.248 0.5 31 1.25202 31 2.17969C31 3.10735 30.248 3.85938 29.3203 3.85938H1.67969C0.752022 3.85938 0 3.10735 0 2.17969Z" fill="#97D6BE"/>
<path fill-rule="evenodd" clip-rule="evenodd" d="M6.80729 12.1406C5.9012 12.1406 5.16667 11.4061 5.16667 10.5C5.16667 9.59391 5.9012 8.85938 6.80729 8.85938H24.1927C25.0988 8.85938 25.8333 9.59391 25.8333 10.5C25.8333 11.4061 25.0988 12.1406 24.1927 12.1406H6.80729Z" fill="#E4A28F"/>
<path d="M13.7083 20.5C12.7807 20.5 12.0286 19.748 12.0286 18.8203C12.0286 17.8926 12.7807 17.1406 13.7083 17.1406H17.2917C18.2193 17.1406 18.9714 17.8926 18.9714 18.8203C18.9714 19.748 18.2193 20.5 17.2917 20.5H13.7083Z" fill="#FFB812"/>
</svg>
