<svg xmlns="http://www.w3.org/2000/svg" xmlns:xlink="http://www.w3.org/1999/xlink" version="1.1" x="0px" y="0px" viewBox="5 5 20 20" xml:space="preserve">
<g fill='#053856'>
<path d="M15,6c-5,0-9,4-9,9s4,9,9,9s9-4,9-9S20,6,15,6z M15,20c0,0-0.4,0.3-0.7,0.3c0,0,0,0,0,0l0,0c-0.1,0-0.1,0-0.2,0l-0.1,0  c-0.5-0.1-0.8-0.6-0.6-1.1l0.7-2.8l0.3-1.3c0.3-1.2-0.9,0.2-1.2-0.3c-0.2-0.4,0.9-1.1,1.8-1.7c0,0,0.4-0.3,0.7-0.3c0,0,0,0,0,0l0,0  c0.1,0,0.1,0,0.2,0l0.1,0c0.5,0.1,0.8,0.6,0.7,1.1l-0.7,2.8l-0.3,1.3c-0.3,1.2,0.9-0.3,1.2,0.3C16.9,18.7,15.8,19.5,15,20z   M16.7,11.3c-0.2,0.7-0.9,1.1-1.6,0.9c-0.7-0.2-1.1-0.9-1-1.6c0.2-0.7,0.9-1.1,1.6-0.9C16.5,9.9,16.9,10.6,16.7,11.3z"/>
</g>
</svg>