<svg width="18" height="9" viewBox="0 0 18 9" fill="none" xmlns="http://www.w3.org/2000/svg">
<path d="M13.1797 0.0703125C14.3255 0.0703125 15.3021 0.486979 16.1094 1.32031C16.9167 2.1276 17.3203 3.10417 17.3203 4.25C17.3203 5.39583 16.9167 6.38542 16.1094 7.21875C15.3021 8.02604 14.3255 8.42969 13.1797 8.42969H9.82031V6.82812H13.1797C13.8828 6.82812 14.4818 6.58073 14.9766 6.08594C15.4974 5.5651 15.7578 4.95312 15.7578 4.25C15.7578 3.54688 15.4974 2.94792 14.9766 2.45312C14.4818 1.93229 13.8828 1.67188 13.1797 1.67188H9.82031V0.0703125H13.1797ZM5.67969 5.07031V3.42969H12.3203V5.07031H5.67969ZM2.98438 2.45312C2.48958 2.94792 2.24219 3.54688 2.24219 4.25C2.24219 4.95312 2.48958 5.5651 2.98438 6.08594C3.50521 6.58073 4.11719 6.82812 4.82031 6.82812H8.17969V8.42969H4.82031C3.67448 8.42969 2.69792 8.02604 1.89062 7.21875C1.08333 6.38542 0.679688 5.39583 0.679688 4.25C0.679688 3.10417 1.08333 2.1276 1.89062 1.32031C2.69792 0.486979 3.67448 0.0703125 4.82031 0.0703125H8.17969V1.67188H4.82031C4.11719 1.67188 3.50521 1.93229 2.98438 2.45312Z" fill="black"/>
</svg>
