<svg width="14" height="13" viewBox="0 0 14 13" fill="none" xmlns="http://www.w3.org/2000/svg">
<g clip-path="url(#clip0_5127_2800)">
<path d="M10.5105 7.16077V6.15295H9.52611V7.16077H10.5105ZM10.5105 9.15295V8.16858H9.52611V9.15295H10.5105ZM7.51048 3.15295V2.16858H6.52611V3.15295H7.51048ZM7.51048 5.16858V4.16077H6.52611V5.16858H7.51048ZM7.51048 7.16077V6.15295H6.52611V7.16077H7.51048ZM7.51048 9.15295V8.16858H6.52611V9.15295H7.51048ZM4.51048 5.16858V4.16077H3.52611V5.16858H4.51048ZM4.51048 7.16077V6.15295H3.52611V7.16077H4.51048ZM4.51048 9.15295V8.16858H3.52611V9.15295H4.51048ZM8.5183 5.16858H11.5183V10.1608H2.5183V3.15295H5.5183V2.16858L7.0183 0.668579L8.5183 2.16858V5.16858Z" fill="#053856"/>
</g>
<defs>
<clipPath id="clip0_5127_2800">
<rect width="12.9596" height="12.9596" fill="white" transform="translate(0.538574 0.0128174)"/>
</clipPath>
</defs>
</svg>
