<svg xmlns="http://www.w3.org/2000/svg" xmlns:xlink="http://www.w3.org/1999/xlink" version="1.1" baseProfile="tiny" x="0px" y="0px" viewBox="0 0 100 100" xml:space="preserve">
<g fill="#053856">
<path d="M50,51.684c12.048,0,21.848-12.787,21.848-24.834S62.048,5,50,5s-21.849,9.803-21.849,21.85    C28.153,38.896,37.953,51.684,50,51.684z"/><path d="M66.402,51.908c-4.238,3.229-9.525,5.15-15.252,5.15H48.85c-5.728,0-11.016-1.922-15.253-5.15    C19.759,54.145,9.192,66.139,9.192,80.607C9.192,88.555,27.462,95,50,95c22.537,0,40.808-6.445,40.808-14.393    C90.808,66.139,80.24,54.145,66.402,51.908z"/>
</g>
</svg>