<svg xmlns="http://www.w3.org/2000/svg" xmlns:xlink="http://www.w3.org/1999/xlink" version="1.1" viewBox="4 4 56 56" >
<g fill='#053856'>
<path d="M47.7,46.7l-0.4-0.4c-1.4-1.6-3.1-3-4.9-4L42,42.1l0.1-0.4c0.9-3,1.4-6.3,1.4-9.7v-0.5h10V32c0,5.3-1.9,10.4-5.5,14.3  L47.7,46.7z M43.2,41.6c1.6,1,3.1,2.2,4.5,3.6c3-3.6,4.7-8.1,4.9-12.8h-8C44.5,35.7,44,38.8,43.2,41.6z"/><path d="M42.3,22.9l-0.2-0.6c-2-6.6-5.9-10.8-10.1-10.8v-1c6.1,0,12,2.6,16,7.2l0.3,0.3L48,18.3c-1.5,1.7-3.3,3.1-5.2,4.2L42.3,22.9  z M36.7,12c2.6,1.8,4.8,5,6.2,9.3c1.5-0.9,2.9-2.1,4.1-3.4C44.2,15,40.6,13,36.7,12z"/><path d="M44.5,32.5h-13v-8H32c3.6,0,7.2-1,10.3-2.8l0.5-0.3l0.2,0.6c0.9,3.1,1.4,6.5,1.4,10V32.5z M32.5,31.5h11c0-3-0.5-6-1.2-8.6  c-3,1.6-6.3,2.5-9.8,2.6V31.5z"/><path d="M42.9,42.6l-0.5-0.3c-3.1-1.8-6.7-2.8-10.3-2.8h-0.5v-8h13V32c0,3.5-0.5,7-1.4,10L42.9,42.6z M32.5,38.5  c3.4,0.1,6.8,1,9.8,2.6c0.8-2.7,1.2-5.6,1.2-8.6h-11V38.5z"/><path d="M32.5,53.5H32c-4.7,0-8.9-4.4-11.1-11.5l-0.1-0.4l0.3-0.2c3.3-1.9,7-2.9,10.8-2.9h0.5V53.5z M22,42.1  c2,6.2,5.5,10.1,9.5,10.4v-13C28.2,39.6,24.9,40.5,22,42.1z"/><path d="M32.5,25.5H32c-3.8,0-7.6-1-10.8-2.9l-0.3-0.2l0.1-0.4c2.2-7.1,6.4-11.5,11.1-11.5h0.5V25.5z M22,21.9  c2.9,1.6,6.2,2.5,9.5,2.6v-13C27.6,11.8,24,15.7,22,21.9z"/><path d="M20.5,32.5h-10V32c0-5.3,1.9-10.4,5.5-14.3l0.4-0.4l0.4,0.4c1.4,1.6,3.1,3,4.9,4l0.3,0.2l-0.1,0.4c-0.9,3-1.4,6.3-1.4,9.7  V32.5z M11.5,31.5h8c0-3.2,0.5-6.3,1.3-9.1c-1.6-1-3.1-2.2-4.5-3.6C13.3,22.3,11.6,26.8,11.5,31.5z"/><path d="M16.3,46.7L16,46.3c-3.5-3.9-5.5-9-5.5-14.3v-0.5h10V32c0,3.4,0.5,6.8,1.4,9.7l0.1,0.4l-0.3,0.2c-1.8,1.1-3.5,2.4-4.9,4  L16.3,46.7z M11.5,32.5c0.1,4.7,1.8,9.2,4.9,12.8c1.3-1.4,2.8-2.6,4.5-3.6c-0.8-2.8-1.3-6-1.3-9.1H11.5z"/><path d="M32,26c-3.9,0-7.8-1-11.1-3c-2-1.1-3.7-2.6-5.3-4.3c-0.4-0.4-0.3-1,0.1-1.4c0.4-0.4,1-0.3,1.4,0.1c1.4,1.6,3,2.9,4.8,3.9  C25,23.1,28.4,24,32,24s7-0.9,10.1-2.7c1.8-1,3.4-2.4,4.8-3.9c0.4-0.4,1-0.4,1.4-0.1c0.4,0.4,0.4,1,0.1,1.4  c-1.6,1.7-3.3,3.2-5.3,4.3C39.8,25,35.9,26,32,26z"/><path d="M47.7,47c-0.3,0-0.5-0.1-0.7-0.3c-1.4-1.6-3-2.9-4.8-3.9C39,40.9,35.6,40,32,40s-7,0.9-10.1,2.7c-1.8,1-3.4,2.4-4.8,3.9  c-0.4,0.4-1,0.4-1.4,0.1c-0.4-0.4-0.4-1-0.1-1.4c1.6-1.7,3.3-3.2,5.3-4.3c3.3-2,7.2-3,11.1-3s7.8,1,11.1,3c2,1.1,3.7,2.6,5.3,4.3  c0.4,0.4,0.3,1-0.1,1.4C48.1,46.9,47.9,47,47.7,47z"/><path d="M32,54c-6.3,0-12.2-2.7-16.4-7.3C12,42.6,10,37.4,10,32s2-10.6,5.6-14.7C19.8,12.7,25.7,10,32,10s12.2,2.7,16.4,7.3  C52,21.4,54,26.6,54,32s-2,10.6-5.6,14.7C44.2,51.3,38.3,54,32,54z M32,12c-5.7,0-11.1,2.4-14.9,6.7C13.8,22.3,12,27.1,12,32  c0,4.9,1.8,9.7,5.1,13.3C20.9,49.6,26.3,52,32,52c5.7,0,11.1-2.4,14.9-6.7C50.2,41.7,52,36.9,52,32c0-4.9-1.8-9.7-5.1-13.3  C43.1,14.4,37.7,12,32,12z"/><path d="M32,54c-4.9,0-9.3-4.5-11.5-11.8c-1-3.1-1.5-6.6-1.5-10.2c0-3.5,0.5-7.1,1.5-10.2C22.7,14.5,27.1,10,32,10  s9.3,4.5,11.5,11.8c1,3.1,1.5,6.6,1.5,10.2c0,3.5-0.5,7.1-1.5,10.2C41.3,49.5,36.9,54,32,54z M32,12c-4,0-7.7,4-9.6,10.4  C21.5,25.3,21,28.7,21,32s0.5,6.7,1.4,9.6C24.3,48,28,52,32,52s7.7-4,9.6-10.4c0.9-2.9,1.4-6.2,1.4-9.6s-0.5-6.7-1.4-9.6  C39.7,16,36,12,32,12z"/><path d="M32,54c-0.6,0-1-0.4-1-1V11c0-0.6,0.4-1,1-1s1,0.4,1,1v42C33,53.6,32.6,54,32,54z"/><path d="M53,33H11c-0.6,0-1-0.4-1-1s0.4-1,1-1h42c0.6,0,1,0.4,1,1S53.6,33,53,33z"/></g>
</svg>