<svg width="17" height="18" viewBox="0 0 17 18" fill="none" xmlns="http://www.w3.org/2000/svg">
<g clip-path="url(#clip0_2967_24158)">
<path d="M14.101 2.72143C13.3675 1.93483 12.4939 1.31122 11.5313 0.88692C10.5687 0.462622 9.53617 0.246128 8.494 0.250052C4.127 0.250052 0.568 4.03043 0.564 8.67143C0.564 10.1579 0.93 11.6039 1.621 12.8842L0.5 17.2501L4.704 16.0792C5.867 16.7516 7.16993 17.1041 8.494 17.1045H8.498C12.866 17.1045 16.424 13.3241 16.428 8.67886C16.429 7.57179 16.2238 6.47544 15.8243 5.45299C15.4247 4.43053 14.8387 3.50219 14.1 2.72143H14.101ZM8.494 15.6786C7.313 15.679 6.1537 15.3414 5.138 14.7011L4.898 14.5481L2.404 15.243L3.07 12.6579L2.914 12.3912C2.25381 11.276 1.90465 9.98471 1.907 8.66718C1.907 4.81455 4.864 1.67168 8.498 1.67168C9.36374 1.67003 10.2212 1.85047 11.021 2.2026C11.8208 2.55473 12.5471 3.07158 13.158 3.72337C13.771 4.3726 14.257 5.14438 14.5879 5.99417C14.9188 6.84397 15.0881 7.75496 15.086 8.67461C15.082 12.5411 12.125 15.6786 8.494 15.6786ZM12.109 10.4362C11.912 10.3311 10.939 9.82211 10.756 9.74987C10.574 9.6808 10.441 9.64468 10.311 9.85505C10.178 10.0644 9.798 10.5414 9.684 10.6785C9.57 10.8198 9.452 10.8357 9.254 10.7316C9.057 10.6254 8.418 10.4044 7.662 9.68505C7.072 9.12724 6.677 8.43661 6.559 8.2273C6.445 8.01693 6.548 7.9043 6.647 7.79911C6.734 7.70561 6.844 7.55261 6.943 7.43149C7.043 7.31036 7.076 7.22111 7.141 7.08086C7.206 6.93849 7.175 6.81736 7.126 6.71218C7.076 6.60699 6.681 5.56893 6.514 5.1503C6.354 4.73699 6.191 4.79436 6.069 4.78905C5.955 4.78161 5.822 4.78161 5.689 4.78161C5.58856 4.78427 5.48973 4.80895 5.39869 4.85411C5.30766 4.89927 5.2264 4.96394 5.16 5.04405C4.978 5.25443 4.469 5.76336 4.469 6.80143C4.469 7.83949 5.179 8.83718 5.279 8.97849C5.377 9.1198 6.673 11.2437 8.662 12.1575C9.132 12.3753 9.502 12.5039 9.791 12.6016C10.266 12.7631 10.695 12.7387 11.037 12.6866C11.417 12.625 12.208 12.1766 12.375 11.6847C12.539 11.1917 12.539 10.7709 12.489 10.6827C12.44 10.5935 12.307 10.5414 12.109 10.4362Z" fill="#04BB38"/>
</g>
<defs>
<clipPath id="clip0_2967_24158">
<rect width="16" height="17" fill="white" transform="translate(0.5 0.25)"/>
</clipPath>
</defs>
</svg>
