<svg width="100" height="100" viewBox="0 0 100 100" fill="none" xmlns="http://www.w3.org/2000/svg">
<path d="M61.7389 27.3913C61.7389 20.9174 56.4737 15.6524 50 15.6524C43.5263 15.6524 38.2611 20.9176 38.2611 27.3913C38.2611 33.8652 43.5263 39.1302 50 39.1302C56.4737 39.1302 61.7389 33.8649 61.7389 27.3913ZM40.8693 27.3913C40.8693 22.3565 44.965 18.2608 49.9998 18.2608C55.0347 18.2608 59.1303 22.3564 59.1303 27.3913C59.1303 32.4261 55.0347 36.5218 49.9998 36.5218C44.965 36.5218 40.8693 32.4261 40.8693 27.3913ZM91.7392 34.7826H88.2609C85.6218 34.7826 83.4783 36.9261 83.4783 39.5652V48.6957H70.452C74.4129 41.5565 77.3911 34.0091 77.3911 27.3911C77.3911 12.2871 65.104 0 50 0C34.896 0 22.6089 12.2871 22.6089 27.3911C22.6089 34.0085 25.5828 41.5564 29.548 48.6957H16.5217V39.5652C16.5217 36.9261 14.3782 34.7826 11.7391 34.7826H8.26083C3.70431 34.7826 0 38.487 0 43.0435V91.7392C0 96.2957 3.7044 100 8.26083 100H91.7392C96.2957 100 100 96.2956 100 91.7392V43.0435C100 38.4869 96.2956 34.7826 91.7392 34.7826ZM50 2.60916C63.6645 2.60916 74.7829 13.7266 74.7829 27.392C74.7829 42.6092 57.0651 64.2746 51.6353 70.5522C50.8135 71.5044 49.1874 71.5044 48.3657 70.5522C42.9352 64.2739 25.2181 42.6092 25.2181 27.392C25.2181 13.7275 36.3346 2.60916 50 2.60916ZM2.60842 43.0442C2.60842 39.9269 5.14319 37.392 8.26064 37.392H11.7389C12.939 37.392 13.9129 38.3659 13.9129 39.5659V81.3051C13.9129 82.5052 12.939 83.4791 11.7389 83.4791H8.26064C6.07806 83.4791 4.08673 84.3313 2.60842 85.7226V43.0442ZM91.7392 97.3923H8.26083C5.14347 97.3923 2.6086 94.8576 2.6086 91.7401C2.6086 88.6226 5.14338 86.0879 8.26083 86.0879H11.7391C14.3782 86.0879 16.5217 83.9444 16.5217 81.3053V51.305H31.0478C36.2565 60.0528 42.6253 67.9098 46.3865 72.2618C47.2952 73.3097 48.6082 73.9097 49.9952 73.9097C51.3821 73.9097 52.6951 73.3097 53.6039 72.2618C57.3647 67.914 63.7391 60.0527 68.9425 51.305H83.4687V81.3053C83.4687 83.9444 85.6121 86.0879 88.2513 86.0879H91.7295C94.8469 86.0879 97.3817 88.6226 97.3817 91.7401C97.3817 94.8576 94.847 97.3923 91.7295 97.3923H91.7392ZM97.3914 85.723C95.9131 84.3317 93.9218 83.4795 91.7392 83.4795H88.2609C87.0609 83.4795 86.0869 82.5055 86.0869 81.3055V39.5663C86.0869 38.3663 87.0609 37.3924 88.2609 37.3924H91.7392C94.8565 37.3924 97.3914 39.9271 97.3914 43.0446V85.723Z" fill="#97D6BE"/>
<path fill-rule="evenodd" clip-rule="evenodd" d="M50 2.60916C63.6645 2.60916 74.7829 13.7266 74.7829 27.392C74.7829 42.6092 57.0651 64.2746 51.6353 70.5522C50.8135 71.5044 49.1874 71.5044 48.3657 70.5522C42.9352 64.2739 25.2181 42.6092 25.2181 27.392C25.2181 13.7275 36.3346 2.60916 50 2.60916ZM50 15.6524C56.4737 15.6524 61.7389 20.9174 61.7389 27.3913C61.7389 33.8649 56.4737 39.1302 50 39.1302C43.5263 39.1302 38.2611 33.8652 38.2611 27.3913C38.2611 20.9176 43.5263 15.6524 50 15.6524Z" fill="#97D6BE"/>
<path d="M97.3914 85.723C95.9131 84.3317 93.9218 83.4795 91.7392 83.4795H88.2609C87.0609 83.4795 86.0869 82.5055 86.0869 81.3055V39.5663C86.0869 38.3663 87.0609 37.3924 88.2609 37.3924H91.7392C94.8565 37.3924 97.3914 39.9271 97.3914 43.0446V85.723Z" fill="#E4A28F"/>
<path d="M2.60842 43.0442C2.60842 39.9269 5.14319 37.392 8.26064 37.392H11.7389C12.939 37.392 13.9129 38.3659 13.9129 39.5659V81.3051C13.9129 82.5052 12.939 83.4791 11.7389 83.4791H8.26064C6.07806 83.4791 4.08673 84.3313 2.60842 85.7226V43.0442Z" fill="#E4A28F"/>
</svg>
