<svg width="73" height="67" viewBox="0 0 73 67" fill="none" xmlns="http://www.w3.org/2000/svg">
<g id="V-A">
<g id="VA">
<g id="Group 49576">
<path id="Vector" d="M11.0666 48.7417C9.60537 48.7417 8.37793 47.5178 8.37793 45.9905V25.9895C8.37793 24.4622 9.60537 23.2383 11.0666 23.2383C12.5278 23.2383 13.7553 24.4622 13.7553 25.9895V45.9905C13.7553 47.5178 12.5278 48.7417 11.0666 48.7417Z" stroke="#053856" stroke-width="2"/>
<path id="Vector_2" d="M35.1697 52.6133L56.1733 52.617V60.9979H5.9263C4.52528 60.9979 3.26953 59.7539 3.26953 58.1032V55.508C3.26953 53.8573 4.52528 52.6133 5.9263 52.6133H35.1695H35.1697Z" stroke="#053856" stroke-width="2"/>
<path id="Vector_3" d="M58 12.9671L58.0008 12.9672V16.2407C58.0008 17.7681 56.7733 18.9919 55.3121 18.9919H3.68867C2.22744 18.9919 1 17.7681 1 16.2407V12.9641C1 11.8153 1.71357 10.7827 2.72707 10.3972L2.72708 10.3972L2.73279 10.395L24.6627 1.89791C24.663 1.89779 24.6633 1.89768 24.6636 1.89757C27.7638 0.700828 31.2398 0.700811 34.34 1.89752C34.3404 1.89765 34.3407 1.89778 34.3411 1.89791L56.2671 10.3979L56.273 10.4002C57.2865 10.7857 58 11.8183 58 12.9671Z" stroke="#053856" stroke-width="2"/>
<path id="Vector_4" d="M23.3566 48.7417C21.8954 48.7417 20.668 47.5178 20.668 45.9905V25.9895C20.668 24.4622 21.8954 23.2383 23.3566 23.2383C24.8179 23.2383 26.0453 24.4622 26.0453 25.9895V45.9905C26.0453 47.5178 24.8179 48.7417 23.3566 48.7417Z" stroke="#053856" stroke-width="2"/>
<path id="Vector_5" d="M35.4582 48.7417C33.997 48.7417 32.7695 47.5178 32.7695 45.9905V25.9895C32.7695 24.4622 33.997 23.2383 35.4582 23.2383C36.9194 23.2383 38.1469 24.4622 38.1469 25.9895V45.9905C38.1469 47.5178 36.9194 48.7417 35.4582 48.7417Z" stroke="#053856" stroke-width="2"/>
<path id="Vector_6" d="M47.7473 48.7417C46.286 48.7417 45.0586 47.5178 45.0586 45.9905V25.9895C45.0586 24.4622 46.286 23.2383 47.7473 23.2383C49.2085 23.2383 50.4359 24.4622 50.4359 25.9895V45.9905C50.4359 47.5178 49.2085 48.7417 47.7473 48.7417Z" stroke="#053856" stroke-width="2"/>
</g>
</g>
<g id="DATA">
<path id="Vector_7" d="M61.5382 39.2317C61.5382 36.3429 63.881 34 66.7698 34C69.659 34 72 36.3433 72 39.2317V60.1542C72 63.0428 69.6586 65.3843 66.7698 65.3843C63.8816 65.3843 61.5382 63.0435 61.5382 60.1542V39.2317Z" fill="#97D6BE" stroke="white" stroke-width="2"/>
<path id="Vector_8" d="M50.7702 48.4622C50.7702 45.5739 53.111 43.2305 56.0003 43.2305C58.8894 43.2305 61.2305 45.5738 61.2305 48.4622V60.1539C61.2305 63.0425 58.889 65.384 56.0003 65.384C53.1117 65.384 50.7702 63.0427 50.7702 60.1539V48.4622Z" fill="#97D6BE" stroke="white" stroke-width="2"/>
<path id="Vector_9" d="M40.0001 54.6169C40.0001 51.7282 42.3414 49.3867 45.2302 49.3867C48.1185 49.3867 50.4619 51.7275 50.4619 54.6169V60.1558C50.4619 63.045 48.1184 65.386 45.2302 65.386C42.3416 65.386 40.0001 63.0447 40.0001 60.1558V54.6169Z" fill="#97D6BE" stroke="white" stroke-width="2"/>
</g>
</g>
</svg>
