<svg width="30" height="36" viewBox="0 0 30 36" fill="none" xmlns="http://www.w3.org/2000/svg">
<path fill-rule="evenodd" clip-rule="evenodd" d="M28.6458 18.8883C28.8532 18.8464 29.0014 18.669 29 18.4649L28.8792 1.42397C28.8783 1.30563 28.8266 1.19309 28.7368 1.11304C28.647 1.03286 28.5265 0.992001 28.4044 1.0013L10.3049 2.29102C10.0957 2.30603 9.92504 2.46034 9.89666 2.6612L7.53769 19.5577C7.50951 19.7596 7.65552 19.9458 7.8654 19.9755C8.07407 20.0051 8.26794 19.8659 8.29741 19.6654L10.6622 3.57523L27.6064 18.2238L10.6062 21.8273C10.3989 21.8713 10.2619 22.0612 10.2919 22.263C10.3252 22.4867 10.5492 22.6364 10.7793 22.5888L28.6458 18.8883ZM20.0708 10.5578L28.106 17.504L27.9998 2.49293L20.0708 10.5578ZM11.4108 3.07054L19.4111 9.98698L27.325 1.9367L11.4108 3.07054Z" fill="#053856"/>
<path fill-rule="evenodd" clip-rule="evenodd" d="M5.1162 25.6304C6.49267 25.7916 8.09665 26.2562 9.67247 27.3409C11.6079 28.7405 12.0083 31.406 10.5659 33.2842C9.86476 34.1972 8.83841 34.7909 7.67622 34.9549C6.5165 35.1185 5.36083 34.8349 4.39791 34.1372C3.4938 33.382 2.88015 32.5369 2.56252 31.6133C2.39692 31.1317 2.31171 30.6286 2.30783 30.1059C2.29755 28.767 2.82263 27.4905 3.46916 26.4297C2.33926 26.4731 1.59721 26.6913 1.58051 26.6966C1.34731 26.7675 1.0984 26.6463 1.02238 26.4253L1.02103 26.4213C0.946682 26.1976 1.07566 25.958 1.31011 25.8858C1.3981 25.8588 2.48769 25.534 4.05544 25.5601C4.89614 24.5578 5.92536 23.6468 5.92536 23.6468L6.4202 24.2384L6.41961 24.2389C6.39428 24.2613 5.79254 24.7938 5.11585 25.6306L5.1162 25.6304ZM4.96227 33.4761C3.81098 32.5127 3.20982 31.3703 3.19961 30.0993C3.18875 28.7711 3.81134 27.4762 4.5123 26.4433C5.86872 26.5316 7.53299 26.9198 9.14079 28.0267C9.73107 28.4533 10.1423 29.0299 10.3601 29.6634C10.7113 30.6845 10.5603 31.853 9.84749 32.7815C9.28905 33.5092 8.47275 33.9816 7.5491 34.112C6.62792 34.2421 5.70922 34.0163 4.96227 33.4761Z" fill="#053856"/>
<path d="M14.0198 13.2259C13.9047 13.2251 13.8331 13.1832 13.7619 13.1136C13.6907 13.0441 13.663 12.961 13.6498 12.8642C13.6522 12.6708 13.8272 12.5062 14.0289 12.5077L18.0627 12.5349L18.0135 16.4019C18.011 16.5953 17.8361 16.7599 17.6344 16.7584C17.4326 16.7571 17.2618 16.5902 17.2644 16.3968L17.2978 13.7728L6.45529 24.1866C6.30942 24.3238 6.06433 24.3359 5.90778 24.1829C5.75123 24.0299 5.75403 23.8089 5.91445 23.658L16.757 13.2443L14.0198 13.2259Z" fill="#053856"/>
<path fill-rule="evenodd" clip-rule="evenodd" d="M28.6458 18.8883C28.8532 18.8464 29.0014 18.669 29 18.4649L28.8792 1.42397C28.8783 1.30563 28.8266 1.19309 28.7368 1.11304C28.647 1.03286 28.5265 0.992001 28.4044 1.0013L10.3049 2.29102C10.0957 2.30603 9.92504 2.46034 9.89666 2.6612L7.53769 19.5577C7.50951 19.7596 7.65552 19.9458 7.8654 19.9755C8.07407 20.0051 8.26794 19.8659 8.29741 19.6654L10.6622 3.57523L27.6064 18.2238L10.6062 21.8273C10.3989 21.8713 10.2619 22.0612 10.2919 22.263C10.3252 22.4867 10.5492 22.6364 10.7793 22.5888L28.6458 18.8883ZM20.0708 10.5578L28.106 17.504L27.9998 2.49293L20.0708 10.5578ZM11.4108 3.07054L19.4111 9.98698L27.325 1.9367L11.4108 3.07054Z" stroke="#053856"/>
<path fill-rule="evenodd" clip-rule="evenodd" d="M5.1162 25.6304C6.49267 25.7916 8.09665 26.2562 9.67247 27.3409C11.6079 28.7405 12.0083 31.406 10.5659 33.2842C9.86476 34.1972 8.83841 34.7909 7.67622 34.9549C6.5165 35.1185 5.36083 34.8349 4.39791 34.1372C3.4938 33.382 2.88015 32.5369 2.56252 31.6133C2.39692 31.1317 2.31171 30.6286 2.30783 30.1059C2.29755 28.767 2.82263 27.4905 3.46916 26.4297C2.33926 26.4731 1.59721 26.6913 1.58051 26.6966C1.34731 26.7675 1.0984 26.6463 1.02238 26.4253L1.02103 26.4213C0.946682 26.1976 1.07566 25.958 1.31011 25.8858C1.3981 25.8588 2.48769 25.534 4.05544 25.5601C4.89614 24.5578 5.92536 23.6468 5.92536 23.6468L6.4202 24.2384L6.41961 24.2389C6.39428 24.2613 5.79254 24.7938 5.11585 25.6306L5.1162 25.6304ZM4.96227 33.4761C3.81098 32.5127 3.20982 31.3703 3.19961 30.0993C3.18875 28.7711 3.81134 27.4762 4.5123 26.4433C5.86872 26.5316 7.53299 26.9198 9.14079 28.0267C9.73107 28.4533 10.1423 29.0299 10.3601 29.6634C10.7113 30.6845 10.5603 31.853 9.84749 32.7815C9.28905 33.5092 8.47275 33.9816 7.5491 34.112C6.62792 34.2421 5.70922 34.0163 4.96227 33.4761Z" stroke="#053856"/>
<path d="M14.0198 13.2259C13.9047 13.2251 13.8331 13.1832 13.7619 13.1136C13.6907 13.0441 13.663 12.961 13.6498 12.8642C13.6522 12.6708 13.8272 12.5062 14.0289 12.5077L18.0627 12.5349L18.0135 16.4019C18.011 16.5953 17.8361 16.7599 17.6344 16.7584C17.4326 16.7571 17.2618 16.5902 17.2644 16.3968L17.2978 13.7728L6.45529 24.1866C6.30942 24.3238 6.06433 24.3359 5.90778 24.1829C5.75123 24.0299 5.75403 23.8089 5.91445 23.658L16.757 13.2443L14.0198 13.2259Z" stroke="#053856"/>
</svg>
