<svg width="95" height="109" viewBox="0 0 95 109" fill="none" xmlns="http://www.w3.org/2000/svg">
<path d="M39.7222 108.305H5.5685C2.98026 108.305 0.875977 106.201 0.875977 103.612V40.3722C0.875977 37.784 2.98026 35.6797 5.5685 35.6797H39.7222C42.3104 35.6797 44.4147 37.784 44.4147 40.3722V103.612C44.4147 106.201 42.3082 108.305 39.7222 108.305ZM5.5685 38.1374C4.33707 38.1374 3.33424 39.1402 3.33424 40.3717V103.612C3.33424 104.843 4.33707 105.846 5.5685 105.846H39.7222C40.9536 105.846 41.9565 104.843 41.9565 103.612V40.3717C41.9565 39.1402 40.9536 38.1374 39.7222 38.1374H5.5685Z" fill="#053856"/>
<path d="M39.6727 38.1365H5.61762C4.93923 38.1365 4.38867 37.5859 4.38867 36.9075V31.0008C4.38867 26.6943 7.89152 23.1914 12.1981 23.1914H33.0926C37.3992 23.1914 40.902 26.6943 40.902 31.0008V36.9075C40.902 37.5859 40.3511 38.1365 39.6727 38.1365ZM6.84638 35.6786H38.443V31.0008C38.443 28.0511 36.0412 25.6493 33.0915 25.6493H12.197C9.24722 25.6493 6.84546 28.0511 6.84546 31.0008L6.84638 35.6786Z" fill="#053856"/>
<path d="M32.7685 25.6479C32.0901 25.6479 31.5396 25.0973 31.5396 24.4189V20.0385C31.5396 17.6764 29.8558 15.6531 27.5351 15.2278C26.95 15.1219 26.5273 14.6131 26.5273 14.0183V6.11274C26.5273 4.17585 24.9515 2.6027 23.0172 2.6027C21.0825 2.6027 19.5072 4.17843 19.5072 6.11274V13.9297C19.5072 14.5811 19.0009 15.1169 18.3517 15.1565C15.7757 15.3089 13.76 17.4524 13.76 20.0385V24.4189C13.76 25.0973 13.2094 25.6479 12.5311 25.6479C11.8527 25.6479 11.3021 25.0973 11.3021 24.4189L11.3018 20.0385C11.3018 16.5504 13.7478 13.5981 17.0515 12.8658V6.11569C17.0439 2.82172 19.7233 0.144531 23.0147 0.144531C26.3062 0.144531 28.983 2.82135 28.983 6.11283V13.067C31.94 14.0525 33.9975 16.8377 33.9975 20.036V24.4164C33.9978 25.0973 33.4469 25.6479 32.7685 25.6479Z" fill="#053856"/>
<path d="M14.1809 52.1454H8.06488C7.38649 52.1454 6.83594 51.5948 6.83594 50.9164C6.83594 50.2381 7.3865 49.6875 8.06488 49.6875H14.1809C14.8592 49.6875 15.4098 50.2381 15.4098 50.9164C15.4098 51.5948 14.8592 52.1454 14.1809 52.1454Z" fill="#053856"/>
<path d="M14.1809 59.1727H8.06488C7.38649 59.1727 6.83594 58.6222 6.83594 57.9438C6.83594 57.2654 7.3865 56.7148 8.06488 56.7148H14.1809C14.8592 56.7148 15.4098 57.2654 15.4098 57.9438C15.4098 58.6222 14.8592 59.1727 14.1809 59.1727Z" fill="#053856"/>
<path d="M14.1809 66.1962H8.06488C7.38649 66.1962 6.83594 65.6456 6.83594 64.9672C6.83594 64.2888 7.3865 63.7383 8.06488 63.7383H14.1809C14.8592 63.7383 15.4098 64.2888 15.4098 64.9672C15.4098 65.6456 14.8592 66.1962 14.1809 66.1962Z" fill="#053856"/>
<path d="M14.1809 73.2157H8.06488C7.38649 73.2157 6.83594 72.6651 6.83594 71.9868C6.83594 71.3084 7.3865 70.7578 8.06488 70.7578H14.1809C14.8592 70.7578 15.4098 71.3084 15.4098 71.9868C15.4098 72.6648 14.8592 73.2157 14.1809 73.2157Z" fill="#053856"/>
<path d="M14.1809 80.2431H8.06488C7.38649 80.2431 6.83594 79.6925 6.83594 79.0141C6.83594 78.3357 7.3865 77.7852 8.06488 77.7852H14.1809C14.8592 77.7852 15.4098 78.3357 15.4098 79.0141C15.4098 79.6925 14.8592 80.2431 14.1809 80.2431Z" fill="#053856"/>
<path d="M14.1809 87.2665H8.06488C7.38649 87.2665 6.83594 86.7159 6.83594 86.0375C6.83594 85.3592 7.3865 84.8086 8.06488 84.8086H14.1809C14.8592 84.8086 15.4098 85.3592 15.4098 86.0375C15.4098 86.7159 14.8592 87.2665 14.1809 87.2665Z" fill="#053856"/>
<path d="M14.1809 94.2938H8.06488C7.38649 94.2938 6.83594 93.7433 6.83594 93.0649C6.83594 92.3865 7.3865 91.8359 8.06488 91.8359H14.1809C14.8592 91.8359 15.4098 92.3865 15.4098 93.0649C15.4098 93.7429 14.8592 94.2938 14.1809 94.2938Z" fill="#053856"/>
<path d="M89.9522 108.307H56.0136C53.4416 108.307 51.3506 106.74 51.3506 104.813V57.7209C51.3506 55.7935 53.4416 54.2266 56.0136 54.2266H89.9522C92.5241 54.2266 94.6152 55.7935 94.6152 57.7209V104.813C94.6152 106.74 92.5219 108.307 89.9522 108.307ZM56.0136 56.0567C54.7899 56.0567 53.7934 56.8035 53.7934 57.7205V104.813C53.7934 105.73 54.7899 106.476 56.0136 106.476H89.9522C91.1759 106.476 92.1724 105.73 92.1724 104.813V57.7205C92.1724 56.8035 91.1759 56.0567 89.9522 56.0567H56.0136Z" fill="#053856"/>
<path d="M90.1473 56.1638H56.0922C55.4138 56.1638 54.8633 55.6133 54.8633 54.9349V49.0282C54.8633 44.7216 58.3661 41.2188 62.6727 41.2188H83.5672C87.8738 41.2188 91.3766 44.7216 91.3766 49.0282V54.9349C91.3766 55.6133 90.8257 56.1638 90.1473 56.1638ZM57.321 53.7059H88.9176V49.0282C88.9176 46.0784 86.5159 43.6766 83.5661 43.6766H62.6716C59.7218 43.6766 57.3201 46.0784 57.3201 49.0282L57.321 53.7059Z" fill="#053856"/>
<path d="M83.2431 42.7729C82.5647 42.7729 82.0142 42.2223 82.0142 41.5439V37.1635C82.0142 34.8014 80.3304 32.7781 78.0098 32.3528C77.4246 32.2469 77.0019 31.7381 77.0019 31.1433V23.2377C77.0019 21.3009 75.4261 19.7277 73.4918 19.7277C71.5571 19.7277 69.9818 21.3034 69.9818 23.2377V31.0547C69.9818 31.7061 69.4755 32.2419 68.8263 32.2815C66.2503 32.4339 64.2346 34.5774 64.2346 37.1635V41.5439C64.2346 42.2223 63.6841 42.7729 63.0057 42.7729C62.3273 42.7729 61.7767 42.2223 61.7767 41.5439L61.7764 37.1635C61.7764 33.6754 64.2224 30.7231 67.5261 29.9908V23.2407C67.5185 19.9467 70.1979 17.2695 73.4893 17.2695C76.7808 17.2695 79.4576 19.9464 79.4576 23.2378V30.192C82.4146 31.1775 84.4721 33.9627 84.4721 37.161V41.5414C84.4724 42.2223 83.9215 42.7729 83.2431 42.7729Z" fill="#053856"/>
<path d="M64.6555 66.1962H58.5395C57.8611 66.1962 57.3105 65.6456 57.3105 64.9672C57.3105 64.2888 57.8611 63.7383 58.5395 63.7383H64.6555C65.3339 63.7383 65.8844 64.2888 65.8844 64.9672C65.8844 65.6456 65.3338 66.1962 64.6555 66.1962Z" fill="#053856"/>
<path d="M64.6555 73.2157H58.5395C57.8611 73.2157 57.3105 72.6651 57.3105 71.9868C57.3105 71.3084 57.8611 70.7578 58.5395 70.7578H64.6555C65.3339 70.7578 65.8844 71.3084 65.8844 71.9868C65.8844 72.6648 65.3338 73.2157 64.6555 73.2157Z" fill="#053856"/>
<path d="M64.6555 80.2431H58.5395C57.8611 80.2431 57.3105 79.6925 57.3105 79.0141C57.3105 78.3357 57.8611 77.7852 58.5395 77.7852H64.6555C65.3339 77.7852 65.8844 78.3357 65.8844 79.0141C65.8844 79.6925 65.3338 80.2431 64.6555 80.2431Z" fill="#053856"/>
<path d="M64.6555 87.2665H58.5395C57.8611 87.2665 57.3105 86.7159 57.3105 86.0375C57.3105 85.3592 57.8611 84.8086 58.5395 84.8086H64.6555C65.3339 84.8086 65.8844 85.3592 65.8844 86.0375C65.8844 86.7159 65.3338 87.2665 64.6555 87.2665Z" fill="#053856"/>
<path d="M64.6555 94.2938H58.5395C57.8611 94.2938 57.3105 93.7433 57.3105 93.0649C57.3105 92.3865 57.8611 91.8359 58.5395 91.8359H64.6555C65.3339 91.8359 65.8844 92.3865 65.8844 93.0649C65.8844 93.7429 65.3338 94.2938 64.6555 94.2938Z" fill="#053856"/>
</svg>
