<svg width="69" height="68" viewBox="0 0 69 68" fill="none" xmlns="http://www.w3.org/2000/svg">
<g id="V-B">
<g id="VB">
<g id="VB_2">
<path id="Vector" d="M11.0666 48.7417C9.60537 48.7417 8.37793 47.5178 8.37793 45.9905V25.9895C8.37793 24.4622 9.60537 23.2383 11.0666 23.2383C12.5278 23.2383 13.7553 24.4622 13.7553 25.9895V45.9905C13.7553 47.5178 12.5278 48.7417 11.0666 48.7417Z" stroke="#053856" stroke-width="2"/>
<path id="Vector_2" d="M35.1697 52.6133L56.1733 52.617V60.9979H5.9263C4.52528 60.9979 3.26953 59.7539 3.26953 58.1032V55.508C3.26953 53.8573 4.52528 52.6133 5.9263 52.6133H35.1695H35.1697Z" stroke="#053856" stroke-width="2"/>
<path id="Vector_3" d="M58 12.9671L58.0008 12.9672V16.2407C58.0008 17.7681 56.7733 18.9919 55.3121 18.9919H3.68867C2.22744 18.9919 1 17.7681 1 16.2407V12.9641C1 11.8153 1.71357 10.7827 2.72707 10.3972L2.72708 10.3972L2.73279 10.395L24.6627 1.89791C24.663 1.89779 24.6633 1.89768 24.6636 1.89757C27.7638 0.700828 31.2398 0.700811 34.34 1.89752C34.3404 1.89765 34.3407 1.89778 34.3411 1.89791L56.2671 10.3979L56.273 10.4002C57.2865 10.7857 58 11.8183 58 12.9671Z" stroke="#053856" stroke-width="2"/>
<path id="Vector_4" d="M23.3566 48.7417C21.8954 48.7417 20.668 47.5178 20.668 45.9905V25.9895C20.668 24.4622 21.8954 23.2383 23.3566 23.2383C24.8179 23.2383 26.0453 24.4622 26.0453 25.9895V45.9905C26.0453 47.5178 24.8179 48.7417 23.3566 48.7417Z" stroke="#053856" stroke-width="2"/>
<path id="Vector_5" d="M35.4582 48.7417C33.997 48.7417 32.7695 47.5178 32.7695 45.9905V25.9895C32.7695 24.4622 33.997 23.2383 35.4582 23.2383C36.9194 23.2383 38.1469 24.4622 38.1469 25.9895V45.9905C38.1469 47.5178 36.9194 48.7417 35.4582 48.7417Z" stroke="#053856" stroke-width="2"/>
<path id="Vector_6" d="M47.7473 48.7417C46.286 48.7417 45.0586 47.5178 45.0586 45.9905V25.9895C45.0586 24.4622 46.286 23.2383 47.7473 23.2383C49.2085 23.2383 50.4359 24.4622 50.4359 25.9895V45.9905C50.4359 47.5178 49.2085 48.7417 47.7473 48.7417Z" stroke="#053856" stroke-width="2"/>
</g>
</g>
<path id="SHIELD" d="M57.5529 38.2362L57.5529 38.2362L57.5441 38.2273L56.9697 37.6565C56.4326 37.1228 55.6915 36.835 54.9558 36.835C54.2201 36.835 53.4789 37.1228 52.9419 37.6565C52.9419 37.6566 52.9419 37.6566 52.9419 37.6566L52.3675 38.2273C50.5288 40.0546 48.0483 41.2062 45.4574 41.4043L45.4442 41.4053L45.431 41.4066C43.9813 41.5506 42.835 42.728 42.835 44.2342V47.5269C42.835 55.1088 46.9541 62.0808 53.5915 65.797L53.6164 65.811L53.642 65.8237C54.005 66.0042 54.4514 66.165 55 66.165C55.5483 66.165 55.9949 66.0042 56.358 65.8237L56.3836 65.811L56.4085 65.797C63.0459 62.0808 67.165 55.1088 67.165 47.5269V44.2342V44.1758L67.1592 44.1177C67.0243 42.7765 65.9899 41.4894 64.4407 41.4032C61.8443 41.2016 59.3772 40.0886 57.5529 38.2362ZM58.7729 48.5289C58.8877 48.6429 58.8889 48.8205 58.7768 48.9358L58.7731 48.9395L54.002 53.6809C53.9815 53.7013 53.9431 53.7298 53.8902 53.7521C53.838 53.7741 53.7926 53.7813 53.763 53.7813C53.7317 53.7813 53.6453 53.7719 53.4874 53.6447L51.0942 51.2663C50.9782 51.151 50.9783 50.9708 51.0941 50.8558L51.0942 50.8557C51.2143 50.7363 51.4082 50.7365 51.5279 50.8555L51.528 50.8557L52.9416 52.2605L53.7628 53.0766L54.584 52.2605L58.339 48.5288C58.4591 48.4094 58.653 48.4096 58.7727 48.5286L58.7729 48.5289Z" fill="#FFB812" stroke="white" stroke-width="2.33"/>
</g>
</svg>
