<svg width="957" height="293" viewBox="0 0 957 293" fill="none" xmlns="http://www.w3.org/2000/svg">
<path d="M70.3634 23.82V13.96C70.3634 12.5467 70.0634 11.4467 69.4634 10.66C68.8634 9.86 67.99 9.46 66.8434 9.46C65.91 9.46 65.2034 9.7 64.7234 10.18C64.2434 10.66 64.0034 11.2733 64.0034 12.02C64.0034 12.6067 64.1367 13.1067 64.4034 13.52C64.6834 13.9333 65.1167 14.1867 65.7034 14.28C65.8234 14.3067 65.93 14.3333 66.0234 14.36C66.1167 14.3733 66.1967 14.38 66.2634 14.38L66.1234 15.74C66.0034 15.7533 65.8567 15.7533 65.6834 15.74C65.5234 15.7267 65.3167 15.7 65.0634 15.66C64.13 15.5133 63.4167 15.1133 62.9234 14.46C62.4434 13.7933 62.2034 12.9667 62.2034 11.98C62.2034 11.1933 62.3834 10.4933 62.7434 9.88C63.1034 9.26667 63.63 8.79333 64.3234 8.46C65.0167 8.11333 65.8567 7.94 66.8434 7.94C68.5367 7.94 69.85 8.47333 70.7834 9.54C71.73 10.6067 72.2034 12.08 72.2034 13.96V23.72L70.3634 23.82ZM80.1313 20.2C78.478 20.2 77.198 19.64 76.2913 18.52C75.398 17.3867 74.9513 15.72 74.9513 13.52V8.14H76.7913V13.52C76.7913 15.2267 77.0847 16.5267 77.6713 17.42C78.258 18.3 79.0647 18.74 80.0913 18.74C81.198 18.74 82.0647 18.3 82.6913 17.42C83.318 16.5267 83.6313 15.2267 83.6313 13.52C83.6313 12.24 83.458 11.2533 83.1113 10.56C82.7647 9.85333 82.1647 9.50667 81.3113 9.52C81.018 9.52 80.738 9.54 80.4713 9.58C80.218 9.62 79.9513 9.67333 79.6713 9.74V8.26C80.0047 8.19333 80.3247 8.14 80.6313 8.1C80.9513 8.06 81.278 8.04 81.6113 8.04C82.9847 8.02667 83.9713 8.5 84.5713 9.46C85.1713 10.4067 85.4713 11.76 85.4713 13.52C85.4713 15.72 85.0047 17.3867 84.0713 18.52C83.138 19.64 81.8247 20.2 80.1313 20.2ZM96.1471 20V11.96C96.1471 11.1867 95.9604 10.6133 95.5871 10.24C95.2271 9.85333 94.6738 9.66 93.9271 9.66H87.9471L88.1671 8.14H94.0671C95.3604 8.14 96.3338 8.46 96.9871 9.1C97.6538 9.72667 97.9871 10.66 97.9871 11.9V20H96.1471ZM88.2671 20V13.26L90.1071 13.12V20H88.2671ZM115.997 20V11.96C115.997 11.1867 115.81 10.6133 115.437 10.24C115.077 9.85333 114.523 9.66 113.777 9.66H108.597V8.14H113.917C115.21 8.14 116.183 8.46 116.837 9.1C117.503 9.72667 117.837 10.66 117.837 11.9V20H115.997ZM106.317 20L106.537 18.48H107.257C107.563 18.48 107.81 18.42 107.997 18.3C108.197 18.1667 108.343 17.9733 108.437 17.72C108.543 17.4667 108.597 17.14 108.597 16.74V8.54H110.437V16.84C110.437 17.8667 110.19 18.6533 109.697 19.2C109.203 19.7333 108.49 20 107.557 20H106.317ZM106.717 9.66L106.937 8.14H109.477V9.66H106.717ZM121.088 20V18.48H124.768C125.622 18.48 126.355 18.2933 126.968 17.92C127.582 17.5333 128.048 17 128.368 16.32C128.702 15.64 128.868 14.8533 128.868 13.96C128.868 12.5467 128.582 11.4467 128.008 10.66C127.435 9.86 126.575 9.46 125.428 9.46C124.495 9.46 123.782 9.7 123.288 10.18C122.795 10.66 122.548 11.2733 122.548 12.02C122.548 12.6067 122.688 13.1067 122.968 13.52C123.248 13.9333 123.682 14.1867 124.268 14.28C124.375 14.3067 124.475 14.3333 124.568 14.36C124.662 14.3733 124.742 14.38 124.808 14.38L124.688 15.74C124.568 15.7533 124.422 15.7533 124.248 15.74C124.075 15.7267 123.862 15.7 123.608 15.66C122.675 15.5133 121.968 15.1133 121.488 14.46C121.008 13.7933 120.768 12.9667 120.768 11.98C120.768 11.1933 120.948 10.4933 121.308 9.88C121.668 9.26667 122.195 8.79333 122.888 8.46C123.582 8.11333 124.428 7.94 125.428 7.94C127.122 7.94 128.428 8.47333 129.348 9.54C130.282 10.6067 130.748 12.08 130.748 13.96C130.748 15.1733 130.502 16.2333 130.008 17.14C129.528 18.0467 128.828 18.7533 127.908 19.26C127.002 19.7533 125.902 20 124.608 20H121.088ZM132.754 20L134.134 12.9L132.494 8.14H134.334L135.314 11.3H135.374C135.52 10.86 135.694 10.44 135.894 10.04C136.094 9.64 136.354 9.28667 136.674 8.98C136.994 8.66 137.387 8.40667 137.854 8.22C138.32 8.03333 138.867 7.94 139.494 7.94C140.387 7.94 141.167 8.15333 141.834 8.58C142.5 8.99333 143.02 9.62 143.394 10.46C143.78 11.2867 143.974 12.34 143.974 13.62V13.9C143.974 15.1267 143.774 16.2 143.374 17.12C142.987 18.0267 142.414 18.7333 141.654 19.24C140.907 19.7467 139.987 20 138.894 20H136.894L137.094 18.48H138.814C139.88 18.48 140.7 18.06 141.274 17.22C141.847 16.38 142.134 15.2733 142.134 13.9V13.62C142.134 12.66 142 11.88 141.734 11.28C141.48 10.6667 141.134 10.2133 140.694 9.92C140.254 9.62667 139.747 9.48 139.174 9.48C138.614 9.48 138.14 9.58 137.754 9.78C137.367 9.98 137.054 10.2533 136.814 10.6C136.574 10.9333 136.38 11.3067 136.234 11.72C136.1 12.12 136 12.5333 135.934 12.96L134.654 20H132.754Z" fill="#053856"/>
<path d="M600.868 8.14C602.161 8.14 603.135 8.46 603.788 9.1C604.455 9.72667 604.788 10.66 604.788 11.9V20H594.808V11.12C594.808 10.96 594.828 10.7867 594.868 10.6C594.908 10.4 594.968 10.2133 595.048 10.04C595.141 9.86667 595.268 9.74 595.428 9.66H593.568L593.768 8.14H600.868ZM602.948 18.48V11.96C602.948 11.1867 602.761 10.6133 602.388 10.24C602.028 9.85333 601.475 9.66 600.728 9.66H596.788C596.735 9.79333 596.695 9.96 596.668 10.16C596.655 10.36 596.648 10.56 596.648 10.76V18.48H602.948ZM608.634 14.76V8.14H610.474V14.76H608.634ZM606.814 9.66L607.034 8.14H609.674V9.66H606.814ZM616.339 20V11.1C616.339 10.7667 616.286 10.4933 616.179 10.28C616.086 10.0533 615.939 9.89333 615.739 9.8C615.539 9.70667 615.293 9.66 614.999 9.66H613.639L613.839 8.14H615.459C616.339 8.14 617.013 8.38 617.479 8.86C617.946 9.32667 618.179 10.0133 618.179 10.92V20H616.339ZM613.039 20V18.48H617.219V20H613.039ZM622.637 20V8.14H624.477V20H622.637ZM620.817 9.66L621.037 8.14H623.837V9.66H620.817ZM636.853 20V11.96C636.853 11.1867 636.666 10.6133 636.293 10.24C635.933 9.85333 635.38 9.66 634.633 9.66H629.453V8.14H634.773C636.066 8.14 637.04 8.46 637.693 9.1C638.36 9.72667 638.693 10.66 638.693 11.9V20H636.853ZM627.173 20L627.393 18.48H628.113C628.42 18.48 628.666 18.42 628.853 18.3C629.053 18.1667 629.2 17.9733 629.293 17.72C629.4 17.4667 629.453 17.14 629.453 16.74V8.54H631.293V16.84C631.293 17.8667 631.046 18.6533 630.553 19.2C630.06 19.7333 629.346 20 628.413 20H627.173ZM627.573 9.66L627.793 8.14H630.333V9.66H627.573ZM644.824 20V11.1C644.824 10.7667 644.771 10.4933 644.664 10.28C644.571 10.0533 644.424 9.89333 644.224 9.8C644.024 9.70667 643.778 9.66 643.484 9.66H642.124L642.324 8.14H643.944C644.824 8.14 645.498 8.38 645.964 8.86C646.431 9.32667 646.664 10.0133 646.664 10.92V20H644.824ZM641.524 20V18.48H645.704V20H641.524ZM657.033 23.82V8.14H658.873V23.72L657.033 23.82ZM655.213 9.66L655.433 8.14H658.233V9.66H655.213ZM667.915 20.2C666.209 20.2 664.935 19.7067 664.095 18.72C663.269 17.7333 662.855 16.28 662.855 14.36V14.14C662.855 13.22 662.995 12.38 663.275 11.62C663.569 10.86 663.929 10.24 664.355 9.76V9.52L666.095 9.4L665.875 9.72C665.489 10.16 665.195 10.7533 664.995 11.5C664.795 12.2467 664.695 13.0667 664.695 13.96C664.695 15.5467 664.949 16.74 665.455 17.54C665.975 18.34 666.795 18.74 667.915 18.74C669.102 18.74 669.969 18.2933 670.515 17.4C671.062 16.4933 671.335 15.1867 671.335 13.48C671.335 12.24 671.129 11.2933 670.715 10.64C670.302 9.98667 669.595 9.66 668.595 9.66H662.195L662.415 8.14H668.655C670.215 8.14 671.355 8.6 672.075 9.52C672.809 10.4267 673.175 11.74 673.175 13.46C673.175 15.6333 672.742 17.3 671.875 18.46C671.009 19.62 669.689 20.2 667.915 20.2ZM682.407 8.14C683.7 8.14 684.673 8.46 685.327 9.1C685.993 9.72667 686.327 10.66 686.327 11.9V20H684.487V11.96C684.487 11.1867 684.3 10.6133 683.927 10.24C683.567 9.85333 683.02 9.66 682.287 9.66H678.727C678.647 9.78 678.56 10.0067 678.467 10.34C678.373 10.6733 678.327 11.1933 678.327 11.9V20H676.487V12.36C676.487 11.7733 676.547 11.2467 676.667 10.78C676.787 10.3 676.96 9.93333 677.187 9.68L676.787 9.6V8.14H682.407ZM675.447 9.66L675.647 8.14H680.047V9.66H675.447ZM689.409 20L690.789 12.9L689.149 8.14H690.989L691.969 11.3H692.029C692.176 10.86 692.349 10.44 692.549 10.04C692.749 9.64 693.009 9.28667 693.329 8.98C693.649 8.66 694.042 8.40667 694.509 8.22C694.976 8.03333 695.522 7.94 696.149 7.94C697.042 7.94 697.822 8.15333 698.489 8.58C699.156 8.99333 699.676 9.62 700.049 10.46C700.436 11.2867 700.629 12.34 700.629 13.62V13.9C700.629 15.1267 700.429 16.2 700.029 17.12C699.642 18.0267 699.069 18.7333 698.309 19.24C697.562 19.7467 696.642 20 695.549 20H693.549L693.749 18.48H695.469C696.536 18.48 697.356 18.06 697.929 17.22C698.502 16.38 698.789 15.2733 698.789 13.9V13.62C698.789 12.66 698.656 11.88 698.389 11.28C698.136 10.6667 697.789 10.2133 697.349 9.92C696.909 9.62667 696.402 9.48 695.829 9.48C695.269 9.48 694.796 9.58 694.409 9.78C694.022 9.98 693.709 10.2533 693.469 10.6C693.229 10.9333 693.036 11.3067 692.889 11.72C692.756 12.12 692.656 12.5333 692.589 12.96L691.309 20H689.409Z" fill="#053856"/>
<path d="M575.494 277.76V271.14H577.334V277.76H575.494ZM573.674 272.66L573.894 271.14H576.534V272.66H573.674ZM589.319 283V274.96C589.319 274.187 589.132 273.613 588.759 273.24C588.399 272.853 587.846 272.66 587.099 272.66H581.919V271.14H587.239C588.532 271.14 589.506 271.46 590.159 272.1C590.826 272.727 591.159 273.66 591.159 274.9V283H589.319ZM579.639 283L579.859 281.48H580.579C580.886 281.48 581.132 281.42 581.319 281.3C581.519 281.167 581.666 280.973 581.759 280.72C581.866 280.467 581.919 280.14 581.919 279.74V271.54H583.759V279.84C583.759 280.867 583.512 281.653 583.019 282.2C582.526 282.733 581.812 283 580.879 283H579.639ZM580.039 272.66L580.259 271.14H582.799V272.66H580.039ZM595.61 283V271.14H597.45V283H595.61ZM593.79 272.66L594.01 271.14H596.81V272.66H593.79ZM606.626 283.06C605.373 283.06 604.306 282.793 603.426 282.26C602.559 281.727 601.893 280.947 601.426 279.92C600.959 278.88 600.726 277.607 600.726 276.1V271.14H602.566V276.1C602.566 277.313 602.719 278.333 603.026 279.16C603.346 279.973 603.806 280.587 604.406 281C605.006 281.4 605.739 281.6 606.606 281.6H606.806C607.699 281.6 608.453 281.4 609.066 281C609.679 280.587 610.139 279.973 610.446 279.16C610.766 278.347 610.926 277.333 610.926 276.12V271.14H612.746V276.1C612.746 277.607 612.513 278.88 612.046 279.92C611.593 280.947 610.926 281.727 610.046 282.26C609.166 282.793 608.099 283.06 606.846 283.06H606.626ZM602.086 278.4L601.946 277.12C602.839 277.16 603.573 277.04 604.146 276.76C604.719 276.467 605.139 276.02 605.406 275.42C605.686 274.82 605.826 274.093 605.826 273.24V271.14H607.666V273.12C607.666 273.96 607.553 274.713 607.326 275.38C607.099 276.033 606.753 276.593 606.286 277.06C605.833 277.513 605.253 277.853 604.546 278.08C603.853 278.307 603.033 278.413 602.086 278.4ZM621.575 283V274.96C621.575 274.187 621.389 273.613 621.015 273.24C620.655 272.853 620.109 272.66 619.375 272.66H615.255L615.475 271.14H619.495C620.789 271.14 621.762 271.46 622.415 272.1C623.082 272.727 623.415 273.66 623.415 274.9V283H621.575ZM633.635 271.14H640.855L640.655 272.3L637.075 283H635.175L638.675 272.66H631.795V268.02L633.635 267.8V271.14ZM644.544 283V271.14H646.384V283H644.544ZM642.724 272.66L642.944 271.14H645.744V272.66H642.724ZM657.64 283V274.96C657.64 274.187 657.453 273.613 657.08 273.24C656.72 272.853 656.166 272.66 655.42 272.66H649.44L649.66 271.14H655.56C656.853 271.14 657.826 271.46 658.48 272.1C659.146 272.727 659.48 273.66 659.48 274.9V283H657.64ZM649.76 283V276.26L651.6 276.12V283H649.76ZM663.508 277.76V271.14H665.348V277.76H663.508ZM661.688 272.66L661.908 271.14H664.548V272.66H661.688ZM671.213 283V274.1C671.213 273.767 671.16 273.493 671.053 273.28C670.96 273.053 670.813 272.893 670.613 272.8C670.413 272.707 670.166 272.66 669.873 272.66H668.513L668.713 271.14H670.333C671.213 271.14 671.886 271.38 672.353 271.86C672.82 272.327 673.053 273.013 673.053 273.92V283H671.213ZM667.913 283V281.48H672.093V283H667.913ZM687.282 283L690.482 272.64H682.002L682.222 271.14H692.582L692.422 272.3L689.122 283H687.282ZM682.602 286.82V275.54L684.442 275.4V286.72L682.602 286.82ZM700.841 283.06C699.588 283.06 698.521 282.793 697.641 282.26C696.774 281.727 696.108 280.947 695.641 279.92C695.174 278.88 694.941 277.607 694.941 276.1V271.14H696.781V276.1C696.781 277.313 696.934 278.333 697.241 279.16C697.561 279.973 698.021 280.587 698.621 281C699.221 281.4 699.954 281.6 700.821 281.6H701.021C701.914 281.6 702.668 281.4 703.281 281C703.894 280.587 704.354 279.973 704.661 279.16C704.981 278.347 705.141 277.333 705.141 276.12V271.14H706.961V276.1C706.961 277.607 706.728 278.88 706.261 279.92C705.808 280.947 705.141 281.727 704.261 282.26C703.381 282.793 702.314 283.06 701.061 283.06H700.841ZM696.301 278.4L696.161 277.12C697.054 277.16 697.788 277.04 698.361 276.76C698.934 276.467 699.354 276.02 699.621 275.42C699.901 274.82 700.041 274.093 700.041 273.24V271.14H701.881V273.12C701.881 273.96 701.768 274.713 701.541 275.38C701.314 276.033 700.968 276.593 700.501 277.06C700.048 277.513 699.468 277.853 698.761 278.08C698.068 278.307 697.248 278.413 696.301 278.4ZM709.87 283L711.25 275.9L709.61 271.14H711.45L712.43 274.3H712.49C712.637 273.86 712.81 273.44 713.01 273.04C713.21 272.64 713.47 272.287 713.79 271.98C714.11 271.66 714.504 271.407 714.97 271.22C715.437 271.033 715.984 270.94 716.61 270.94C717.504 270.94 718.284 271.153 718.95 271.58C719.617 271.993 720.137 272.62 720.51 273.46C720.897 274.287 721.09 275.34 721.09 276.62V276.9C721.09 278.127 720.89 279.2 720.49 280.12C720.104 281.027 719.53 281.733 718.77 282.24C718.024 282.747 717.104 283 716.01 283H714.01L714.21 281.48H715.93C716.997 281.48 717.817 281.06 718.39 280.22C718.964 279.38 719.25 278.273 719.25 276.9V276.62C719.25 275.66 719.117 274.88 718.85 274.28C718.597 273.667 718.25 273.213 717.81 272.92C717.37 272.627 716.864 272.48 716.29 272.48C715.73 272.48 715.257 272.58 714.87 272.78C714.484 272.98 714.17 273.253 713.93 273.6C713.69 273.933 713.497 274.307 713.35 274.72C713.217 275.12 713.117 275.533 713.05 275.96L711.77 283H709.87ZM723.083 283L724.463 275.9L722.823 271.14H724.663L725.643 274.3H725.703C725.849 273.86 726.023 273.44 726.223 273.04C726.423 272.64 726.683 272.287 727.003 271.98C727.323 271.66 727.716 271.407 728.183 271.22C728.649 271.033 729.196 270.94 729.823 270.94C730.716 270.94 731.496 271.153 732.163 271.58C732.829 271.993 733.349 272.62 733.723 273.46C734.109 274.287 734.303 275.34 734.303 276.62V276.9C734.303 278.127 734.103 279.2 733.703 280.12C733.316 281.027 732.743 281.733 731.983 282.24C731.236 282.747 730.316 283 729.223 283H727.223L727.423 281.48H729.143C730.209 281.48 731.029 281.06 731.603 280.22C732.176 279.38 732.463 278.273 732.463 276.9V276.62C732.463 275.66 732.329 274.88 732.063 274.28C731.809 273.667 731.463 273.213 731.023 272.92C730.583 272.627 730.076 272.48 729.503 272.48C728.943 272.48 728.469 272.58 728.083 272.78C727.696 272.98 727.383 273.253 727.143 273.6C726.903 273.933 726.709 274.307 726.563 274.72C726.429 275.12 726.329 275.533 726.263 275.96L724.983 283H723.083Z" fill="#053856"/>
<path d="M341.798 283V274.96C341.798 274.187 341.611 273.613 341.238 273.24C340.878 272.853 340.331 272.66 339.598 272.66H335.478L335.698 271.14H339.718C341.011 271.14 341.984 271.46 342.638 272.1C343.304 272.727 343.638 273.66 343.638 274.9V283H341.798ZM347.892 283V271.14H349.732V283H347.892ZM346.072 272.66L346.292 271.14H349.092V272.66H346.072ZM359.108 283V274.96C359.108 274.187 358.921 273.613 358.548 273.24C358.188 272.853 357.634 272.66 356.888 272.66H353.148L353.348 271.14H357.028C358.321 271.14 359.294 271.46 359.948 272.1C360.614 272.727 360.948 273.66 360.948 274.9V281.68C360.894 281.92 360.794 282.147 360.648 282.36C360.514 282.573 360.361 282.787 360.188 283H359.108ZM352.548 283V281.48H362.428L362.208 283H352.548ZM364.864 277.76V271.14H366.704V277.76H364.864ZM363.044 272.66L363.264 271.14H365.904V272.66H363.044ZM376.532 282.9L369.072 271.14H371.232L374.892 277.14L377.912 281.84L376.532 282.9ZM369.052 283V281.48H377.272L377.912 281.84L377.692 283H369.052ZM374.632 278.32L374.092 277.06C374.518 276.913 374.865 276.68 375.132 276.36C375.412 276.027 375.632 275.653 375.792 275.24C375.952 274.827 376.065 274.42 376.132 274.02C376.212 273.607 376.272 273.247 376.312 272.94L376.532 271.14H378.372L378.152 273.14C378.112 273.553 378.018 274.013 377.872 274.52C377.738 275.027 377.538 275.533 377.272 276.04C377.005 276.547 376.652 277.007 376.212 277.42C375.785 277.82 375.258 278.12 374.632 278.32ZM394.616 286.82V276.96C394.616 275.547 394.316 274.447 393.716 273.66C393.116 272.86 392.242 272.46 391.096 272.46C390.162 272.46 389.456 272.7 388.976 273.18C388.496 273.66 388.256 274.273 388.256 275.02C388.256 275.607 388.389 276.107 388.656 276.52C388.936 276.933 389.369 277.187 389.956 277.28C390.076 277.307 390.182 277.333 390.276 277.36C390.369 277.373 390.449 277.38 390.516 277.38L390.376 278.74C390.256 278.753 390.109 278.753 389.936 278.74C389.776 278.727 389.569 278.7 389.316 278.66C388.382 278.513 387.669 278.113 387.176 277.46C386.696 276.793 386.456 275.967 386.456 274.98C386.456 274.193 386.636 273.493 386.996 272.88C387.356 272.267 387.882 271.793 388.576 271.46C389.269 271.113 390.109 270.94 391.096 270.94C392.789 270.94 394.102 271.473 395.036 272.54C395.982 273.607 396.456 275.08 396.456 276.96V286.72L394.616 286.82ZM400.878 283V271.14H402.718V283H400.878ZM399.058 272.66L399.278 271.14H402.078V272.66H399.058ZM415.094 283V274.96C415.094 274.187 414.907 273.613 414.534 273.24C414.174 272.853 413.62 272.66 412.874 272.66H407.694V271.14H413.014C414.307 271.14 415.28 271.46 415.934 272.1C416.6 272.727 416.934 273.66 416.934 274.9V283H415.094ZM405.414 283L405.634 281.48H406.354C406.66 281.48 406.907 281.42 407.094 281.3C407.294 281.167 407.44 280.973 407.534 280.72C407.64 280.467 407.694 280.14 407.694 279.74V271.54H409.534V279.84C409.534 280.867 409.287 281.653 408.794 282.2C408.3 282.733 407.587 283 406.654 283H405.414ZM405.814 272.66L406.034 271.14H408.574V272.66H405.814ZM420.994 277.76V271.14H422.834V277.76H420.994ZM419.174 272.66L419.394 271.14H422.034V272.66H419.174ZM431.893 283.06C430.64 283.06 429.573 282.793 428.693 282.26C427.826 281.727 427.16 280.947 426.693 279.92C426.226 278.88 425.993 277.607 425.993 276.1V271.14H427.833V276.1C427.833 277.313 427.986 278.333 428.293 279.16C428.613 279.973 429.073 280.587 429.673 281C430.273 281.4 431.006 281.6 431.873 281.6H432.073C432.966 281.6 433.72 281.4 434.333 281C434.946 280.587 435.406 279.973 435.713 279.16C436.033 278.347 436.193 277.333 436.193 276.12V271.14H438.013V276.1C438.013 277.607 437.78 278.88 437.313 279.92C436.86 280.947 436.193 281.727 435.313 282.26C434.433 282.793 433.366 283.06 432.113 283.06H431.893ZM427.353 278.4L427.213 277.12C428.106 277.16 428.84 277.04 429.413 276.76C429.986 276.467 430.406 276.02 430.673 275.42C430.953 274.82 431.093 274.093 431.093 273.24V271.14H432.933V273.12C432.933 273.96 432.82 274.713 432.593 275.38C432.366 276.033 432.02 276.593 431.553 277.06C431.1 277.513 430.52 277.853 429.813 278.08C429.12 278.307 428.3 278.413 427.353 278.4Z" fill="#053856"/>
<path d="M832.461 276.76V270.14H834.301V276.76H832.461ZM830.641 271.66L830.861 270.14H833.501V271.66H830.641ZM840.166 282V273.1C840.166 272.767 840.113 272.493 840.006 272.28C839.913 272.053 839.766 271.893 839.566 271.8C839.366 271.707 839.119 271.66 838.826 271.66H837.466L837.666 270.14H839.286C840.166 270.14 840.839 270.38 841.306 270.86C841.773 271.327 842.006 272.013 842.006 272.92V282H840.166ZM836.866 282V280.48H841.046V282H836.866ZM846.464 282V270.14H848.304V282H846.464ZM844.644 271.66L844.864 270.14H847.664V271.66H844.644ZM857.42 282V273.96C857.42 273.187 857.233 272.613 856.86 272.24C856.5 271.853 855.953 271.66 855.22 271.66H851.1L851.32 270.14H855.34C856.633 270.14 857.606 270.46 858.26 271.1C858.926 271.727 859.26 272.66 859.26 273.9V282H857.42ZM863.358 276.76V270.14H865.198V276.76H863.358ZM861.538 271.66L861.758 270.14H864.398V271.66H861.538ZM867.836 282.72V281.18L871.876 280.28C872.463 280.133 872.99 279.94 873.456 279.7C873.936 279.447 874.343 279.073 874.676 278.58C875.023 278.087 875.303 277.413 875.516 276.56C875.73 275.707 875.87 274.6 875.936 273.24L876.136 270.14H877.976L877.796 273.24C877.743 274.347 877.63 275.327 877.456 276.18C877.296 277.02 877.07 277.753 876.776 278.38C876.483 279.007 876.11 279.54 875.656 279.98C875.216 280.42 874.683 280.787 874.056 281.08C873.443 281.373 872.723 281.613 871.896 281.8L867.836 282.72ZM870.996 281.16L868.376 270.26L870.156 270.02L872.216 278.54C872.283 278.807 872.303 279.093 872.276 279.4C872.25 279.693 872.183 279.993 872.076 280.3C871.983 280.593 871.856 280.88 871.696 281.16H870.996ZM885.882 282.72V281.18L889.922 280.28C890.509 280.133 891.036 279.94 891.502 279.7C891.982 279.447 892.389 279.073 892.722 278.58C893.069 278.087 893.349 277.413 893.562 276.56C893.776 275.707 893.916 274.6 893.982 273.24L894.182 270.14H896.022L895.842 273.24C895.789 274.347 895.676 275.327 895.502 276.18C895.342 277.02 895.116 277.753 894.822 278.38C894.529 279.007 894.156 279.54 893.702 279.98C893.262 280.42 892.729 280.787 892.102 281.08C891.489 281.373 890.769 281.613 889.942 281.8L885.882 282.72ZM889.042 281.16L886.422 270.26L888.202 270.02L890.262 278.54C890.329 278.807 890.349 279.093 890.322 279.4C890.296 279.693 890.229 279.993 890.122 280.3C890.029 280.593 889.902 280.88 889.742 281.16H889.042ZM898.138 271.66V270.14H907.598L907.398 271.66H898.138ZM903.818 282V273.12C903.818 272.96 903.838 272.787 903.878 272.6C903.918 272.4 903.978 272.213 904.058 272.04C904.151 271.867 904.278 271.74 904.438 271.66H905.878C905.784 271.753 905.724 271.9 905.698 272.1C905.671 272.3 905.658 272.52 905.658 272.76V282H903.818ZM911.198 276.76V270.14H913.038V276.76H911.198ZM909.378 271.66L909.598 270.14H912.238V271.66H909.378ZM916.116 282L917.496 274.9L915.856 270.14H917.696L918.676 273.3H918.736C918.883 272.86 919.056 272.44 919.256 272.04C919.456 271.64 919.716 271.287 920.036 270.98C920.356 270.66 920.749 270.407 921.216 270.22C921.683 270.033 922.229 269.94 922.856 269.94C923.749 269.94 924.529 270.153 925.196 270.58C925.863 270.993 926.383 271.62 926.756 272.46C927.143 273.287 927.336 274.34 927.336 275.62V275.9C927.336 277.127 927.136 278.2 926.736 279.12C926.349 280.027 925.776 280.733 925.016 281.24C924.269 281.747 923.349 282 922.256 282H920.256L920.456 280.48H922.176C923.243 280.48 924.063 280.06 924.636 279.22C925.209 278.38 925.496 277.273 925.496 275.9V275.62C925.496 274.66 925.363 273.88 925.096 273.28C924.843 272.667 924.496 272.213 924.056 271.92C923.616 271.627 923.109 271.48 922.536 271.48C921.976 271.48 921.503 271.58 921.116 271.78C920.729 271.98 920.416 272.253 920.176 272.6C919.936 272.933 919.743 273.307 919.596 273.72C919.463 274.12 919.363 274.533 919.296 274.96L918.016 282H916.116Z" fill="#053856"/>
<path d="M815.85 15.053V8.43297H817.69V15.053H815.85ZM814.03 9.95297L814.25 8.43297H816.89V9.95297H814.03ZM829.675 20.293V12.253C829.675 11.4796 829.488 10.9063 829.115 10.533C828.755 10.1463 828.201 9.95297 827.455 9.95297H822.275V8.43297H827.595C828.888 8.43297 829.861 8.75297 830.515 9.39297C831.181 10.0196 831.515 10.953 831.515 12.193V20.293H829.675ZM819.995 20.293L820.215 18.773H820.935C821.241 18.773 821.488 18.713 821.675 18.593C821.875 18.4596 822.021 18.2663 822.115 18.013C822.221 17.7596 822.275 17.433 822.275 17.033V8.83297H824.115V17.133C824.115 18.1596 823.868 18.9463 823.375 19.493C822.881 20.0263 822.168 20.293 821.235 20.293H819.995ZM820.395 9.95297L820.615 8.43297H823.155V9.95297H820.395ZM835.789 8.43297H843.009L842.809 9.59297L839.229 20.293H837.329L840.829 9.95297H833.949V5.31297L835.789 5.09297V8.43297ZM851.298 20.353C850.045 20.353 848.978 20.0863 848.098 19.553C847.231 19.0196 846.565 18.2396 846.098 17.213C845.631 16.173 845.398 14.8996 845.398 13.393V8.43297H847.238V13.393C847.238 14.6063 847.391 15.6263 847.698 16.453C848.018 17.2663 848.478 17.8796 849.078 18.293C849.678 18.693 850.411 18.893 851.278 18.893H851.478C852.371 18.893 853.125 18.693 853.738 18.293C854.351 17.8796 854.811 17.2663 855.118 16.453C855.438 15.6396 855.598 14.6263 855.598 13.413V8.43297H857.418V13.393C857.418 14.8996 857.185 16.173 856.718 17.213C856.265 18.2396 855.598 19.0196 854.718 19.553C853.838 20.0863 852.771 20.353 851.518 20.353H851.298ZM846.758 15.693L846.618 14.413C847.511 14.453 848.245 14.333 848.818 14.053C849.391 13.7596 849.811 13.313 850.078 12.713C850.358 12.113 850.498 11.3863 850.498 10.533V8.43297H852.338V10.413C852.338 11.253 852.225 12.0063 851.998 12.673C851.771 13.3263 851.425 13.8863 850.958 14.353C850.505 14.8063 849.925 15.1463 849.218 15.373C848.525 15.5996 847.705 15.7063 846.758 15.693ZM860.327 20.293L861.707 13.193L860.067 8.43297H861.907L862.887 11.593H862.947C863.094 11.153 863.267 10.733 863.467 10.333C863.667 9.93297 863.927 9.57964 864.247 9.27297C864.567 8.95297 864.961 8.69963 865.427 8.51297C865.894 8.3263 866.441 8.23297 867.067 8.23297C867.961 8.23297 868.741 8.4463 869.407 8.87297C870.074 9.2863 870.594 9.91297 870.967 10.753C871.354 11.5796 871.547 12.633 871.547 13.913V14.193C871.547 15.4196 871.347 16.493 870.947 17.413C870.561 18.3196 869.987 19.0263 869.227 19.533C868.481 20.0396 867.561 20.293 866.467 20.293H864.467L864.667 18.773H866.387C867.454 18.773 868.274 18.353 868.847 17.513C869.421 16.673 869.707 15.5663 869.707 14.193V13.913C869.707 12.953 869.574 12.173 869.307 11.573C869.054 10.9596 868.707 10.5063 868.267 10.213C867.827 9.91964 867.321 9.77297 866.747 9.77297C866.187 9.77297 865.714 9.87297 865.327 10.073C864.941 10.273 864.627 10.5463 864.387 10.893C864.147 11.2263 863.954 11.5996 863.807 12.013C863.674 12.413 863.574 12.8263 863.507 13.253L862.227 20.293H860.327ZM873.54 20.293L874.92 13.193L873.28 8.43297H875.12L876.1 11.593H876.16C876.307 11.153 876.48 10.733 876.68 10.333C876.88 9.93297 877.14 9.57964 877.46 9.27297C877.78 8.95297 878.173 8.69963 878.64 8.51297C879.107 8.3263 879.653 8.23297 880.28 8.23297C881.173 8.23297 881.953 8.4463 882.62 8.87297C883.287 9.2863 883.807 9.91297 884.18 10.753C884.567 11.5796 884.76 12.633 884.76 13.913V14.193C884.76 15.4196 884.56 16.493 884.16 17.413C883.773 18.3196 883.2 19.0263 882.44 19.533C881.693 20.0396 880.773 20.293 879.68 20.293H877.68L877.88 18.773H879.6C880.667 18.773 881.487 18.353 882.06 17.513C882.633 16.673 882.92 15.5663 882.92 14.193V13.913C882.92 12.953 882.787 12.173 882.52 11.573C882.267 10.9596 881.92 10.5063 881.48 10.213C881.04 9.91964 880.533 9.77297 879.96 9.77297C879.4 9.77297 878.927 9.87297 878.54 10.073C878.153 10.273 877.84 10.5463 877.6 10.893C877.36 11.2263 877.167 11.5996 877.02 12.013C876.887 12.413 876.787 12.8263 876.72 13.253L875.44 20.293H873.54ZM892.494 21.013V19.473L896.534 18.573C897.12 18.4263 897.647 18.233 898.114 17.993C898.594 17.7396 899 17.3663 899.334 16.873C899.68 16.3796 899.96 15.7063 900.174 14.853C900.387 13.9996 900.527 12.893 900.594 11.533L900.794 8.43297H902.634L902.454 11.533C902.4 12.6396 902.287 13.6196 902.114 14.473C901.954 15.313 901.727 16.0463 901.434 16.673C901.14 17.2996 900.767 17.833 900.314 18.273C899.874 18.713 899.34 19.0796 898.714 19.373C898.1 19.6663 897.38 19.9063 896.554 20.093L892.494 21.013ZM895.654 19.453L893.034 8.55297L894.814 8.31297L896.874 16.833C896.94 17.0996 896.96 17.3863 896.934 17.693C896.907 17.9863 896.84 18.2863 896.734 18.593C896.64 18.8863 896.514 19.173 896.354 19.453H895.654ZM904.749 9.95297V8.43297H914.209L914.009 9.95297H904.749ZM910.429 20.293V11.413C910.429 11.253 910.449 11.0796 910.489 10.893C910.529 10.693 910.589 10.5063 910.669 10.333C910.762 10.1596 910.889 10.033 911.049 9.95297H912.489C912.396 10.0463 912.336 10.193 912.309 10.393C912.282 10.593 912.269 10.813 912.269 11.053V20.293H910.429ZM917.809 15.053V8.43297H919.649V15.053H917.809ZM915.989 9.95297L916.209 8.43297H918.849V9.95297H915.989ZM922.727 20.293L924.107 13.193L922.467 8.43297H924.307L925.287 11.593H925.347C925.494 11.153 925.667 10.733 925.867 10.333C926.067 9.93297 926.327 9.57964 926.647 9.27297C926.967 8.95297 927.361 8.69963 927.827 8.51297C928.294 8.3263 928.841 8.23297 929.467 8.23297C930.361 8.23297 931.141 8.4463 931.807 8.87297C932.474 9.2863 932.994 9.91297 933.367 10.753C933.754 11.5796 933.947 12.633 933.947 13.913V14.193C933.947 15.4196 933.747 16.493 933.347 17.413C932.961 18.3196 932.387 19.0263 931.627 19.533C930.881 20.0396 929.961 20.293 928.867 20.293H926.867L927.067 18.773H928.787C929.854 18.773 930.674 18.353 931.247 17.513C931.821 16.673 932.107 15.5663 932.107 14.193V13.913C932.107 12.953 931.974 12.173 931.707 11.573C931.454 10.9596 931.107 10.5063 930.667 10.213C930.227 9.91964 929.721 9.77297 929.147 9.77297C928.587 9.77297 928.114 9.87297 927.727 10.073C927.341 10.273 927.027 10.5463 926.787 10.893C926.547 11.2263 926.354 11.5996 926.207 12.013C926.074 12.413 925.974 12.8263 925.907 13.253L924.627 20.293H922.727Z" fill="#053856"/>
<path d="M853.067 101.738C851.605 101.738 850.378 100.514 850.378 98.9866V78.9856C850.378 77.4582 851.605 76.2344 853.067 76.2344C854.528 76.2344 855.755 77.4582 855.755 78.9856V98.9866C855.755 100.514 854.528 101.738 853.067 101.738Z" stroke="#053856" stroke-width="2"/>
<path d="M877.17 105.617L898.173 105.621V114.002H847.926C846.525 114.002 845.27 112.758 845.27 111.107V108.512C845.27 106.861 846.525 105.617 847.926 105.617H877.169H877.17Z" stroke="#053856" stroke-width="2"/>
<path d="M900 65.9671L900.001 65.9672V69.2407C900.001 70.7681 898.773 71.9919 897.312 71.9919H845.689C844.227 71.9919 843 70.7681 843 69.2407V65.9641C843 64.8153 843.714 63.7827 844.727 63.3972L844.727 63.3972L844.733 63.395L866.663 54.8979C866.663 54.8978 866.663 54.8977 866.664 54.8976C869.764 53.7008 873.24 53.7008 876.34 54.8975C876.34 54.8976 876.341 54.8978 876.341 54.8979L898.267 63.3979L898.273 63.4002C899.286 63.7857 900 64.8183 900 65.9671Z" stroke="#053856" stroke-width="2"/>
<path d="M865.357 101.738C863.895 101.738 862.668 100.514 862.668 98.9866V78.9856C862.668 77.4582 863.895 76.2344 865.357 76.2344C866.818 76.2344 868.045 77.4582 868.045 78.9856V98.9866C868.045 100.514 866.818 101.738 865.357 101.738Z" stroke="#053856" stroke-width="2"/>
<path d="M877.458 101.738C875.997 101.738 874.77 100.514 874.77 98.9866V78.9856C874.77 77.4582 875.997 76.2344 877.458 76.2344C878.919 76.2344 880.147 77.4582 880.147 78.9856V98.9866C880.147 100.514 878.919 101.738 877.458 101.738Z" stroke="#053856" stroke-width="2"/>
<path d="M889.747 101.738C888.286 101.738 887.059 100.514 887.059 98.9866V78.9856C887.059 77.4582 888.286 76.2344 889.747 76.2344C891.209 76.2344 892.436 77.4582 892.436 78.9856V98.9866C892.436 100.514 891.209 101.738 889.747 101.738Z" stroke="#053856" stroke-width="2"/>
<path d="M903.538 92.2317C903.538 89.3429 905.881 87 908.77 87C911.659 87 914 89.3433 914 92.2317V113.154C914 116.043 911.659 118.384 908.77 118.384C905.882 118.384 903.538 116.043 903.538 113.154V92.2317Z" fill="#97D6BE" stroke="white" stroke-width="2"/>
<path d="M892.77 101.462C892.77 98.5739 895.111 96.2305 898 96.2305C900.889 96.2305 903.23 98.5738 903.23 101.462V113.154C903.23 116.043 900.889 118.384 898 118.384C895.112 118.384 892.77 116.043 892.77 113.154V101.462Z" fill="#97D6BE" stroke="white" stroke-width="2"/>
<path d="M882 107.617C882 104.728 884.341 102.387 887.23 102.387C890.119 102.387 892.462 104.728 892.462 107.617V113.156C892.462 116.045 890.118 118.386 887.23 118.386C884.342 118.386 882 116.045 882 113.156V107.617Z" fill="#97D6BE" stroke="white" stroke-width="2"/>
<path d="M170.763 56H36.2375C17.3585 56 2 69.9987 2 87.2046V208.795C2 226 17.3579 240 36.2375 240H170.763C189.642 240 205 226.001 205 208.795V87.2046C205 69.9991 189.642 56 170.763 56ZM94.4364 180.094V234.381H78.3244V182.034C83.0528 180.188 87.3474 177.39 90.9377 173.813C94.5287 170.237 97.338 165.959 99.1904 161.25H199.36V177.296H97.2562C96.5103 177.296 95.7951 177.59 95.2665 178.114C94.7378 178.639 94.4394 179.351 94.4364 180.094ZM7.63701 140.376H29.1851C28.1109 145.402 28.1109 150.596 29.1851 155.622H7.63701V140.376ZM34.027 147.999C34.027 141.889 35.8457 135.915 39.2533 130.834C42.6617 125.754 47.5053 121.794 53.1729 119.455C58.8404 117.116 65.077 116.504 71.0941 117.696C77.1111 118.888 82.6376 121.831 86.9754 126.152C91.3132 130.472 94.2671 135.977 95.4638 141.97C96.6606 147.963 96.0461 154.175 93.698 159.82C91.3507 165.466 87.3747 170.291 82.2742 173.685C77.1727 177.08 71.1763 178.892 65.041 178.891C56.8184 178.882 48.9356 175.625 43.1208 169.833C37.3059 164.042 34.0366 156.189 34.027 147.999ZM72.6854 61.6158V112.292C67.6404 111.222 62.4267 111.222 57.3818 112.292V61.6158H72.6854ZM128.873 61.6158V134.759H99.19C97.3375 130.049 94.5283 125.771 90.9373 122.195C87.3468 118.618 83.0525 115.82 78.3241 113.975V61.6268L128.873 61.6158ZM152.637 140.375H199.359V155.622L100.88 155.621C101.957 150.596 101.957 145.4 100.88 140.375H131.693C132.441 140.376 133.158 140.08 133.687 139.553C134.216 139.027 134.513 138.311 134.512 137.567V61.6159H149.819V137.567C149.818 138.312 150.114 139.027 150.643 139.553C151.172 140.08 151.889 140.376 152.637 140.375ZM65.0315 184.506C67.6036 184.506 70.1689 184.237 72.6844 183.704V234.379H57.3808V183.704C59.8956 184.237 62.4602 184.506 65.0315 184.506ZM199.359 87.2018V134.757H155.457V61.6139H170.761C186.529 61.6139 199.358 73.0924 199.358 87.2018H199.359ZM36.2356 61.6139H51.7425V113.973C47.0134 115.817 42.718 118.616 39.1263 122.192C35.5345 125.769 32.7231 130.047 30.8698 134.757H7.63757V87.202C7.63757 73.093 20.467 61.6139 36.2356 61.6139ZM7.63701 208.793V161.238H30.8692C32.7224 165.947 35.5324 170.224 39.1234 173.801C42.7145 177.378 47.009 180.177 51.7374 182.022V234.369H36.2348C20.4664 234.38 7.63701 222.902 7.63701 208.793ZM170.761 234.38H100.073V182.901H199.357V208.794C199.357 222.903 186.527 234.382 170.759 234.382L170.761 234.38ZM49.1392 166.268C49.5166 166.268 49.8904 166.191 50.2376 166.043L65.0317 159.808L79.8279 166.043C80.5196 166.333 81.2986 166.336 81.9917 166.053C82.6856 165.77 83.2377 165.222 83.5256 164.532C83.8134 163.843 83.8134 163.067 83.5248 162.377L67.6346 124.857C67.3446 124.178 66.7969 123.64 66.1111 123.36C65.4253 123.08 64.6566 123.08 63.9708 123.36C63.285 123.64 62.7372 124.178 62.4472 124.857L46.5409 162.377C46.1774 163.243 46.2729 164.233 46.7949 165.015C47.3169 165.797 48.1964 166.267 49.1392 166.268ZM65.0317 133.169L75.6324 158.182L66.1365 154.181C65.4339 153.885 64.6402 153.884 63.9376 154.18L54.4396 158.181L65.0317 133.169Z" fill="#053856"/>
<path d="M152.637 140.375H199.359V155.622L100.88 155.621C101.957 150.596 101.957 145.4 100.88 140.375H131.693C132.441 140.376 133.158 140.08 133.687 139.553C134.216 139.027 134.513 138.311 134.512 137.567V61.6159H149.819V137.567C149.818 138.312 150.114 139.027 150.643 139.553C151.172 140.08 151.889 140.376 152.637 140.375Z" fill="#60BFC4"/>
<path d="M94.4364 180.094V234.381H78.3244V182.034C83.0528 180.188 87.3474 177.39 90.9377 173.813C94.5287 170.237 97.338 165.959 99.1904 161.25H199.36V177.296H97.2562C96.5103 177.296 95.7951 177.59 95.2665 178.114C94.7378 178.639 94.4394 179.351 94.4364 180.094Z" fill="#FFB812"/>
<path d="M72.6854 61.6158V112.292C67.6404 111.222 62.4267 111.222 57.3818 112.292V61.6158H72.6854Z" fill="#F7A38C"/>
<path d="M65.0315 184.506C67.6036 184.506 70.1689 184.237 72.6844 183.704V234.379H57.3808V183.704C59.8956 184.237 62.4602 184.506 65.0315 184.506Z" fill="#F7A38C"/>
<path d="M7.63701 140.376H29.1851C28.1109 145.402 28.1109 150.596 29.1851 155.622H7.63701V140.376Z" fill="#60BFC4"/>
<path d="M65.0317 133.169L75.6324 158.182L66.1365 154.181C65.4339 153.885 64.6402 153.884 63.9376 154.18L54.4396 158.181L65.0317 133.169Z" fill="#053856"/>
<path d="M170.763 56H36.2375C17.3585 56 2 69.9987 2 87.2046V208.795C2 226 17.3579 240 36.2375 240H170.763C189.642 240 205 226.001 205 208.795V87.2046C205 69.9991 189.642 56 170.763 56ZM94.4364 180.094V234.381H78.3244V182.034C83.0528 180.188 87.3474 177.39 90.9377 173.813C94.5287 170.237 97.338 165.959 99.1904 161.25H199.36V177.296H97.2562C96.5103 177.296 95.7951 177.59 95.2665 178.114C94.7378 178.639 94.4394 179.351 94.4364 180.094ZM7.63701 140.376H29.1851C28.1109 145.402 28.1109 150.596 29.1851 155.622H7.63701V140.376ZM34.027 147.999C34.027 141.889 35.8457 135.915 39.2533 130.834C42.6617 125.754 47.5053 121.794 53.1729 119.455C58.8404 117.116 65.077 116.504 71.0941 117.696C77.1111 118.888 82.6376 121.831 86.9754 126.152C91.3132 130.472 94.2671 135.977 95.4638 141.97C96.6606 147.963 96.0461 154.175 93.698 159.82C91.3507 165.466 87.3747 170.291 82.2742 173.685C77.1727 177.08 71.1763 178.892 65.041 178.891C56.8184 178.882 48.9356 175.625 43.1208 169.833C37.3059 164.042 34.0366 156.189 34.027 147.999ZM72.6854 61.6158V112.292C67.6404 111.222 62.4267 111.222 57.3818 112.292V61.6158H72.6854ZM128.873 61.6158V134.759H99.19C97.3375 130.049 94.5283 125.771 90.9373 122.195C87.3468 118.618 83.0525 115.82 78.3241 113.975V61.6268L128.873 61.6158ZM152.637 140.375H199.359V155.622L100.88 155.621C101.957 150.596 101.957 145.4 100.88 140.375H131.693C132.441 140.376 133.158 140.08 133.687 139.553C134.216 139.027 134.513 138.311 134.512 137.567V61.6159H149.819V137.567C149.818 138.312 150.114 139.027 150.643 139.553C151.172 140.08 151.889 140.376 152.637 140.375ZM65.0315 184.506C67.6036 184.506 70.1689 184.237 72.6844 183.704V234.379H57.3808V183.704C59.8956 184.237 62.4602 184.506 65.0315 184.506ZM199.359 87.2018V134.757H155.457V61.6139H170.761C186.529 61.6139 199.358 73.0924 199.358 87.2018H199.359ZM36.2356 61.6139H51.7425V113.973C47.0134 115.817 42.718 118.616 39.1263 122.192C35.5345 125.769 32.7231 130.047 30.8698 134.757H7.63757V87.202C7.63757 73.093 20.467 61.6139 36.2356 61.6139ZM7.63701 208.793V161.238H30.8692C32.7224 165.947 35.5324 170.224 39.1234 173.801C42.7145 177.378 47.009 180.177 51.7374 182.022V234.369H36.2348C20.4664 234.38 7.63701 222.902 7.63701 208.793ZM170.761 234.38H100.073V182.901H199.357V208.794C199.357 222.903 186.527 234.382 170.759 234.382L170.761 234.38ZM49.1392 166.268C49.5166 166.268 49.8904 166.191 50.2376 166.043L65.0317 159.808L79.8279 166.043C80.5196 166.333 81.2986 166.336 81.9917 166.053C82.6856 165.77 83.2377 165.222 83.5256 164.532C83.8134 163.843 83.8134 163.067 83.5248 162.377L67.6346 124.857C67.3446 124.178 66.7969 123.64 66.1111 123.36C65.4253 123.08 64.6566 123.08 63.9708 123.36C63.285 123.64 62.7372 124.178 62.4472 124.857L46.5409 162.377C46.1774 163.243 46.2729 164.233 46.7949 165.015C47.3169 165.797 48.1964 166.267 49.1392 166.268ZM65.0317 133.169L75.6324 158.182L66.1365 154.181C65.4339 153.885 64.6402 153.884 63.9376 154.18L54.4396 158.181L65.0317 133.169Z" stroke="white" stroke-width="3"/>
<path d="M152.637 140.375H199.359V155.622L100.88 155.621C101.957 150.596 101.957 145.4 100.88 140.375H131.693C132.441 140.376 133.158 140.08 133.687 139.553C134.216 139.027 134.513 138.311 134.512 137.567V61.6159H149.819V137.567C149.818 138.312 150.114 139.027 150.643 139.553C151.172 140.08 151.889 140.376 152.637 140.375Z" stroke="white" stroke-width="3"/>
<path d="M94.4364 180.094V234.381H78.3244V182.034C83.0528 180.188 87.3474 177.39 90.9377 173.813C94.5287 170.237 97.338 165.959 99.1904 161.25H199.36V177.296H97.2562C96.5103 177.296 95.7951 177.59 95.2665 178.114C94.7378 178.639 94.4394 179.351 94.4364 180.094Z" stroke="white" stroke-width="3"/>
<path d="M72.6854 61.6158V112.292C67.6404 111.222 62.4267 111.222 57.3818 112.292V61.6158H72.6854Z" stroke="white" stroke-width="3"/>
<path d="M65.0315 184.506C67.6036 184.506 70.1689 184.237 72.6844 183.704V234.379H57.3808V183.704C59.8956 184.237 62.4602 184.506 65.0315 184.506Z" stroke="white" stroke-width="3"/>
<path d="M7.63701 140.376H29.1851C28.1109 145.402 28.1109 150.596 29.1851 155.622H7.63701V140.376Z" stroke="white" stroke-width="3"/>
<path d="M65.0317 133.169L75.6324 158.182L66.1365 154.181C65.4339 153.885 64.6402 153.884 63.9376 154.18L54.4396 158.181L65.0317 133.169Z" stroke="white" stroke-width="3"/>
<path d="M445.523 225.973L444.174 224.138C444.955 220.162 446.032 217.12 443.58 213.806L431.524 196.151C430.115 194.239 427.299 193.916 425.245 195.429C423.735 196.542 423.031 196.933 422.378 198.139L421.487 196.933C419.976 194.877 417.083 194.443 415.038 195.947C413.528 197.06 412.807 197.451 412.188 198.7C410.652 196.763 407.835 196.363 405.833 197.85L405.417 198.156V169.03C405.417 166.252 403.16 164 400.394 164H365.023C362.248 164 360 166.26 360 169.03V233.552C360 236.33 362.257 238.582 365.023 238.582C403.126 238.582 401.421 238.956 403.254 237.69C410.372 241.607 407.895 243.136 421.504 240.383L423.269 242.779C422.76 244.368 423.015 246.135 424.033 247.512C428.674 253.816 428.538 253.876 429.268 253.986C429.616 254.037 429.947 253.944 430.21 253.748L454.467 235.821C454.738 235.617 454.916 235.32 454.967 234.988C455.077 234.283 455.188 234.666 450.335 228.072C449.206 226.543 447.365 225.778 445.532 225.974L445.523 225.973ZM362.537 169.03C362.537 167.662 363.648 166.549 365.014 166.549H400.403C401.769 166.549 402.88 167.662 402.88 169.03V173.627H362.537V169.03ZM362.537 176.176H402.88V200.45L396.093 191.24C394.947 189.694 392.894 189.159 390.951 189.728C382.976 182.642 370.274 188.275 370.274 199.04C370.274 210.425 384.494 215.931 392.08 207.214L401.336 219.763C402.117 220.825 402.498 222.099 402.447 223.391C395.219 222.72 394.735 222.49 393.182 223.119C390.934 224.054 389.5 225.218 388.575 226.399H362.536L362.537 176.176ZM377.19 200.298L379.99 203.492C380.499 204.07 381.398 204.07 381.899 203.492L385.937 198.887L390.519 205.107C384.732 212.567 372.811 208.446 372.811 199.049C372.811 190.952 382.042 186.278 388.55 191.071C387.091 192.15 385.224 193.322 385.072 196.015L380.94 200.722L379.099 198.615C377.987 197.349 376.078 199.032 377.181 200.298H377.19ZM365.023 236.043C363.657 236.043 362.545 234.93 362.545 233.562V228.957H387.303C386.827 230.732 386.929 232.491 388.338 233.681C390.858 235.813 392.173 232.916 399.809 236.043H365.023ZM412.425 239.237C409.261 239.492 408.836 237.504 402.686 234.53C394.277 230.46 391.062 232.652 389.976 231.735C389.305 231.166 389.662 229.713 389.993 228.956C390.934 226.824 394.048 225.167 395.346 225.303L403.415 226.051C403.966 226.102 404.62 225.711 404.772 225.074C405.349 222.593 404.722 220.086 403.372 218.259C387.651 196.925 387.837 197.264 387.701 196.874C387.328 195.854 387.99 194.648 388.864 194.002C390.289 192.948 391.511 191.733 393.047 192.124C393.971 192.354 393.42 191.912 402.88 204.75L409.447 213.654C410.448 215.013 412.493 213.493 411.492 212.142L405.426 203.908C404.739 202.957 405.01 201.657 405.875 201.02L407.352 199.924C408.277 199.244 409.575 199.439 410.253 200.365L418.645 211.75C419.646 213.11 421.69 211.589 420.689 210.238L414.631 202.022C413.953 201.096 414.148 199.804 415.056 199.124L416.549 198.02C417.465 197.349 418.763 197.544 419.442 198.462C428.741 211.079 428.215 210.765 429.156 210.765C430.192 210.765 430.802 209.584 430.183 208.734L424.66 201.232C424.091 200.45 424.371 199.26 425.288 198.581L426.764 197.485C427.689 196.805 428.902 196.89 429.453 197.629L441.51 215.284C442.435 216.542 442.774 218.122 442.443 219.745C441.51 224.495 441.349 224.605 441.79 225.208C443.215 227.145 443.071 226.882 442.961 226.959C424.719 240.442 425.05 240.179 424.728 240.468C421.283 235.795 424.295 238.233 412.425 239.227L412.425 239.237ZM429.716 250.946L426.077 246.001C425.169 244.769 425.483 243.052 426.645 242.194C445.183 228.489 444.581 228.829 445.268 228.617C446.38 228.269 447.585 228.66 448.272 229.594L451.92 234.539L429.717 250.954L429.716 250.946Z" fill="#053856"/>
<path d="M606.047 47H690.876C690.877 47 690.878 47.0003 690.879 47.0009C691.386 47.318 691.712 47.8985 691.712 48.5493V109.725C691.712 110.693 690.976 111.485 690.076 111.485H605.012C604.112 111.485 603.376 110.693 603.376 109.725V48.5493C603.376 47.349 604.847 47 606.047 47Z" stroke="#053856" stroke-width="2"/>
<path d="M674.126 76.8208H620.078C618.171 76.8208 616.626 78.3661 616.626 80.2724C616.626 82.1787 618.171 83.7241 620.078 83.7241H674.126C676.033 83.7241 677.578 82.1787 677.578 80.2724C677.578 78.3661 676.033 76.8208 674.126 76.8208Z" stroke="#053856" stroke-width="2"/>
<path d="M620.298 68.4778H673.905C675.934 68.4778 677.578 66.8336 677.578 64.8053C677.578 62.7771 675.934 61.1328 673.905 61.1328H620.298C618.27 61.1328 616.626 62.7771 616.626 64.8053C616.626 66.8336 618.27 68.4778 620.298 68.4778Z" stroke="#053856" stroke-width="2"/>
<path d="M674.053 91.1837H620.151C618.204 91.1837 616.626 92.762 616.626 94.7088C616.626 96.6557 618.204 98.234 620.151 98.234H674.053C676 98.234 677.578 96.6557 677.578 94.7088C677.578 92.762 676 91.1837 674.053 91.1837Z" stroke="#053856" stroke-width="2"/>
<path d="M693.222 93.1695C693.222 90.3151 695.537 88 698.392 88C701.246 88 703.56 90.3154 703.56 93.1695V113.784C703.56 116.639 701.246 118.952 698.392 118.952C695.538 118.952 693.222 116.639 693.222 113.784V93.1695Z" fill="#97D6BE" stroke="white" stroke-width="2"/>
<path d="M682.612 102.263C682.612 99.4093 684.925 97.0938 687.78 97.0938C690.635 97.0938 692.948 99.4092 692.948 102.263V113.783C692.948 116.637 690.635 118.951 687.78 118.951C684.926 118.951 682.612 116.637 682.612 113.783V102.263Z" fill="#E4A28F" stroke="white" stroke-width="2"/>
<path d="M672 108.328C672 105.474 674.314 103.16 677.168 103.16C680.022 103.16 682.338 105.473 682.338 108.328V113.786C682.338 116.64 680.022 118.954 677.168 118.954C674.314 118.954 672 116.64 672 113.786V108.328Z" fill="#FFB812" stroke="white" stroke-width="2"/>
<path d="M903.556 233.931V180.069C903.556 179.175 902.825 178.444 901.931 178.444H891.694C890.8 178.444 890.069 177.712 890.069 176.819V174.625C890.069 173.731 889.337 173 888.444 173H864.556C863.662 173 862.931 173.731 862.931 174.625V176.819C862.931 177.712 862.2 178.444 861.306 178.444H851.069C850.175 178.444 849.444 179.175 849.444 180.069V234.012C849.444 234.906 848.712 235.637 847.819 235.637L845.625 235.638C844.731 235.638 844 236.369 844 237.263V239.375C844 240.269 844.731 241 845.625 241H872.194C873.087 241 873.819 240.269 873.819 239.375V237.181C873.819 236.288 874.55 235.556 875.444 235.556H877.637C878.531 235.556 879.262 236.288 879.262 237.181L879.263 239.375C879.263 240.269 879.994 241 880.888 241H907.375C908.269 241 909 240.269 909 239.375V237.181C909 236.288 908.269 235.556 907.375 235.556H905.181C904.287 235.556 903.556 234.825 903.556 233.931ZM864.069 235.556H859.194C858.3 235.556 857.569 234.825 857.569 233.931V231.737C857.569 230.844 858.3 230.112 859.194 230.112H864.069C864.962 230.112 865.694 230.844 865.694 231.737V233.931C865.694 234.825 864.963 235.556 864.069 235.556ZM864.069 224.75H859.194C858.3 224.75 857.569 224.018 857.569 223.125V220.931C857.569 220.038 858.3 219.306 859.194 219.306H864.069C864.962 219.306 865.694 220.038 865.694 220.931V223.125C865.694 224.018 864.963 224.75 864.069 224.75ZM864.069 213.944H859.194C858.3 213.944 857.569 213.212 857.569 212.319V210.125C857.569 209.231 858.3 208.5 859.194 208.5H864.069C864.962 208.5 865.694 209.231 865.694 210.125V212.319C865.694 213.213 864.963 213.944 864.069 213.944ZM864.069 203.056H859.194C858.3 203.056 857.569 202.325 857.569 201.431V199.237C857.569 198.344 858.3 197.612 859.194 197.612H864.069C864.962 197.612 865.694 198.344 865.694 199.237V201.431C865.694 202.325 864.963 203.056 864.069 203.056ZM864.069 192.25H859.194C858.3 192.25 857.569 191.519 857.569 190.625V185.431C857.569 184.538 858.3 183.806 859.194 183.806H864.069C864.962 183.806 865.694 184.538 865.694 185.431V190.625C865.694 191.519 864.963 192.25 864.069 192.25ZM877.556 230.194H875.362C874.469 230.194 873.737 229.462 873.737 228.569L873.737 226.375C873.737 225.481 874.468 224.75 875.362 224.75H877.556C878.449 224.75 879.181 225.481 879.181 226.375V228.569C879.181 229.463 878.45 230.194 877.556 230.194ZM877.556 219.306H875.362C874.469 219.306 873.737 218.575 873.737 217.681V215.487C873.737 214.594 874.469 213.862 875.362 213.862H877.556C878.45 213.862 879.181 214.594 879.181 215.487V217.681C879.181 218.575 878.45 219.306 877.556 219.306ZM877.556 208.5H875.362C874.469 208.5 873.737 207.769 873.737 206.875V204.681C873.737 203.788 874.469 203.056 875.362 203.056H877.556C878.45 203.056 879.181 203.788 879.181 204.681V206.875C879.181 207.769 878.45 208.5 877.556 208.5ZM877.556 197.694H875.362C874.469 197.694 873.737 196.962 873.737 196.069L873.737 193.875C873.737 192.981 874.468 192.25 875.362 192.25H877.556C878.449 192.25 879.181 192.981 879.181 193.875V196.069C879.181 196.963 878.45 197.694 877.556 197.694ZM877.556 183.806H875.362C874.469 183.806 873.737 183.075 873.737 182.181V179.987C873.737 179.094 874.469 178.362 875.362 178.362H877.556C878.45 178.362 879.181 179.094 879.181 179.987V182.181C879.181 183.075 878.45 183.806 877.556 183.806ZM893.806 235.556H888.931C888.037 235.556 887.306 234.825 887.306 233.931V231.737C887.306 230.844 888.037 230.112 888.931 230.112H893.806C894.7 230.112 895.431 230.844 895.431 231.737V233.931C895.431 234.825 894.7 235.556 893.806 235.556ZM893.806 224.75H888.931C888.037 224.75 887.306 224.018 887.306 223.125V220.931C887.306 220.038 888.037 219.306 888.931 219.306H893.806C894.7 219.306 895.431 220.038 895.431 220.931V223.125C895.431 224.018 894.7 224.75 893.806 224.75ZM893.806 213.944H888.931C888.037 213.944 887.306 213.212 887.306 212.319V210.125C887.306 209.231 888.037 208.5 888.931 208.5H893.806C894.7 208.5 895.431 209.231 895.431 210.125V212.319C895.431 213.213 894.7 213.944 893.806 213.944ZM893.806 203.056H888.931C888.037 203.056 887.306 202.325 887.306 201.431V199.237C887.306 198.344 888.037 197.612 888.931 197.612H893.806C894.7 197.612 895.431 198.344 895.431 199.237V201.431C895.431 202.325 894.7 203.056 893.806 203.056ZM893.806 192.25H888.931C888.037 192.25 887.306 191.519 887.306 190.625V185.431C887.306 184.538 888.037 183.806 888.931 183.806H893.806C894.7 183.806 895.431 184.538 895.431 185.431V190.625C895.431 191.519 894.7 192.25 893.806 192.25Z" stroke="#053856" stroke-width="2"/>
<path d="M903.663 219.552C903.663 216.698 905.978 214.383 908.832 214.383C911.687 214.383 914 216.698 914 219.552V240.167C914 243.021 911.686 245.335 908.832 245.335C905.978 245.335 903.663 243.022 903.663 240.167V219.552Z" fill="#FFB812" stroke="white" stroke-width="2"/>
<path d="M893.053 228.646C893.053 225.792 895.366 223.477 898.221 223.477C901.076 223.477 903.389 225.792 903.389 228.646V240.166C903.389 243.02 901.075 245.334 898.221 245.334C895.366 245.334 893.053 243.02 893.053 240.166V228.646Z" fill="#FFB812" stroke="white" stroke-width="2"/>
<path d="M882.441 234.711C882.441 231.857 884.754 229.543 887.609 229.543C890.463 229.543 892.778 231.856 892.778 234.711V240.168C892.778 243.023 890.463 245.336 887.609 245.336C884.755 245.336 882.441 243.023 882.441 240.168V234.711Z" fill="#FFB812" stroke="white" stroke-width="2"/>
<path fill-rule="evenodd" clip-rule="evenodd" d="M612.196 173H694.804C697.672 173.003 699.997 175.3 700 178.132V240.868C699.997 243.7 697.672 245.997 694.804 246H612.196C609.328 245.997 607.003 243.7 607 240.868V178.132C607.003 175.3 609.328 173.003 612.196 173ZM640.17 177.229H626.601C626.122 177.229 625.735 177.611 625.735 178.084C625.735 178.556 626.122 178.942 626.601 178.942H640.17C640.649 178.942 641.036 178.556 641.036 178.084C641.036 177.611 640.649 177.229 640.17 177.229ZM679.921 177.473C678.093 177.473 676.521 178.749 676.164 180.519C675.805 182.292 676.764 184.065 678.456 184.754C680.144 185.447 682.091 184.863 683.109 183.361C684.124 181.859 683.925 179.857 682.63 178.581C681.914 177.87 680.939 177.47 679.921 177.473ZM681.408 179.791C680.698 179.092 679.589 178.984 678.754 179.532C677.922 180.083 677.599 181.136 677.98 182.051C678.364 182.966 679.349 183.487 680.333 183.294C681.314 183.102 682.024 182.25 682.024 181.26C682.024 180.709 681.802 180.179 681.408 179.791ZM670.414 177.47C668.585 177.47 667.01 178.746 666.653 180.519C666.297 182.289 667.257 184.062 668.945 184.754C670.636 185.443 672.583 184.863 673.598 183.361C674.616 181.859 674.415 179.857 673.123 178.581C672.404 177.867 671.428 177.47 670.414 177.47ZM671.898 179.791C671.191 179.089 670.079 178.981 669.247 179.532C668.412 180.083 668.089 181.136 668.473 182.051C668.857 182.966 669.841 183.484 670.822 183.291C671.806 183.099 672.513 182.247 672.513 181.256C672.513 180.706 672.294 180.179 671.898 179.791ZM666.559 220.471H684.413C684.647 220.48 684.876 220.393 685.043 220.231C685.211 220.071 685.306 219.848 685.306 219.617C685.306 219.385 685.211 219.165 685.043 219.003C684.876 218.843 684.647 218.756 684.413 218.762H666.565C666.33 218.756 666.102 218.843 665.934 219.003C665.766 219.165 665.672 219.385 665.672 219.617C665.672 219.848 665.766 220.071 665.934 220.231C666.102 220.393 666.33 220.48 666.565 220.471H666.559ZM666.559 214.454H684.413C684.647 214.463 684.876 214.376 685.043 214.214C685.211 214.054 685.306 213.831 685.306 213.599C685.306 213.368 685.211 213.148 685.043 212.985C684.876 212.826 684.647 212.739 684.413 212.745H666.565C666.33 212.739 666.102 212.826 665.934 212.985C665.766 213.148 665.672 213.368 665.672 213.599C665.672 213.831 665.766 214.054 665.934 214.214C666.102 214.376 666.33 214.463 666.565 214.454H666.559ZM666.559 208.437H684.41L684.413 208.44C684.892 208.44 685.279 208.058 685.279 207.585C685.279 207.11 684.892 206.728 684.413 206.728H666.565C666.087 206.728 665.7 207.11 665.7 207.585C665.7 208.058 666.087 208.44 666.565 208.44L666.559 208.437ZM666.559 202.42H684.41L684.413 202.423C684.648 202.429 684.876 202.342 685.044 202.182C685.212 202.02 685.306 201.8 685.306 201.568C685.306 201.337 685.212 201.114 685.044 200.954C684.876 200.792 684.648 200.704 684.413 200.713H666.565C666.331 200.704 666.102 200.792 665.934 200.954C665.767 201.114 665.672 201.337 665.672 201.568C665.672 201.8 665.767 202.02 665.934 202.182C666.102 202.342 666.331 202.429 666.565 202.423L666.559 202.42ZM676.176 223.758L673.132 234.982C673.01 235.437 673.284 235.906 673.745 236.027C674.208 236.15 674.68 235.879 674.805 235.422L677.849 224.197C677.971 223.743 677.697 223.273 677.237 223.153C676.776 223.03 676.301 223.3 676.179 223.758H676.176ZM670.789 224.134L664.188 228.902C663.963 229.065 663.832 229.324 663.835 229.601C663.838 229.874 663.975 230.133 664.204 230.29L670.792 235.049C671.176 235.329 671.718 235.244 671.998 234.865C672.135 234.681 672.19 234.453 672.157 234.23C672.12 234.007 671.995 233.806 671.812 233.67L666.166 229.591L671.812 225.513C672.196 225.233 672.282 224.7 671.998 224.318C671.718 223.939 671.175 223.854 670.792 224.134L670.789 224.134ZM679.166 225.513L684.815 229.592L679.169 233.67C678.785 233.95 678.699 234.483 678.983 234.865C679.263 235.244 679.805 235.329 680.189 235.049L686.775 230.293H686.778C686.854 230.239 686.924 230.173 686.979 230.097C687.113 229.917 687.171 229.688 687.134 229.462C687.101 229.239 686.976 229.038 686.793 228.905L680.193 224.137H680.19C680.007 224.002 679.775 223.948 679.547 223.981C679.321 224.017 679.117 224.14 678.983 224.321C678.7 224.703 678.785 225.236 679.169 225.516L679.166 225.513ZM642.635 203.489C637.65 203.489 633.362 206.965 632.387 211.793C631.415 216.621 634.033 221.455 638.634 223.339C643.239 225.224 648.55 223.634 651.32 219.541C654.087 215.447 653.544 209.992 650.019 206.51C648.062 204.572 645.405 203.486 642.635 203.489ZM648.794 207.721C645.853 204.819 641.249 204.37 637.793 206.652C634.334 208.934 632.994 213.307 634.584 217.1C636.175 220.896 640.258 223.048 644.335 222.248C648.41 221.447 651.347 217.91 651.344 213.805C651.347 211.523 650.43 209.334 648.794 207.721ZM645.085 199.28L644.439 195.84H640.825L640.185 199.28C640.118 199.63 639.841 199.903 639.487 199.967C637.866 200.325 636.321 200.96 634.919 201.842C634.627 202.026 634.252 202.02 633.966 201.824L631.046 199.837L628.493 202.363L630.501 205.246C630.705 205.538 630.702 205.927 630.495 206.219C629.605 207.603 628.968 209.129 628.612 210.731C628.535 211.065 628.264 211.321 627.923 211.384L624.44 212.022V215.592L627.923 216.23V216.227C628.276 216.29 628.554 216.567 628.618 216.916C628.983 218.518 629.626 220.044 630.522 221.428C630.708 221.717 630.702 222.088 630.504 222.371L628.496 225.254L631.049 227.777L633.969 225.793C634.267 225.591 634.66 225.594 634.956 225.799C636.358 226.675 637.903 227.307 639.521 227.659C639.859 227.734 640.121 228.002 640.185 228.339L640.831 231.78H644.445L645.091 228.339H645.088C645.152 227.987 645.429 227.713 645.786 227.653C647.407 227.292 648.952 226.66 650.354 225.778C650.646 225.591 651.021 225.597 651.308 225.793L654.227 227.777L656.78 225.254L654.772 222.371C654.568 222.076 654.571 221.687 654.778 221.398C655.668 220.014 656.305 218.488 656.668 216.886C656.741 216.552 657.012 216.293 657.353 216.233L660.836 215.595V212.025L657.353 211.387C657 211.324 656.722 211.05 656.658 210.7C656.296 209.096 655.653 207.57 654.76 206.185C654.574 205.899 654.58 205.526 654.778 205.246L656.774 202.363L654.221 199.84L651.301 201.824L651.304 201.821C651.006 202.023 650.613 202.023 650.317 201.818C648.915 200.939 647.37 200.307 645.752 199.952C645.414 199.876 645.152 199.609 645.088 199.271L645.085 199.28ZM646.063 195.145V195.142C645.954 194.558 645.439 194.133 644.838 194.133H640.432C639.829 194.133 639.314 194.558 639.204 195.142L638.588 198.429C637.147 198.796 635.764 199.362 634.481 200.111L631.689 198.218V198.215C631.662 198.197 631.634 198.179 631.604 198.164C631.116 197.884 630.501 197.965 630.102 198.356L626.981 201.439C626.957 201.466 626.93 201.493 626.908 201.52C626.552 201.944 626.521 202.549 626.838 203.004L628.755 205.761H628.758C628.002 207.028 627.429 208.395 627.054 209.819L623.727 210.427C623.136 210.535 622.706 211.044 622.706 211.637V215.992C622.706 216.585 623.136 217.094 623.727 217.202L627.054 217.81C627.429 219.234 628.002 220.601 628.758 221.868L626.841 224.625H626.838C626.82 224.652 626.802 224.679 626.786 224.709C626.506 225.191 626.585 225.799 626.981 226.193L630.102 229.276C630.129 229.3 630.157 229.327 630.184 229.348C630.614 229.703 631.229 229.73 631.686 229.417L634.478 227.524L634.481 227.521C635.763 228.267 637.144 228.833 638.585 229.204L639.201 232.491C639.311 233.074 639.825 233.499 640.429 233.499H644.838H644.835C645.439 233.499 645.953 233.074 646.063 232.491L646.679 229.204C648.12 228.833 649.501 228.267 650.783 227.521L653.575 229.414V229.417C653.602 229.435 653.633 229.453 653.663 229.468C654.151 229.748 654.766 229.667 655.162 229.276L658.283 226.193C658.31 226.166 658.334 226.139 658.359 226.112C658.715 225.688 658.743 225.083 658.426 224.628L656.509 221.871C657.265 220.604 657.838 219.237 658.21 217.813L661.537 217.205C662.128 217.097 662.558 216.588 662.561 215.995V211.631C662.558 211.035 662.128 210.526 661.537 210.418L658.21 209.81C657.838 208.386 657.265 207.019 656.509 205.755L658.426 202.998V202.995C658.444 202.968 658.462 202.941 658.478 202.91C658.761 202.429 658.682 201.821 658.283 201.427L655.162 198.344C655.138 198.32 655.111 198.296 655.08 198.272C654.653 197.917 654.038 197.89 653.578 198.206L650.786 200.099C649.504 199.353 648.123 198.787 646.679 198.416L646.063 195.129L646.063 195.145ZM608.73 181.46H658.304C659.431 181.448 660.501 181.948 661.201 182.818L665.821 188.384C666.196 188.856 666.778 189.127 667.387 189.112H698.274L698.271 178.131C698.268 176.244 696.72 174.715 694.806 174.709H612.194C610.283 174.715 608.735 176.244 608.729 178.131L608.73 181.46ZM698.27 190.822H667.392C666.265 190.834 665.195 190.334 664.488 189.464L659.872 183.898C659.497 183.426 658.915 183.155 658.305 183.17H608.732V240.867C608.738 242.754 610.286 244.283 612.196 244.289H694.805C696.716 244.283 698.264 242.754 698.27 240.867L698.27 190.822Z" fill="#053856"/>
<path d="M697.222 225.169C697.222 222.315 699.537 220 702.392 220C705.246 220 707.56 222.315 707.56 225.169V245.784C707.56 248.639 705.246 250.952 702.392 250.952C699.538 250.952 697.222 248.639 697.222 245.784V225.169Z" fill="#FFB812" stroke="white" stroke-width="2"/>
<path d="M686.612 234.263C686.612 231.409 688.925 229.094 691.78 229.094C694.635 229.094 696.948 231.409 696.948 234.263V245.783C696.948 248.637 694.635 250.951 691.78 250.951C688.926 250.951 686.612 248.637 686.612 245.783V234.263Z" fill="#E4A28F" stroke="white" stroke-width="2"/>
<path d="M676 240.328C676 237.474 678.314 235.16 681.168 235.16C684.022 235.16 686.338 237.473 686.338 240.328V245.786C686.338 248.64 684.022 250.954 681.168 250.954C678.314 250.954 676 248.64 676 245.786V240.328Z" fill="#FFB812" stroke="white" stroke-width="2"/>
<path d="M571.061 210.061C571.646 209.475 571.646 208.525 571.061 207.939L561.515 198.393C560.929 197.808 559.979 197.808 559.393 198.393C558.808 198.979 558.808 199.929 559.393 200.515L567.879 209L559.393 217.485C558.808 218.071 558.808 219.021 559.393 219.607C559.979 220.192 560.929 220.192 561.515 219.607L571.061 210.061ZM466.75 210.5C467.578 210.5 468.25 209.828 468.25 209C468.25 208.172 467.578 207.5 466.75 207.5L466.75 210.5ZM473.75 207.5C472.922 207.5 472.25 208.172 472.25 209C472.25 209.828 472.922 210.5 473.75 210.5L473.75 207.5ZM484.25 210.5C485.078 210.5 485.75 209.828 485.75 209C485.75 208.172 485.078 207.5 484.25 207.5L484.25 210.5ZM498.25 207.5C497.422 207.5 496.75 208.172 496.75 209C496.75 209.828 497.422 210.5 498.25 210.5L498.25 207.5ZM501.75 210.5C502.578 210.5 503.25 209.828 503.25 209C503.25 208.172 502.578 207.5 501.75 207.5L501.75 210.5ZM508.75 207.5C507.922 207.5 507.25 208.172 507.25 209C507.25 209.828 507.922 210.5 508.75 210.5L508.75 207.5ZM519.25 210.5C520.078 210.5 520.75 209.828 520.75 209C520.75 208.172 520.078 207.5 519.25 207.5L519.25 210.5ZM533.25 207.5C532.422 207.5 531.75 208.172 531.75 209C531.75 209.828 532.422 210.5 533.25 210.5L533.25 207.5ZM536.75 210.5C537.578 210.5 538.25 209.828 538.25 209C538.25 208.172 537.578 207.5 536.75 207.5L536.75 210.5ZM543.75 207.5C542.922 207.5 542.25 208.172 542.25 209C542.25 209.828 542.922 210.5 543.75 210.5L543.75 207.5ZM554.25 210.5C555.078 210.5 555.75 209.828 555.75 209C555.75 208.172 555.078 207.5 554.25 207.5L554.25 210.5ZM568.25 207.5C567.422 207.5 566.75 208.172 566.75 209C566.75 209.828 567.422 210.5 568.25 210.5L568.25 207.5ZM465 210.5L466.75 210.5L466.75 207.5L465 207.5L465 210.5ZM473.75 210.5L484.25 210.5L484.25 207.5L473.75 207.5L473.75 210.5ZM498.25 210.5L501.75 210.5L501.75 207.5L498.25 207.5L498.25 210.5ZM508.75 210.5L519.25 210.5L519.25 207.5L508.75 207.5L508.75 210.5ZM533.25 210.5L536.75 210.5L536.75 207.5L533.25 207.5L533.25 210.5ZM543.75 210.5L554.25 210.5L554.25 207.5L543.75 207.5L543.75 210.5ZM568.25 210.5L570 210.5L570 207.5L568.25 207.5L568.25 210.5ZM571.061 210.061C571.646 209.475 571.646 208.525 571.061 207.939L561.515 198.393C560.929 197.808 559.979 197.808 559.393 198.393C558.808 198.979 558.808 199.929 559.393 200.515L567.879 209L559.393 217.485C558.808 218.071 558.808 219.021 559.393 219.607C559.979 220.192 560.929 220.192 561.515 219.607L571.061 210.061ZM466.75 210.5C467.578 210.5 468.25 209.828 468.25 209C468.25 208.172 467.578 207.5 466.75 207.5L466.75 210.5ZM473.75 207.5C472.922 207.5 472.25 208.172 472.25 209C472.25 209.828 472.922 210.5 473.75 210.5L473.75 207.5ZM484.25 210.5C485.078 210.5 485.75 209.828 485.75 209C485.75 208.172 485.078 207.5 484.25 207.5L484.25 210.5ZM498.25 207.5C497.422 207.5 496.75 208.172 496.75 209C496.75 209.828 497.422 210.5 498.25 210.5L498.25 207.5ZM501.75 210.5C502.578 210.5 503.25 209.828 503.25 209C503.25 208.172 502.578 207.5 501.75 207.5L501.75 210.5ZM508.75 207.5C507.922 207.5 507.25 208.172 507.25 209C507.25 209.828 507.922 210.5 508.75 210.5L508.75 207.5ZM519.25 210.5C520.078 210.5 520.75 209.828 520.75 209C520.75 208.172 520.078 207.5 519.25 207.5L519.25 210.5ZM533.25 207.5C532.422 207.5 531.75 208.172 531.75 209C531.75 209.828 532.422 210.5 533.25 210.5L533.25 207.5ZM536.75 210.5C537.578 210.5 538.25 209.828 538.25 209C538.25 208.172 537.578 207.5 536.75 207.5L536.75 210.5ZM543.75 207.5C542.922 207.5 542.25 208.172 542.25 209C542.25 209.828 542.922 210.5 543.75 210.5L543.75 207.5ZM554.25 210.5C555.078 210.5 555.75 209.828 555.75 209C555.75 208.172 555.078 207.5 554.25 207.5L554.25 210.5ZM568.25 207.5C567.422 207.5 566.75 208.172 566.75 209C566.75 209.828 567.422 210.5 568.25 210.5L568.25 207.5ZM465 210.5L466.75 210.5L466.75 207.5L465 207.5L465 210.5ZM473.75 210.5L484.25 210.5L484.25 207.5L473.75 207.5L473.75 210.5ZM498.25 210.5L501.75 210.5L501.75 207.5L498.25 207.5L498.25 210.5ZM508.75 210.5L519.25 210.5L519.25 207.5L508.75 207.5L508.75 210.5ZM533.25 210.5L536.75 210.5L536.75 207.5L533.25 207.5L533.25 210.5ZM543.75 210.5L554.25 210.5L554.25 207.5L543.75 207.5L543.75 210.5ZM568.25 210.5L570 210.5L570 207.5L568.25 207.5L568.25 210.5Z" fill="#E4A28F"/>
<path d="M343.061 210.061C343.646 209.475 343.646 208.525 343.061 207.939L333.515 198.393C332.929 197.808 331.979 197.808 331.393 198.393C330.808 198.979 330.808 199.929 331.393 200.515L339.879 209L331.393 217.485C330.808 218.071 330.808 219.021 331.393 219.607C331.979 220.192 332.929 220.192 333.515 219.607L343.061 210.061ZM258.15 210.5C258.978 210.5 259.65 209.828 259.65 209C259.65 208.172 258.978 207.5 258.15 207.5L258.15 210.5ZM266.75 207.5C265.922 207.5 265.25 208.172 265.25 209C265.25 209.828 265.922 210.5 266.75 210.5L266.75 207.5ZM279.65 210.5C280.478 210.5 281.15 209.828 281.15 209C281.15 208.172 280.478 207.5 279.65 207.5L279.65 210.5ZM296.85 207.5C296.022 207.5 295.35 208.172 295.35 209C295.35 209.828 296.022 210.5 296.85 210.5L296.85 207.5ZM301.15 210.5C301.978 210.5 302.65 209.828 302.65 209C302.65 208.172 301.978 207.5 301.15 207.5L301.15 210.5ZM309.75 207.5C308.922 207.5 308.25 208.172 308.25 209C308.25 209.828 308.922 210.5 309.75 210.5L309.75 207.5ZM322.65 210.5C323.478 210.5 324.15 209.828 324.15 209C324.15 208.172 323.478 207.5 322.65 207.5L322.65 210.5ZM339.85 207.5C339.022 207.5 338.35 208.172 338.35 209C338.35 209.828 339.022 210.5 339.85 210.5L339.85 207.5ZM256 210.5L258.15 210.5L258.15 207.5L256 207.5L256 210.5ZM266.75 210.5L279.65 210.5L279.65 207.5L266.75 207.5L266.75 210.5ZM296.85 210.5L301.15 210.5L301.15 207.5L296.85 207.5L296.85 210.5ZM309.75 210.5L322.65 210.5L322.65 207.5L309.75 207.5L309.75 210.5ZM339.85 210.5L342 210.5L342 207.5L339.85 207.5L339.85 210.5ZM343.061 210.061C343.646 209.475 343.646 208.525 343.061 207.939L333.515 198.393C332.929 197.808 331.979 197.808 331.393 198.393C330.808 198.979 330.808 199.929 331.393 200.515L339.879 209L331.393 217.485C330.808 218.071 330.808 219.021 331.393 219.607C331.979 220.192 332.929 220.192 333.515 219.607L343.061 210.061ZM258.15 210.5C258.978 210.5 259.65 209.828 259.65 209C259.65 208.172 258.978 207.5 258.15 207.5L258.15 210.5ZM266.75 207.5C265.922 207.5 265.25 208.172 265.25 209C265.25 209.828 265.922 210.5 266.75 210.5L266.75 207.5ZM279.65 210.5C280.478 210.5 281.15 209.828 281.15 209C281.15 208.172 280.478 207.5 279.65 207.5L279.65 210.5ZM296.85 207.5C296.022 207.5 295.35 208.172 295.35 209C295.35 209.828 296.022 210.5 296.85 210.5L296.85 207.5ZM301.15 210.5C301.978 210.5 302.65 209.828 302.65 209C302.65 208.172 301.978 207.5 301.15 207.5L301.15 210.5ZM309.75 207.5C308.922 207.5 308.25 208.172 308.25 209C308.25 209.828 308.922 210.5 309.75 210.5L309.75 207.5ZM322.65 210.5C323.478 210.5 324.15 209.828 324.15 209C324.15 208.172 323.478 207.5 322.65 207.5L322.65 210.5ZM339.85 207.5C339.022 207.5 338.35 208.172 338.35 209C338.35 209.828 339.022 210.5 339.85 210.5L339.85 207.5ZM256 210.5L258.15 210.5L258.15 207.5L256 207.5L256 210.5ZM266.75 210.5L279.65 210.5L279.65 207.5L266.75 207.5L266.75 210.5ZM296.85 210.5L301.15 210.5L301.15 207.5L296.85 207.5L296.85 210.5ZM309.75 210.5L322.65 210.5L322.65 207.5L309.75 207.5L309.75 210.5ZM339.85 210.5L342 210.5L342 207.5L339.85 207.5L339.85 210.5Z" fill="#E4A28F"/>
<path d="M254.939 83.9393C254.354 84.5251 254.354 85.4749 254.939 86.0607L264.485 95.6066C265.071 96.1924 266.021 96.1924 266.607 95.6066C267.192 95.0208 267.192 94.0711 266.607 93.4853L258.121 85L266.607 76.5147C267.192 75.9289 267.192 74.9792 266.607 74.3934C266.021 73.8076 265.071 73.8076 264.485 74.3934L254.939 83.9393ZM570 86.5C570.828 86.5 571.5 85.8285 571.5 85C571.5 84.1716 570.828 83.5 570 83.5L570 86.5ZM257.962 86.5C258.791 86.5 259.463 85.8284 259.463 85C259.463 84.1716 258.791 83.5 257.963 83.5L257.962 86.5ZM265.813 83.5C264.984 83.5 264.313 84.1716 264.312 85C264.312 85.8284 264.984 86.5 265.812 86.5L265.813 83.5ZM277.587 86.5C278.416 86.5 279.087 85.8284 279.087 85C279.087 84.1716 278.416 83.5 277.587 83.5L277.587 86.5ZM293.287 83.5C292.459 83.5 291.787 84.1716 291.787 85C291.787 85.8284 292.459 86.5 293.287 86.5L293.287 83.5ZM297.212 86.5C298.041 86.5 298.712 85.8284 298.712 85C298.712 84.1716 298.041 83.5 297.212 83.5L297.212 86.5ZM305.062 83.5C304.234 83.5 303.562 84.1716 303.562 85C303.562 85.8284 304.234 86.5 305.062 86.5L305.062 83.5ZM316.837 86.5C317.666 86.5 318.337 85.8284 318.337 85C318.337 84.1716 317.666 83.5 316.837 83.5L316.837 86.5ZM332.537 83.5C331.709 83.5 331.037 84.1716 331.037 85C331.037 85.8284 331.709 86.5 332.537 86.5L332.537 83.5ZM336.463 86.5C337.291 86.5 337.963 85.8284 337.963 85C337.963 84.1716 337.291 83.5 336.463 83.5L336.463 86.5ZM344.312 83.5C343.484 83.5 342.812 84.1716 342.812 85C342.812 85.8284 343.484 86.5 344.312 86.5L344.312 83.5ZM356.088 86.5C356.916 86.5 357.588 85.8284 357.588 85C357.588 84.1716 356.916 83.5 356.088 83.5L356.088 86.5ZM371.787 83.5C370.959 83.5 370.287 84.1716 370.287 85C370.287 85.8284 370.959 86.5 371.787 86.5L371.787 83.5ZM375.713 86.5C376.541 86.5 377.213 85.8284 377.213 85C377.213 84.1716 376.541 83.5 375.713 83.5L375.713 86.5ZM383.562 83.5C382.734 83.5 382.062 84.1716 382.062 85C382.062 85.8284 382.734 86.5 383.562 86.5L383.562 83.5ZM395.337 86.5C396.166 86.5 396.837 85.8284 396.837 85C396.837 84.1716 396.166 83.5 395.337 83.5L395.337 86.5ZM411.037 83.5C410.209 83.5 409.537 84.1716 409.537 85C409.537 85.8284 410.209 86.5 411.037 86.5L411.037 83.5ZM414.962 86.5C415.791 86.5 416.462 85.8284 416.462 85C416.462 84.1716 415.791 83.5 414.962 83.5L414.962 86.5ZM422.813 83.5C421.984 83.5 421.313 84.1716 421.312 85C421.312 85.8284 421.984 86.5 422.812 86.5L422.813 83.5ZM434.587 86.5C435.416 86.5 436.087 85.8284 436.087 85C436.087 84.1716 435.416 83.5 434.587 83.5L434.587 86.5ZM450.287 83.5C449.459 83.5 448.787 84.1716 448.787 85C448.787 85.8284 449.459 86.5 450.287 86.5L450.287 83.5ZM454.212 86.5C455.041 86.5 455.712 85.8284 455.712 85C455.712 84.1716 455.041 83.5 454.212 83.5L454.212 86.5ZM462.063 83.5C461.234 83.5 460.563 84.1716 460.562 85C460.562 85.8284 461.234 86.5 462.062 86.5L462.063 83.5ZM473.837 86.5C474.666 86.5 475.337 85.8284 475.337 85C475.337 84.1716 474.666 83.5 473.837 83.5L473.837 86.5ZM489.537 83.5C488.709 83.5 488.037 84.1716 488.037 85C488.037 85.8284 488.709 86.5 489.537 86.5L489.537 83.5ZM493.462 86.5C494.291 86.5 494.962 85.8284 494.962 85C494.962 84.1716 494.291 83.5 493.462 83.5L493.462 86.5ZM501.313 83.5C500.484 83.5 499.813 84.1716 499.812 85C499.812 85.8284 500.484 86.5 501.312 86.5L501.313 83.5ZM513.087 86.5C513.916 86.5 514.587 85.8284 514.587 85C514.587 84.1716 513.916 83.5 513.087 83.5L513.087 86.5ZM528.788 83.5C527.959 83.5 527.288 84.1716 527.288 85C527.288 85.8285 527.959 86.5 528.788 86.5L528.788 83.5ZM532.712 86.5C533.541 86.5 534.212 85.8285 534.212 85C534.212 84.1716 533.541 83.5 532.712 83.5L532.712 86.5ZM540.563 83.5C539.734 83.5 539.063 84.1716 539.062 85C539.062 85.8285 539.734 86.5 540.562 86.5L540.563 83.5ZM552.337 86.5C553.166 86.5 553.837 85.8285 553.837 85C553.837 84.1716 553.166 83.5 552.337 83.5L552.337 86.5ZM568.038 83.5C567.209 83.5 566.538 84.1716 566.538 85C566.538 85.8285 567.209 86.5 568.038 86.5L568.038 83.5ZM256 86.5L257.962 86.5L257.963 83.5L256 83.5L256 86.5ZM265.812 86.5L277.587 86.5L277.587 83.5L265.813 83.5L265.812 86.5ZM293.287 86.5L297.212 86.5L297.212 83.5L293.287 83.5L293.287 86.5ZM305.062 86.5L316.837 86.5L316.837 83.5L305.062 83.5L305.062 86.5ZM332.537 86.5L336.463 86.5L336.463 83.5L332.537 83.5L332.537 86.5ZM344.312 86.5L356.088 86.5L356.088 83.5L344.312 83.5L344.312 86.5ZM371.787 86.5L375.713 86.5L375.713 83.5L371.787 83.5L371.787 86.5ZM383.562 86.5L395.337 86.5L395.337 83.5L383.562 83.5L383.562 86.5ZM411.037 86.5L414.962 86.5L414.962 83.5L411.037 83.5L411.037 86.5ZM422.812 86.5L434.587 86.5L434.587 83.5L422.813 83.5L422.812 86.5ZM450.287 86.5L454.212 86.5L454.212 83.5L450.287 83.5L450.287 86.5ZM462.062 86.5L473.837 86.5L473.837 83.5L462.063 83.5L462.062 86.5ZM489.537 86.5L493.462 86.5L493.462 83.5L489.537 83.5L489.537 86.5ZM501.312 86.5L513.087 86.5L513.087 83.5L501.313 83.5L501.312 86.5ZM528.788 86.5L532.712 86.5L532.712 83.5L528.788 83.5L528.788 86.5ZM540.562 86.5L552.337 86.5L552.337 83.5L540.563 83.5L540.562 86.5ZM568.038 86.5L570 86.5L570 83.5L568.038 83.5L568.038 86.5ZM254.939 83.9393C254.354 84.5251 254.354 85.4749 254.939 86.0607L264.485 95.6066C265.071 96.1924 266.021 96.1924 266.607 95.6066C267.192 95.0208 267.192 94.0711 266.607 93.4853L258.121 85L266.607 76.5147C267.192 75.9289 267.192 74.9792 266.607 74.3934C266.021 73.8076 265.071 73.8076 264.485 74.3934L254.939 83.9393ZM570 86.5C570.828 86.5 571.5 85.8285 571.5 85C571.5 84.1716 570.828 83.5 570 83.5L570 86.5ZM257.962 86.5C258.791 86.5 259.463 85.8284 259.463 85C259.463 84.1716 258.791 83.5 257.963 83.5L257.962 86.5ZM265.813 83.5C264.984 83.5 264.313 84.1716 264.312 85C264.312 85.8284 264.984 86.5 265.812 86.5L265.813 83.5ZM277.587 86.5C278.416 86.5 279.087 85.8284 279.087 85C279.087 84.1716 278.416 83.5 277.587 83.5L277.587 86.5ZM293.287 83.5C292.459 83.5 291.787 84.1716 291.787 85C291.787 85.8284 292.459 86.5 293.287 86.5L293.287 83.5ZM297.212 86.5C298.041 86.5 298.712 85.8284 298.712 85C298.712 84.1716 298.041 83.5 297.212 83.5L297.212 86.5ZM305.062 83.5C304.234 83.5 303.562 84.1716 303.562 85C303.562 85.8284 304.234 86.5 305.062 86.5L305.062 83.5ZM316.837 86.5C317.666 86.5 318.337 85.8284 318.337 85C318.337 84.1716 317.666 83.5 316.837 83.5L316.837 86.5ZM332.537 83.5C331.709 83.5 331.037 84.1716 331.037 85C331.037 85.8284 331.709 86.5 332.537 86.5L332.537 83.5ZM336.463 86.5C337.291 86.5 337.963 85.8284 337.963 85C337.963 84.1716 337.291 83.5 336.463 83.5L336.463 86.5ZM344.312 83.5C343.484 83.5 342.812 84.1716 342.812 85C342.812 85.8284 343.484 86.5 344.312 86.5L344.312 83.5ZM356.088 86.5C356.916 86.5 357.588 85.8284 357.588 85C357.588 84.1716 356.916 83.5 356.088 83.5L356.088 86.5ZM371.787 83.5C370.959 83.5 370.287 84.1716 370.287 85C370.287 85.8284 370.959 86.5 371.787 86.5L371.787 83.5ZM375.713 86.5C376.541 86.5 377.213 85.8284 377.213 85C377.213 84.1716 376.541 83.5 375.713 83.5L375.713 86.5ZM383.562 83.5C382.734 83.5 382.062 84.1716 382.062 85C382.062 85.8284 382.734 86.5 383.562 86.5L383.562 83.5ZM395.337 86.5C396.166 86.5 396.837 85.8284 396.837 85C396.837 84.1716 396.166 83.5 395.337 83.5L395.337 86.5ZM411.037 83.5C410.209 83.5 409.537 84.1716 409.537 85C409.537 85.8284 410.209 86.5 411.037 86.5L411.037 83.5ZM414.962 86.5C415.791 86.5 416.462 85.8284 416.462 85C416.462 84.1716 415.791 83.5 414.962 83.5L414.962 86.5ZM422.813 83.5C421.984 83.5 421.313 84.1716 421.312 85C421.312 85.8284 421.984 86.5 422.812 86.5L422.813 83.5ZM434.587 86.5C435.416 86.5 436.087 85.8284 436.087 85C436.087 84.1716 435.416 83.5 434.587 83.5L434.587 86.5ZM450.287 83.5C449.459 83.5 448.787 84.1716 448.787 85C448.787 85.8284 449.459 86.5 450.287 86.5L450.287 83.5ZM454.212 86.5C455.041 86.5 455.712 85.8284 455.712 85C455.712 84.1716 455.041 83.5 454.212 83.5L454.212 86.5ZM462.063 83.5C461.234 83.5 460.563 84.1716 460.562 85C460.562 85.8284 461.234 86.5 462.062 86.5L462.063 83.5ZM473.837 86.5C474.666 86.5 475.337 85.8284 475.337 85C475.337 84.1716 474.666 83.5 473.837 83.5L473.837 86.5ZM489.537 83.5C488.709 83.5 488.037 84.1716 488.037 85C488.037 85.8284 488.709 86.5 489.537 86.5L489.537 83.5ZM493.462 86.5C494.291 86.5 494.962 85.8284 494.962 85C494.962 84.1716 494.291 83.5 493.462 83.5L493.462 86.5ZM501.313 83.5C500.484 83.5 499.813 84.1716 499.812 85C499.812 85.8284 500.484 86.5 501.312 86.5L501.313 83.5ZM513.087 86.5C513.916 86.5 514.587 85.8284 514.587 85C514.587 84.1716 513.916 83.5 513.087 83.5L513.087 86.5ZM528.788 83.5C527.959 83.5 527.288 84.1716 527.288 85C527.288 85.8285 527.959 86.5 528.788 86.5L528.788 83.5ZM532.712 86.5C533.541 86.5 534.212 85.8285 534.212 85C534.212 84.1716 533.541 83.5 532.712 83.5L532.712 86.5ZM540.563 83.5C539.734 83.5 539.063 84.1716 539.062 85C539.062 85.8285 539.734 86.5 540.562 86.5L540.563 83.5ZM552.337 86.5C553.166 86.5 553.837 85.8285 553.837 85C553.837 84.1716 553.166 83.5 552.337 83.5L552.337 86.5ZM568.038 83.5C567.209 83.5 566.538 84.1716 566.538 85C566.538 85.8285 567.209 86.5 568.038 86.5L568.038 83.5ZM256 86.5L257.962 86.5L257.963 83.5L256 83.5L256 86.5ZM265.812 86.5L277.587 86.5L277.587 83.5L265.813 83.5L265.812 86.5ZM293.287 86.5L297.212 86.5L297.212 83.5L293.287 83.5L293.287 86.5ZM305.062 86.5L316.837 86.5L316.837 83.5L305.062 83.5L305.062 86.5ZM332.537 86.5L336.463 86.5L336.463 83.5L332.537 83.5L332.537 86.5ZM344.312 86.5L356.088 86.5L356.088 83.5L344.312 83.5L344.312 86.5ZM371.787 86.5L375.713 86.5L375.713 83.5L371.787 83.5L371.787 86.5ZM383.562 86.5L395.337 86.5L395.337 83.5L383.562 83.5L383.562 86.5ZM411.037 86.5L414.962 86.5L414.962 83.5L411.037 83.5L411.037 86.5ZM422.812 86.5L434.587 86.5L434.587 83.5L422.813 83.5L422.812 86.5ZM450.287 86.5L454.212 86.5L454.212 83.5L450.287 83.5L450.287 86.5ZM462.062 86.5L473.837 86.5L473.837 83.5L462.063 83.5L462.062 86.5ZM489.537 86.5L493.462 86.5L493.462 83.5L489.537 83.5L489.537 86.5ZM501.312 86.5L513.087 86.5L513.087 83.5L501.313 83.5L501.312 86.5ZM528.788 86.5L532.712 86.5L532.712 83.5L528.788 83.5L528.788 86.5ZM540.562 86.5L552.337 86.5L552.337 83.5L540.563 83.5L540.562 86.5ZM568.038 86.5L570 86.5L570 83.5L568.038 83.5L568.038 86.5Z" fill="url(#paint0_linear_2951_6876)"/>
<path d="M742.939 208.939C742.354 209.525 742.354 210.475 742.939 211.061L752.485 220.607C753.071 221.192 754.021 221.192 754.607 220.607C755.192 220.021 755.192 219.071 754.607 218.485L746.121 210L754.607 201.515C755.192 200.929 755.192 199.979 754.607 199.393C754.021 198.808 753.071 198.808 752.485 199.393L742.939 208.939ZM825.9 208.5C825.072 208.5 824.4 209.172 824.4 210C824.4 210.828 825.072 211.5 825.9 211.5V208.5ZM817.5 211.5C818.328 211.5 819 210.828 819 210C819 209.172 818.328 208.5 817.5 208.5V211.5ZM804.9 208.5C804.072 208.5 803.4 209.172 803.4 210C803.4 210.828 804.072 211.5 804.9 211.5V208.5ZM788.1 211.5C788.928 211.5 789.6 210.828 789.6 210C789.6 209.172 788.928 208.5 788.1 208.5V211.5ZM783.9 208.5C783.072 208.5 782.4 209.172 782.4 210C782.4 210.828 783.072 211.5 783.9 211.5V208.5ZM775.5 211.5C776.328 211.5 777 210.828 777 210C777 209.172 776.328 208.5 775.5 208.5V211.5ZM762.9 208.5C762.072 208.5 761.4 209.172 761.4 210C761.4 210.828 762.072 211.5 762.9 211.5V208.5ZM746.1 211.5C746.928 211.5 747.6 210.828 747.6 210C747.6 209.172 746.928 208.5 746.1 208.5V211.5ZM828 208.5H825.9V211.5H828V208.5ZM817.5 208.5H804.9V211.5H817.5V208.5ZM788.1 208.5H783.9V211.5H788.1V208.5ZM775.5 208.5H762.9V211.5H775.5V208.5ZM746.1 208.5H744V211.5H746.1V208.5ZM742.939 208.939C742.354 209.525 742.354 210.475 742.939 211.061L752.485 220.607C753.071 221.192 754.021 221.192 754.607 220.607C755.192 220.021 755.192 219.071 754.607 218.485L746.121 210L754.607 201.515C755.192 200.929 755.192 199.979 754.607 199.393C754.021 198.808 753.071 198.808 752.485 199.393L742.939 208.939ZM825.9 208.5C825.072 208.5 824.4 209.172 824.4 210C824.4 210.828 825.072 211.5 825.9 211.5V208.5ZM817.5 211.5C818.328 211.5 819 210.828 819 210C819 209.172 818.328 208.5 817.5 208.5V211.5ZM804.9 208.5C804.072 208.5 803.4 209.172 803.4 210C803.4 210.828 804.072 211.5 804.9 211.5V208.5ZM788.1 211.5C788.928 211.5 789.6 210.828 789.6 210C789.6 209.172 788.928 208.5 788.1 208.5V211.5ZM783.9 208.5C783.072 208.5 782.4 209.172 782.4 210C782.4 210.828 783.072 211.5 783.9 211.5V208.5ZM775.5 211.5C776.328 211.5 777 210.828 777 210C777 209.172 776.328 208.5 775.5 208.5V211.5ZM762.9 208.5C762.072 208.5 761.4 209.172 761.4 210C761.4 210.828 762.072 211.5 762.9 211.5V208.5ZM746.1 211.5C746.928 211.5 747.6 210.828 747.6 210C747.6 209.172 746.928 208.5 746.1 208.5V211.5ZM828 208.5H825.9V211.5H828V208.5ZM817.5 208.5H804.9V211.5H817.5V208.5ZM788.1 208.5H783.9V211.5H788.1V208.5ZM775.5 208.5H762.9V211.5H775.5V208.5ZM746.1 208.5H744V211.5H746.1V208.5Z" fill="#FFB812"/>
<path d="M742.939 83.9393C742.354 84.5251 742.354 85.4749 742.939 86.0607L752.485 95.6066C753.071 96.1924 754.021 96.1924 754.607 95.6066C755.192 95.0208 755.192 94.0711 754.607 93.4853L746.121 85L754.607 76.5147C755.192 75.9289 755.192 74.9792 754.607 74.3934C754.021 73.8076 753.071 73.8076 752.485 74.3934L742.939 83.9393ZM825.9 83.5C825.072 83.5 824.4 84.1716 824.4 85C824.4 85.8284 825.072 86.5 825.9 86.5V83.5ZM817.5 86.5C818.328 86.5 819 85.8284 819 85C819 84.1716 818.328 83.5 817.5 83.5V86.5ZM804.9 83.5C804.072 83.5 803.4 84.1716 803.4 85C803.4 85.8284 804.072 86.5 804.9 86.5V83.5ZM788.1 86.5C788.928 86.5 789.6 85.8284 789.6 85C789.6 84.1716 788.928 83.5 788.1 83.5V86.5ZM783.9 83.5C783.072 83.5 782.4 84.1716 782.4 85C782.4 85.8284 783.072 86.5 783.9 86.5V83.5ZM775.5 86.5C776.328 86.5 777 85.8284 777 85C777 84.1716 776.328 83.5 775.5 83.5V86.5ZM762.9 83.5C762.072 83.5 761.4 84.1716 761.4 85C761.4 85.8284 762.072 86.5 762.9 86.5V83.5ZM746.1 86.5C746.928 86.5 747.6 85.8284 747.6 85C747.6 84.1716 746.928 83.5 746.1 83.5V86.5ZM828 83.5H825.9V86.5H828V83.5ZM817.5 83.5H804.9V86.5H817.5V83.5ZM788.1 83.5H783.9V86.5H788.1V83.5ZM775.5 83.5L762.9 83.5V86.5L775.5 86.5V83.5ZM746.1 83.5H744V86.5H746.1V83.5ZM742.939 83.9393C742.354 84.5251 742.354 85.4749 742.939 86.0607L752.485 95.6066C753.071 96.1924 754.021 96.1924 754.607 95.6066C755.192 95.0208 755.192 94.0711 754.607 93.4853L746.121 85L754.607 76.5147C755.192 75.9289 755.192 74.9792 754.607 74.3934C754.021 73.8076 753.071 73.8076 752.485 74.3934L742.939 83.9393ZM825.9 83.5C825.072 83.5 824.4 84.1716 824.4 85C824.4 85.8284 825.072 86.5 825.9 86.5V83.5ZM817.5 86.5C818.328 86.5 819 85.8284 819 85C819 84.1716 818.328 83.5 817.5 83.5V86.5ZM804.9 83.5C804.072 83.5 803.4 84.1716 803.4 85C803.4 85.8284 804.072 86.5 804.9 86.5V83.5ZM788.1 86.5C788.928 86.5 789.6 85.8284 789.6 85C789.6 84.1716 788.928 83.5 788.1 83.5V86.5ZM783.9 83.5C783.072 83.5 782.4 84.1716 782.4 85C782.4 85.8284 783.072 86.5 783.9 86.5V83.5ZM775.5 86.5C776.328 86.5 777 85.8284 777 85C777 84.1716 776.328 83.5 775.5 83.5V86.5ZM762.9 83.5C762.072 83.5 761.4 84.1716 761.4 85C761.4 85.8284 762.072 86.5 762.9 86.5V83.5ZM746.1 86.5C746.928 86.5 747.6 85.8284 747.6 85C747.6 84.1716 746.928 83.5 746.1 83.5V86.5ZM828 83.5H825.9V86.5H828V83.5ZM817.5 83.5H804.9V86.5H817.5V83.5ZM788.1 83.5H783.9V86.5H788.1V83.5ZM775.5 83.5L762.9 83.5V86.5L775.5 86.5V83.5ZM746.1 83.5H744V86.5H746.1V83.5Z" fill="#97D6BE"/>
<path d="M672.061 127.939C671.475 127.354 670.525 127.354 669.939 127.939L660.393 137.485C659.808 138.071 659.808 139.021 660.393 139.607C660.979 140.192 661.929 140.192 662.515 139.607L671 131.121L679.485 139.607C680.071 140.192 681.021 140.192 681.607 139.607C682.192 139.021 682.192 138.071 681.607 137.485L672.061 127.939ZM672.5 158.45C672.5 157.622 671.828 156.95 671 156.95C670.172 156.95 669.5 157.622 669.5 158.45L672.5 158.45ZM669.5 152.25C669.5 153.078 670.172 153.75 671 153.75C671.828 153.75 672.5 153.078 672.5 152.25L669.5 152.25ZM672.5 142.95C672.5 142.122 671.828 141.45 671 141.45C670.172 141.45 669.5 142.122 669.5 142.95L672.5 142.95ZM669.5 130.55C669.5 131.378 670.172 132.05 671 132.05C671.828 132.05 672.5 131.378 672.5 130.55L669.5 130.55ZM672.5 160L672.5 158.45L669.5 158.45L669.5 160L672.5 160ZM672.5 152.25L672.5 142.95L669.5 142.95L669.5 152.25L672.5 152.25ZM672.5 130.55L672.5 129L669.5 129L669.5 130.55L672.5 130.55ZM672.061 127.939C671.475 127.354 670.525 127.354 669.939 127.939L660.393 137.485C659.808 138.071 659.808 139.021 660.393 139.607C660.979 140.192 661.929 140.192 662.515 139.607L671 131.121L679.485 139.607C680.071 140.192 681.021 140.192 681.607 139.607C682.192 139.021 682.192 138.071 681.607 137.485L672.061 127.939ZM672.5 158.45C672.5 157.622 671.828 156.95 671 156.95C670.172 156.95 669.5 157.622 669.5 158.45L672.5 158.45ZM669.5 152.25C669.5 153.078 670.172 153.75 671 153.75C671.828 153.75 672.5 153.078 672.5 152.25L669.5 152.25ZM672.5 142.95C672.5 142.122 671.828 141.45 671 141.45C670.172 141.45 669.5 142.122 669.5 142.95L672.5 142.95ZM669.5 130.55C669.5 131.378 670.172 132.05 671 132.05C671.828 132.05 672.5 131.378 672.5 130.55L669.5 130.55ZM672.5 160L672.5 158.45L669.5 158.45L669.5 160L672.5 160ZM672.5 152.25L672.5 142.95L669.5 142.95L669.5 152.25L672.5 152.25ZM672.5 130.55L672.5 129L669.5 129L669.5 130.55L672.5 130.55Z" fill="#E4A28F"/>
<path d="M631.061 127.939C630.475 127.354 629.525 127.354 628.939 127.939L619.393 137.485C618.808 138.071 618.808 139.021 619.393 139.607C619.979 140.192 620.929 140.192 621.515 139.607L630 131.121L638.485 139.607C639.071 140.192 640.021 140.192 640.607 139.607C641.192 139.021 641.192 138.071 640.607 137.485L631.061 127.939ZM631.5 158.45C631.5 157.622 630.828 156.95 630 156.95C629.172 156.95 628.5 157.622 628.5 158.45L631.5 158.45ZM628.5 152.25C628.5 153.078 629.172 153.75 630 153.75C630.828 153.75 631.5 153.078 631.5 152.25L628.5 152.25ZM631.5 142.95C631.5 142.122 630.828 141.45 630 141.45C629.172 141.45 628.5 142.122 628.5 142.95L631.5 142.95ZM628.5 130.55C628.5 131.378 629.172 132.05 630 132.05C630.828 132.05 631.5 131.378 631.5 130.55L628.5 130.55ZM631.5 160L631.5 158.45L628.5 158.45L628.5 160L631.5 160ZM631.5 152.25L631.5 142.95L628.5 142.95L628.5 152.25L631.5 152.25ZM631.5 130.55L631.5 129L628.5 129L628.5 130.55L631.5 130.55ZM631.061 127.939C630.475 127.354 629.525 127.354 628.939 127.939L619.393 137.485C618.808 138.071 618.808 139.021 619.393 139.607C619.979 140.192 620.929 140.192 621.515 139.607L630 131.121L638.485 139.607C639.071 140.192 640.021 140.192 640.607 139.607C641.192 139.021 641.192 138.071 640.607 137.485L631.061 127.939ZM631.5 158.45C631.5 157.622 630.828 156.95 630 156.95C629.172 156.95 628.5 157.622 628.5 158.45L631.5 158.45ZM628.5 152.25C628.5 153.078 629.172 153.75 630 153.75C630.828 153.75 631.5 153.078 631.5 152.25L628.5 152.25ZM631.5 142.95C631.5 142.122 630.828 141.45 630 141.45C629.172 141.45 628.5 142.122 628.5 142.95L631.5 142.95ZM628.5 130.55C628.5 131.378 629.172 132.05 630 132.05C630.828 132.05 631.5 131.378 631.5 130.55L628.5 130.55ZM631.5 160L631.5 158.45L628.5 158.45L628.5 160L631.5 160ZM631.5 152.25L631.5 142.95L628.5 142.95L628.5 152.25L631.5 152.25ZM631.5 130.55L631.5 129L628.5 129L628.5 130.55L631.5 130.55Z" fill="#FFB812"/>
<defs>
<linearGradient id="paint0_linear_2951_6876" x1="256" y1="85.5" x2="570" y2="85.5" gradientUnits="userSpaceOnUse">
<stop stop-color="#FFB812"/>
<stop offset="0.485" stop-color="#F7A38C"/>
<stop offset="1" stop-color="#97D6BE"/>
</linearGradient>
</defs>
</svg>
