<svg width="13" height="13" viewBox="0 0 13 13" fill="none" xmlns="http://www.w3.org/2000/svg">
<path d="M11.1562 9V7.65625H9.84375V9H11.1562ZM11.1562 11.6562V10.3438H9.84375V11.6562H11.1562ZM7.15625 3.65625V2.34375H5.84375V3.65625H7.15625ZM7.15625 6.34375V5H5.84375V6.34375H7.15625ZM7.15625 9V7.65625H5.84375V9H7.15625ZM7.15625 11.6562V10.3438H5.84375V11.6562H7.15625ZM3.15625 6.34375V5H1.84375V6.34375H3.15625ZM3.15625 9V7.65625H1.84375V9H3.15625ZM3.15625 11.6562V10.3438H1.84375V11.6562H3.15625ZM8.5 6.34375H12.5V13H0.5V3.65625H4.5V2.34375L6.5 0.34375L8.5 2.34375V6.34375Z" fill="#053856"/>
</svg>
