<svg xmlns="http://www.w3.org/2000/svg" width="24" height="25" viewBox="0 0 24 25" fill="none">
    <path fill-rule="evenodd" clip-rule="evenodd" d="M12.7461 19.58L12.75 19.5038V13.26H18.9932L19.0693 13.2561C19.4477 13.2179 19.7432 12.8985 19.7432 12.51C19.7432 12.1216 19.4477 11.8021 19.0693 11.7639L18.9932 11.76H12.75V5.51648C12.75 5.10227 12.4142 4.76648 12 4.76648C11.5858 4.76648 11.25 5.10227 11.25 5.51648V11.76H5.00586C4.59165 11.76 4.25586 12.0958 4.25586 12.51C4.25586 12.9242 4.59165 13.26 5.00586 13.26H11.25V19.5038L11.2539 19.58C11.2921 19.9583 11.6115 20.2538 12 20.2538C12.3885 20.2538 12.7079 19.9583 12.7461 19.58Z" fill="#ffff" stroke="#fff" stroke-width="3"/>
</svg>
