<svg xmlns="http://www.w3.org/2000/svg" data-name="Layer 1" viewBox="0 0 30 30">
<g fill='#383838'>
<path d="M22.761,8.653l3.946-3.946a1,1,0,1,0-1.414-1.414L20.982,7.6A12.932,12.932,0,0,0,15,6C7.4,6,1.441,14.068,1.191,14.412a1,1,0,0,0,0,1.176,26.55,26.55,0,0,0,6.048,5.759L3.293,25.293a1,1,0,1,0,1.414,1.414L9.018,22.4A12.932,12.932,0,0,0,15,24c7.6,0,13.559-8.068,13.809-8.412a1,1,0,0,0,0-1.176A26.55,26.55,0,0,0,22.761,8.653ZM3.274,15C4.746,13.217,9.52,8,15,8a10.585,10.585,0,0,1,4.489,1.1l-1.736,1.736a4.992,4.992,0,0,0-6.92,6.92l-2.14,2.14A24.9,24.9,0,0,1,3.274,15ZM18,15a3,3,0,0,1-3,3,2.951,2.951,0,0,1-1.285-.3L17.7,13.715A2.951,2.951,0,0,1,18,15Zm-6,0a3,3,0,0,1,3-3,2.951,2.951,0,0,1,1.285.3L12.3,16.285A2.951,2.951,0,0,1,12,15Zm3,7a10.585,10.585,0,0,1-4.489-1.1l1.736-1.736a4.992,4.992,0,0,0,6.92-6.92l2.14-2.14A24.9,24.9,0,0,1,26.726,15C25.254,16.783,20.48,22,15,22Z"/>
</g>
</svg>