<svg width="32" height="32" viewBox="0 0 32 32" fill="none" xmlns="http://www.w3.org/2000/svg">
<rect width="32" height="32" rx="16" fill="#B4B4B4" fill-opacity="0.3"/>
<path d="M21.8203 18.5V16.8203H20.1797V18.5H21.8203ZM21.8203 21.8203V20.1797H20.1797V21.8203H21.8203ZM16.8203 11.8203V10.1797H15.1797V11.8203H16.8203ZM16.8203 15.1797V13.5H15.1797V15.1797H16.8203ZM16.8203 18.5V16.8203H15.1797V18.5H16.8203ZM16.8203 21.8203V20.1797H15.1797V21.8203H16.8203ZM11.8203 15.1797V13.5H10.1797V15.1797H11.8203ZM11.8203 18.5V16.8203H10.1797V18.5H11.8203ZM11.8203 21.8203V20.1797H10.1797V21.8203H11.8203ZM18.5 15.1797H23.5V23.5H8.5V11.8203H13.5V10.1797L16 7.67969L18.5 10.1797V15.1797Z" fill="#053856"/>
</svg>
