<svg xmlns="http://www.w3.org/2000/svg" version="1.1" viewBox="0 -0 100.0 100.0">
 <path fill='#FFB812' d="m26.492 27.734c0-9.4766 7.7109-17.188 17.188-17.188 9.4766 0 17.188 7.7109 17.188 17.188s-7.7109 17.188-17.188 17.188c-9.4766 0-17.188-7.7109-17.188-17.188zm34.258 25.961c-0.24219-0.58594-0.8125-0.96094-1.4453-0.96094h-28.18c-11.172 0-20.258 9.0859-20.258 20.258v14.898c0 0.85938 0.70312 1.5625 1.5625 1.5625h12.5v-13.281c0-1.7266 1.3984-3.125 3.125-3.125 1.7266 0 3.125 1.3984 3.125 3.125v13.281h9.375c0.85937 0 1.5625-0.70312 1.5625-1.5625v-14.195l18.289-18.289c0.45312-0.45312 0.58594-1.125 0.34375-1.7109zm-11.922 22.938c-0.29688 0.29688-0.46094 0.6875-0.46094 1.1016v9.375c0 0.85938 0.70312 1.5625 1.5625 1.5625h9.375c0.41406 0 0.8125-0.16406 1.1016-0.46094l18.102-18.102-11.578-11.586zm38.844-22.742-4.5234-4.5234c-0.94531-0.94531-2.1953-1.4609-3.5312-1.4609-1.3359 0-2.5859 0.52344-3.5312 1.4609l-4.7344 4.7344 11.586 11.586 4.7344-4.7344c0.94531-0.94531 1.4609-2.1953 1.4609-3.5312s-0.52344-2.5859-1.4609-3.5312z"/>
</svg>